Onest-Medium.ufo
<glyph name="exclam" format="2">
  <advance width="290"/>
  <unicode hex="0021"/>
  <outline>
    <contour>
      <point x="96" y="225" type="line"/>
      <point x="83" y="707" type="line"/>
      <point x="206" y="707" type="line"/>
      <point x="193" y="225" type="line"/>
    </contour>
    <contour>
      <point x="145" y="137" type="curve" smooth="yes"/>
      <point x="189" y="137"/>
      <point x="218" y="107"/>
      <point x="218" y="63" type="curve" smooth="yes"/>
      <point x="218" y="20"/>
      <point x="188" y="-8"/>
      <point x="145" y="-8" type="curve" smooth="yes"/>
      <point x="101" y="-8"/>
      <point x="72" y="19"/>
      <point x="72" y="63" type="curve" smooth="yes"/>
      <point x="72" y="107"/>
      <point x="101" y="137"/>
    </contour>
  </outline>
</glyph>
<glyph name="quotedbl" format="2">
  <advance width="389"/>
  <unicode hex="0022"/>
  <outline>
    <contour>
      <point x="152" y="455" type="line"/>
      <point x="67" y="455" type="line"/>
      <point x="54" y="707" type="line"/>
      <point x="165" y="707" type="line"/>
    </contour>
    <contour>
      <point x="321" y="455" type="line"/>
      <point x="236" y="455" type="line"/>
      <point x="223" y="707" type="line"/>
      <point x="335" y="707" type="line"/>
    </contour>
  </outline>
</glyph>
<glyph name="numbersign" format="2">
  <advance width="658"/>
  <unicode hex="0023"/>
  <outline>
    <contour>
      <point x="190" y="531" type="line"/>
      <point x="209" y="707" type="line"/>
      <point x="309" y="707" type="line"/>
      <point x="289" y="531" type="line"/>
      <point x="408" y="531" type="line"/>
      <point x="428" y="707" type="line"/>
      <point x="528" y="707" type="line"/>
      <point x="509" y="531" type="line"/>
      <point x="604" y="531" type="line"/>
      <point x="604" y="433" type="line"/>
      <point x="498" y="433" type="line"/>
      <point x="480" y="273" type="line"/>
      <point x="575" y="273" type="line"/>
      <point x="575" y="175" type="line"/>
      <point x="469" y="175" type="line"/>
      <point x="449" y="0" type="line"/>
      <point x="349" y="0" type="line"/>
      <point x="369" y="175" type="line"/>
      <point x="249" y="175" type="line"/>
      <point x="230" y="0" type="line"/>
      <point x="129" y="0" type="line"/>
      <point x="149" y="175" type="line"/>
      <point x="54" y="175" type="line"/>
      <point x="54" y="273" type="line"/>
      <point x="160" y="273" type="line"/>
      <point x="178" y="433" type="line"/>
      <point x="83" y="433" type="line"/>
      <point x="83" y="531" type="line"/>
    </contour>
    <contour>
      <point x="260" y="273" type="line"/>
      <point x="380" y="273" type="line"/>
      <point x="397" y="433" type="line"/>
      <point x="278" y="433" type="line"/>
    </contour>
  </outline>
</glyph>
<glyph name="dollar" format="2">
  <advance width="664"/>
  <unicode hex="0024"/>
  <outline>
    <contour>
      <point x="283" y="846" type="line"/>
      <point x="391" y="846" type="line"/>
      <point x="391" y="712" type="line"/>
      <point x="507" y="699"/>
      <point x="585" y="630"/>
      <point x="592" y="507" type="curve"/>
      <point x="482" y="507" type="line"/>
      <point x="471" y="586"/>
      <point x="414" y="613"/>
      <point x="333" y="613" type="curve" smooth="yes"/>
      <point x="267" y="613"/>
      <point x="197" y="588"/>
      <point x="197" y="518" type="curve" smooth="yes"/>
      <point x="197" y="425"/>
      <point x="291" y="417"/>
      <point x="374" y="402" type="curve" smooth="yes"/>
      <point x="507" y="377"/>
      <point x="609" y="344"/>
      <point x="609" y="205" type="curve" smooth="yes"/>
      <point x="609" y="64"/>
      <point x="506" y="2"/>
      <point x="386" y="-6" type="curve"/>
      <point x="386" y="-137" type="line"/>
      <point x="279" y="-137" type="line"/>
      <point x="279" y="-3" type="line"/>
      <point x="154" y="13"/>
      <point x="65" y="86"/>
      <point x="54" y="210" type="curve"/>
      <point x="170" y="210" type="line"/>
      <point x="186" y="125"/>
      <point x="268" y="98"/>
      <point x="343" y="98" type="curve" smooth="yes"/>
      <point x="414" y="98"/>
      <point x="494" y="120"/>
      <point x="494" y="198" type="curve" smooth="yes"/>
      <point x="494" y="289"/>
      <point x="377" y="290"/>
      <point x="297" y="307" type="curve" smooth="yes"/>
      <point x="170" y="335"/>
      <point x="77" y="385"/>
      <point x="77" y="512" type="curve" smooth="yes"/>
      <point x="77" y="642"/>
      <point x="177" y="700"/>
      <point x="283" y="713" type="curve"/>
    </contour>
  </outline>
</glyph>
<glyph name="percent" format="2">
  <advance width="835"/>
  <unicode hex="0025"/>
  <outline>
    <contour>
      <point x="213" y="389" type="curve" smooth="yes"/>
      <point x="109" y="389"/>
      <point x="54" y="462"/>
      <point x="54" y="554" type="curve" smooth="yes"/>
      <point x="54" y="650"/>
      <point x="109" y="719"/>
      <point x="213" y="719" type="curve" smooth="yes"/>
      <point x="314" y="719"/>
      <point x="370" y="650"/>
      <point x="370" y="554" type="curve" smooth="yes"/>
      <point x="370" y="462"/>
      <point x="313" y="389"/>
    </contour>
    <contour>
      <point x="136" y="0" type="line"/>
      <point x="580" y="707" type="line"/>
      <point x="694" y="707" type="line"/>
      <point x="250" y="0" type="line"/>
    </contour>
    <contour>
      <point x="213" y="632" type="curve" smooth="yes"/>
      <point x="162" y="632"/>
      <point x="145" y="595"/>
      <point x="145" y="554" type="curve" smooth="yes"/>
      <point x="145" y="511"/>
      <point x="162" y="476"/>
      <point x="213" y="476" type="curve" smooth="yes"/>
      <point x="261" y="476"/>
      <point x="277" y="513"/>
      <point x="277" y="554" type="curve" smooth="yes"/>
      <point x="277" y="595"/>
      <point x="261" y="632"/>
    </contour>
    <contour>
      <point x="623" y="-11" type="curve" smooth="yes"/>
      <point x="519" y="-11"/>
      <point x="464" y="62"/>
      <point x="464" y="154" type="curve" smooth="yes"/>
      <point x="464" y="250"/>
      <point x="519" y="319"/>
      <point x="623" y="319" type="curve" smooth="yes"/>
      <point x="724" y="319"/>
      <point x="781" y="250"/>
      <point x="781" y="154" type="curve" smooth="yes"/>
      <point x="781" y="62"/>
      <point x="724" y="-11"/>
    </contour>
    <contour>
      <point x="622" y="232" type="curve" smooth="yes"/>
      <point x="574" y="232"/>
      <point x="555" y="197"/>
      <point x="555" y="154" type="curve" smooth="yes"/>
      <point x="555" y="111"/>
      <point x="574" y="76"/>
      <point x="622" y="76" type="curve" smooth="yes"/>
      <point x="671" y="76"/>
      <point x="687" y="113"/>
      <point x="687" y="154" type="curve" smooth="yes"/>
      <point x="687" y="196"/>
      <point x="673" y="232"/>
    </contour>
  </outline>
</glyph>
<glyph name="ampersand" format="2">
  <advance width="694"/>
  <unicode hex="0026"/>
  <outline>
    <contour>
      <point x="481" y="55" type="line"/>
      <point x="428" y="8"/>
      <point x="362" y="-12"/>
      <point x="281" y="-12" type="curve" smooth="yes"/>
      <point x="161" y="-12"/>
      <point x="62" y="58"/>
      <point x="62" y="183" type="curve" smooth="yes"/>
      <point x="62" y="275"/>
      <point x="117" y="335"/>
      <point x="197" y="378" type="curve"/>
      <point x="152" y="422"/>
      <point x="124" y="472"/>
      <point x="124" y="531" type="curve" smooth="yes"/>
      <point x="124" y="647"/>
      <point x="209" y="713"/>
      <point x="317" y="713" type="curve" smooth="yes"/>
      <point x="417" y="713"/>
      <point x="498" y="656"/>
      <point x="498" y="552" type="curve" smooth="yes"/>
      <point x="498" y="465"/>
      <point x="430" y="402"/>
      <point x="354" y="359" type="curve"/>
      <point x="484" y="208" type="line"/>
      <point x="503" y="243"/>
      <point x="514" y="282"/>
      <point x="519" y="322" type="curve"/>
      <point x="623" y="322" type="line"/>
      <point x="616" y="255"/>
      <point x="594" y="192"/>
      <point x="554" y="133" type="curve"/>
      <point x="675" y="0" type="line"/>
      <point x="532" y="0" type="line"/>
    </contour>
    <contour>
      <point x="289" y="425" type="curve"/>
      <point x="329" y="449"/>
      <point x="393" y="491"/>
      <point x="393" y="541" type="curve" smooth="yes"/>
      <point x="393" y="588"/>
      <point x="362" y="617"/>
      <point x="315" y="617" type="curve" smooth="yes"/>
      <point x="264" y="617"/>
      <point x="228" y="590"/>
      <point x="228" y="538" type="curve" smooth="yes"/>
      <point x="228" y="488"/>
      <point x="262" y="457"/>
    </contour>
    <contour>
      <point x="258" y="307" type="line"/>
      <point x="210" y="280"/>
      <point x="171" y="244"/>
      <point x="171" y="189" type="curve" smooth="yes"/>
      <point x="171" y="117"/>
      <point x="235" y="86"/>
      <point x="298" y="86" type="curve" smooth="yes"/>
      <point x="341" y="86"/>
      <point x="383" y="100"/>
      <point x="418" y="128" type="curve"/>
    </contour>
  </outline>
</glyph>
<glyph name="quotesingle" format="2">
  <advance width="235"/>
  <unicode hex="0027"/>
  <outline>
    <contour>
      <point x="160" y="455" type="line"/>
      <point x="75" y="455" type="line"/>
      <point x="62" y="707" type="line"/>
      <point x="173" y="707" type="line"/>
    </contour>
  </outline>
</glyph>
<glyph name="parenleft" format="2">
  <advance width="324"/>
  <unicode hex="0028"/>
  <outline>
    <contour>
      <point x="359" y="813" type="line"/>
      <point x="225" y="650"/>
      <point x="174" y="479"/>
      <point x="174" y="304" type="curve" smooth="yes"/>
      <point x="174" y="128"/>
      <point x="227" y="-40"/>
      <point x="358" y="-203" type="curve"/>
      <point x="230" y="-203" type="line"/>
      <point x="115" y="-59"/>
      <point x="60" y="131"/>
      <point x="60" y="304" type="curve" smooth="yes"/>
      <point x="60" y="478"/>
      <point x="117" y="669"/>
      <point x="231" y="813" type="curve"/>
    </contour>
  </outline>
</glyph>
<glyph name="parenright" format="2">
  <advance width="324"/>
  <unicode hex="0029"/>
  <outline>
    <contour>
      <point x="-35" y="-203" type="line"/>
      <point x="97" y="-40"/>
      <point x="150" y="130"/>
      <point x="150" y="305" type="curve" smooth="yes"/>
      <point x="150" y="481"/>
      <point x="97" y="650"/>
      <point x="-34" y="813" type="curve"/>
      <point x="93" y="813" type="line"/>
      <point x="207" y="669"/>
      <point x="264" y="479"/>
      <point x="264" y="305" type="curve" smooth="yes"/>
      <point x="264" y="131"/>
      <point x="206" y="-60"/>
      <point x="92" y="-203" type="curve"/>
    </contour>
  </outline>
</glyph>
<glyph name="asterisk" format="2">
  <advance width="441"/>
  <unicode hex="002A"/>
  <outline>
    <contour>
      <point x="259" y="729" type="line"/>
      <point x="259" y="630" type="line"/>
      <point x="353" y="661" type="line"/>
      <point x="377" y="587" type="line"/>
      <point x="282" y="556" type="line"/>
      <point x="342" y="475" type="line"/>
      <point x="279" y="429" type="line"/>
      <point x="220" y="510" type="line"/>
      <point x="162" y="430" type="line"/>
      <point x="98" y="476" type="line"/>
      <point x="161" y="559" type="line"/>
      <point x="64" y="589" type="line"/>
      <point x="87" y="661" type="line"/>
      <point x="181" y="630" type="line"/>
      <point x="181" y="729" type="line"/>
    </contour>
  </outline>
</glyph>
<glyph name="plus" format="2">
  <advance width="564"/>
  <unicode hex="002B"/>
  <outline>
    <contour>
      <point x="69" y="406" type="line"/>
      <point x="233" y="406" type="line"/>
      <point x="233" y="573" type="line"/>
      <point x="330" y="573" type="line"/>
      <point x="330" y="406" type="line"/>
      <point x="495" y="406" type="line"/>
      <point x="495" y="308" type="line"/>
      <point x="330" y="308" type="line"/>
      <point x="330" y="140" type="line"/>
      <point x="233" y="140" type="line"/>
      <point x="233" y="308" type="line"/>
      <point x="69" y="308" type="line"/>
    </contour>
  </outline>
</glyph>
<glyph name="comma" format="2">
  <advance width="283"/>
  <unicode hex="002C"/>
  <outline>
    <contour>
      <point x="134" y="-8" type="curve"/>
      <point x="94" y="-5"/>
      <point x="65" y="20"/>
      <point x="65" y="63" type="curve" smooth="yes"/>
      <point x="65" y="110"/>
      <point x="98" y="135"/>
      <point x="142" y="135" type="curve" smooth="yes"/>
      <point x="195" y="135"/>
      <point x="221" y="90"/>
      <point x="221" y="42" type="curve" smooth="yes"/>
      <point x="221" y="-36"/>
      <point x="170" y="-124"/>
      <point x="92" y="-149" type="curve"/>
      <point x="62" y="-108" type="line"/>
      <point x="94" y="-85"/>
      <point x="123" y="-49"/>
    </contour>
  </outline>
</glyph>
<glyph name="hyphen" format="2">
  <advance width="457"/>
  <unicode hex="002D"/>
  <outline>
    <contour>
      <point x="69" y="335" type="line"/>
      <point x="388" y="335" type="line"/>
      <point x="388" y="237" type="line"/>
      <point x="69" y="237" type="line"/>
    </contour>
  </outline>
</glyph>
<glyph name="period" format="2">
  <advance width="270"/>
  <unicode hex="002E"/>
  <outline>
    <contour>
      <point x="135" y="139" type="curve" smooth="yes"/>
      <point x="178" y="139"/>
      <point x="208" y="110"/>
      <point x="208" y="65" type="curve" smooth="yes"/>
      <point x="208" y="18"/>
      <point x="178" y="-8"/>
      <point x="135" y="-8" type="curve" smooth="yes"/>
      <point x="92" y="-8"/>
      <point x="62" y="18"/>
      <point x="62" y="65" type="curve" smooth="yes"/>
      <point x="62" y="110"/>
      <point x="92" y="139"/>
    </contour>
  </outline>
</glyph>
<glyph name="slash" format="2">
  <advance width="486"/>
  <unicode hex="002F"/>
  <outline>
    <contour>
      <point x="339" y="792" type="line"/>
      <point x="452" y="792" type="line"/>
      <point x="146" y="-169" type="line"/>
      <point x="34" y="-169" type="line"/>
    </contour>
  </outline>
</glyph>
<glyph name="zero" format="2">
  <advance width="657"/>
  <unicode hex="0030"/>
  <outline>
    <contour>
      <point x="606" y="354" type="curve" smooth="yes"/>
      <point x="606" y="138"/>
      <point x="518" y="-6"/>
      <point x="329" y="-6" type="curve" smooth="yes"/>
      <point x="141" y="-6"/>
      <point x="52" y="135"/>
      <point x="52" y="347" type="curve" smooth="yes"/>
      <point x="52" y="567"/>
      <point x="136" y="716"/>
      <point x="329" y="716" type="curve" smooth="yes"/>
      <point x="516" y="716"/>
      <point x="606" y="570"/>
    </contour>
    <contour>
      <point x="167" y="354" type="curve" smooth="yes"/>
      <point x="167" y="207"/>
      <point x="206" y="97"/>
      <point x="329" y="97" type="curve" smooth="yes"/>
      <point x="450" y="97"/>
      <point x="490" y="207"/>
      <point x="490" y="354" type="curve" smooth="yes"/>
      <point x="490" y="499"/>
      <point x="450" y="612"/>
      <point x="329" y="612" type="curve" smooth="yes"/>
      <point x="206" y="612"/>
      <point x="167" y="499"/>
    </contour>
  </outline>
</glyph>
<glyph name="one" format="2">
  <advance width="382"/>
  <unicode hex="0031"/>
  <outline>
    <contour>
      <point x="280" y="0" type="line"/>
      <point x="164" y="0" type="line"/>
      <point x="164" y="544" type="line"/>
      <point x="20" y="544" type="line"/>
      <point x="20" y="623" type="line"/>
      <point x="99" y="626"/>
      <point x="160" y="644"/>
      <point x="195" y="707" type="curve"/>
      <point x="280" y="707" type="line"/>
    </contour>
  </outline>
</glyph>
<glyph name="two" format="2">
  <advance width="551"/>
  <unicode hex="0032"/>
  <outline>
    <contour>
      <point x="220" y="264" type="line" smooth="yes"/>
      <point x="284" y="320"/>
      <point x="391" y="394"/>
      <point x="391" y="491" type="curve" smooth="yes"/>
      <point x="391" y="563"/>
      <point x="347" y="611"/>
      <point x="267" y="611" type="curve" smooth="yes"/>
      <point x="203" y="611"/>
      <point x="156" y="579"/>
      <point x="145" y="530" type="curve"/>
      <point x="31" y="530" type="line"/>
      <point x="36" y="591"/>
      <point x="68" y="639"/>
      <point x="112" y="670" type="curve" smooth="yes"/>
      <point x="156" y="701"/>
      <point x="206" y="715"/>
      <point x="274" y="715" type="curve" smooth="yes"/>
      <point x="401" y="715"/>
      <point x="506" y="646"/>
      <point x="506" y="505" type="curve" smooth="yes"/>
      <point x="506" y="394"/>
      <point x="442" y="319"/>
      <point x="370" y="258" type="curve" smooth="yes"/>
      <point x="275" y="176"/>
      <point x="225" y="138"/>
      <point x="183" y="103" type="curve"/>
      <point x="506" y="103" type="line"/>
      <point x="506" y="0" type="line"/>
      <point x="25" y="0" type="line"/>
      <point x="25" y="95" type="line"/>
    </contour>
  </outline>
</glyph>
<glyph name="three" format="2">
  <advance width="604"/>
  <unicode hex="0033"/>
  <outline>
    <contour>
      <point x="294" y="-7" type="curve" smooth="yes"/>
      <point x="164" y="-7"/>
      <point x="47" y="46"/>
      <point x="28" y="182" type="curve"/>
      <point x="145" y="182" type="line"/>
      <point x="166" y="114"/>
      <point x="236" y="97"/>
      <point x="294" y="97" type="curve" smooth="yes"/>
      <point x="355" y="97"/>
      <point x="435" y="116"/>
      <point x="435" y="208" type="curve" smooth="yes"/>
      <point x="435" y="293"/>
      <point x="361" y="310"/>
      <point x="292" y="310" type="curve" smooth="yes"/>
      <point x="222" y="310" type="line"/>
      <point x="222" y="408" type="line"/>
      <point x="263" y="408" type="line" smooth="yes"/>
      <point x="328" y="408"/>
      <point x="409" y="432"/>
      <point x="409" y="512" type="curve" smooth="yes"/>
      <point x="409" y="590"/>
      <point x="351" y="612"/>
      <point x="288" y="612" type="curve" smooth="yes"/>
      <point x="233" y="612"/>
      <point x="179" y="590"/>
      <point x="164" y="529" type="curve"/>
      <point x="50" y="529" type="line"/>
      <point x="66" y="660"/>
      <point x="170" y="716"/>
      <point x="293" y="716" type="curve" smooth="yes"/>
      <point x="413" y="716"/>
      <point x="523" y="666"/>
      <point x="523" y="530" type="curve" smooth="yes"/>
      <point x="523" y="474"/>
      <point x="500" y="415"/>
      <point x="427" y="378" type="curve"/>
      <point x="511" y="355"/>
      <point x="552" y="293"/>
      <point x="552" y="209" type="curve" smooth="yes"/>
      <point x="552" y="56"/>
      <point x="432" y="-7"/>
    </contour>
  </outline>
</glyph>
<glyph name="four" format="2">
  <advance width="630"/>
  <unicode hex="0034"/>
  <outline>
    <contour>
      <point x="517" y="707" type="line"/>
      <point x="517" y="238" type="line"/>
      <point x="598" y="238" type="line"/>
      <point x="598" y="136" type="line"/>
      <point x="517" y="136" type="line"/>
      <point x="517" y="0" type="line"/>
      <point x="402" y="0" type="line"/>
      <point x="402" y="136" type="line"/>
      <point x="37" y="136" type="line"/>
      <point x="37" y="219" type="line"/>
      <point x="368" y="707" type="line"/>
    </contour>
    <contour>
      <point x="171" y="238" type="line"/>
      <point x="402" y="238" type="line"/>
      <point x="402" y="584" type="line"/>
    </contour>
  </outline>
</glyph>
<glyph name="five" format="2">
  <advance width="614"/>
  <unicode hex="0035"/>
  <outline>
    <contour>
      <point x="73" y="311" type="line"/>
      <point x="111" y="707" type="line"/>
      <point x="537" y="707" type="line"/>
      <point x="537" y="604" type="line"/>
      <point x="208" y="604" type="line"/>
      <point x="188" y="420" type="line"/>
      <point x="227" y="445"/>
      <point x="268" y="460"/>
      <point x="331" y="460" type="curve" smooth="yes"/>
      <point x="472" y="460"/>
      <point x="565" y="375"/>
      <point x="565" y="234" type="curve" smooth="yes"/>
      <point x="565" y="82"/>
      <point x="452" y="-8"/>
      <point x="306" y="-8" type="curve" smooth="yes"/>
      <point x="183" y="-8"/>
      <point x="76" y="49"/>
      <point x="57" y="183" type="curve"/>
      <point x="172" y="183" type="line"/>
      <point x="188" y="127"/>
      <point x="248" y="97"/>
      <point x="304" y="97" type="curve" smooth="yes"/>
      <point x="384" y="97"/>
      <point x="447" y="136"/>
      <point x="447" y="228" type="curve" smooth="yes"/>
      <point x="447" y="313"/>
      <point x="392" y="360"/>
      <point x="311" y="360" type="curve" smooth="yes"/>
      <point x="260" y="360"/>
      <point x="219" y="342"/>
      <point x="186" y="311" type="curve"/>
    </contour>
  </outline>
</glyph>
<glyph name="six" format="2">
  <advance width="620"/>
  <unicode hex="0036"/>
  <outline>
    <contour>
      <point x="163" y="374" type="curve"/>
      <point x="207" y="430"/>
      <point x="271" y="456"/>
      <point x="340" y="456" type="curve" smooth="yes"/>
      <point x="480" y="456"/>
      <point x="571" y="369"/>
      <point x="571" y="229" type="curve" smooth="yes"/>
      <point x="571" y="89"/>
      <point x="465" y="-6"/>
      <point x="329" y="-6" type="curve" smooth="yes"/>
      <point x="125" y="-6"/>
      <point x="54" y="158"/>
      <point x="53" y="332" type="curve" smooth="yes"/>
      <point x="52" y="463"/>
      <point x="80" y="571"/>
      <point x="160" y="648" type="curve" smooth="yes"/>
      <point x="203" y="689"/>
      <point x="263" y="715"/>
      <point x="340" y="715" type="curve" smooth="yes"/>
      <point x="456" y="715"/>
      <point x="545" y="659"/>
      <point x="568" y="540" type="curve"/>
      <point x="452" y="540" type="line"/>
      <point x="433" y="589"/>
      <point x="387" y="612"/>
      <point x="336" y="612" type="curve" smooth="yes"/>
      <point x="293" y="612"/>
      <point x="258" y="597"/>
      <point x="231" y="570" type="curve" smooth="yes"/>
      <point x="183" y="522"/>
      <point x="163" y="443"/>
    </contour>
    <contour>
      <point x="455" y="221" type="curve" smooth="yes"/>
      <point x="455" y="301"/>
      <point x="404" y="354"/>
      <point x="324" y="354" type="curve" smooth="yes"/>
      <point x="249" y="354"/>
      <point x="189" y="301"/>
      <point x="189" y="225" type="curve" smooth="yes"/>
      <point x="189" y="156"/>
      <point x="246" y="96"/>
      <point x="323" y="96" type="curve" smooth="yes"/>
      <point x="400" y="96"/>
      <point x="455" y="146"/>
    </contour>
  </outline>
</glyph>
<glyph name="seven" format="2">
  <advance width="507"/>
  <unicode hex="0037"/>
  <outline>
    <contour>
      <point x="85" y="0" type="line"/>
      <point x="358" y="603" type="line"/>
      <point x="7" y="603" type="line"/>
      <point x="7" y="707" type="line"/>
      <point x="489" y="707" type="line"/>
      <point x="489" y="617" type="line"/>
      <point x="214" y="0" type="line"/>
    </contour>
  </outline>
</glyph>
<glyph name="eight" format="2">
  <advance width="621"/>
  <unicode hex="0038"/>
  <outline>
    <contour>
      <point x="569" y="198" type="curve" smooth="yes"/>
      <point x="569" y="43"/>
      <point x="438" y="-8"/>
      <point x="311" y="-8" type="curve" smooth="yes"/>
      <point x="180" y="-8"/>
      <point x="52" y="47"/>
      <point x="52" y="198" type="curve" smooth="yes"/>
      <point x="52" y="279"/>
      <point x="87" y="341"/>
      <point x="167" y="372" type="curve"/>
      <point x="98" y="407"/>
      <point x="76" y="472"/>
      <point x="76" y="526" type="curve" smooth="yes"/>
      <point x="76" y="662"/>
      <point x="189" y="716"/>
      <point x="312" y="716" type="curve" smooth="yes"/>
      <point x="433" y="716"/>
      <point x="546" y="662"/>
      <point x="546" y="526" type="curve" smooth="yes"/>
      <point x="546" y="472"/>
      <point x="522" y="407"/>
      <point x="454" y="374" type="curve"/>
      <point x="534" y="343"/>
      <point x="569" y="279"/>
    </contour>
    <contour>
      <point x="311" y="614" type="curve" smooth="yes"/>
      <point x="246" y="614"/>
      <point x="191" y="586"/>
      <point x="191" y="513" type="curve" smooth="yes"/>
      <point x="191" y="441"/>
      <point x="243" y="408"/>
      <point x="311" y="408" type="curve" smooth="yes"/>
      <point x="376" y="408"/>
      <point x="430" y="440"/>
      <point x="430" y="509" type="curve" smooth="yes"/>
      <point x="430" y="585"/>
      <point x="376" y="614"/>
    </contour>
    <contour>
      <point x="310" y="315" type="curve" smooth="yes"/>
      <point x="238" y="315"/>
      <point x="168" y="285"/>
      <point x="168" y="205" type="curve" smooth="yes"/>
      <point x="168" y="117"/>
      <point x="251" y="94"/>
      <point x="311" y="94" type="curve" smooth="yes"/>
      <point x="372" y="94"/>
      <point x="452" y="117"/>
      <point x="452" y="205" type="curve" smooth="yes"/>
      <point x="452" y="285"/>
      <point x="382" y="315"/>
    </contour>
  </outline>
</glyph>
<glyph name="nine" format="2">
  <advance width="619"/>
  <unicode hex="0039"/>
  <outline>
    <contour>
      <point x="458" y="338" type="curve"/>
      <point x="419" y="278"/>
      <point x="348" y="252"/>
      <point x="278" y="252" type="curve" smooth="yes"/>
      <point x="146" y="252"/>
      <point x="51" y="337"/>
      <point x="51" y="478" type="curve" smooth="yes"/>
      <point x="51" y="623"/>
      <point x="159" y="714"/>
      <point x="299" y="714" type="curve" smooth="yes"/>
      <point x="398" y="714"/>
      <point x="473" y="665"/>
      <point x="512" y="598" type="curve" smooth="yes"/>
      <point x="551" y="530"/>
      <point x="567" y="440"/>
      <point x="568" y="353" type="curve" smooth="yes"/>
      <point x="570" y="171"/>
      <point x="506" y="-7"/>
      <point x="293" y="-7" type="curve" smooth="yes"/>
      <point x="178" y="-7"/>
      <point x="75" y="48"/>
      <point x="56" y="167" type="curve"/>
      <point x="174" y="167" type="line"/>
      <point x="191" y="119"/>
      <point x="242" y="96"/>
      <point x="293" y="96" type="curve" smooth="yes"/>
      <point x="371" y="96"/>
      <point x="417" y="143"/>
      <point x="439" y="202" type="curve" smooth="yes"/>
      <point x="455" y="246"/>
      <point x="458" y="293"/>
    </contour>
    <contour>
      <point x="165" y="485" type="curve"/>
      <point x="165" y="404"/>
      <point x="216" y="354"/>
      <point x="296" y="354" type="curve" smooth="yes"/>
      <point x="370" y="354"/>
      <point x="429" y="401"/>
      <point x="430" y="474" type="curve" smooth="yes"/>
      <point x="432" y="549"/>
      <point x="380" y="611"/>
      <point x="299" y="611" type="curve" smooth="yes"/>
      <point x="222" y="611"/>
      <point x="166" y="562"/>
    </contour>
  </outline>
</glyph>
<glyph name="colon" format="2">
  <advance width="270"/>
  <unicode hex="003A"/>
  <outline>
    <contour>
      <point x="135" y="496" type="curve" smooth="yes"/>
      <point x="179" y="496"/>
      <point x="208" y="466"/>
      <point x="208" y="422" type="curve" smooth="yes"/>
      <point x="208" y="375"/>
      <point x="178" y="349"/>
      <point x="135" y="349" type="curve" smooth="yes"/>
      <point x="91" y="349"/>
      <point x="62" y="375"/>
      <point x="62" y="422" type="curve" smooth="yes"/>
      <point x="62" y="466"/>
      <point x="91" y="496"/>
    </contour>
    <contour>
      <point x="135" y="138" type="curve" smooth="yes"/>
      <point x="179" y="138"/>
      <point x="208" y="108"/>
      <point x="208" y="64" type="curve" smooth="yes"/>
      <point x="208" y="19"/>
      <point x="178" y="-9"/>
      <point x="135" y="-9" type="curve" smooth="yes"/>
      <point x="91" y="-9"/>
      <point x="62" y="19"/>
      <point x="62" y="64" type="curve" smooth="yes"/>
      <point x="62" y="108"/>
      <point x="91" y="138"/>
    </contour>
  </outline>
</glyph>
<glyph name="semicolon" format="2">
  <advance width="283"/>
  <unicode hex="003B"/>
  <outline>
    <contour>
      <point x="143" y="496" type="curve" smooth="yes"/>
      <point x="187" y="496"/>
      <point x="216" y="466"/>
      <point x="216" y="422" type="curve" smooth="yes"/>
      <point x="216" y="375"/>
      <point x="187" y="349"/>
      <point x="143" y="349" type="curve" smooth="yes"/>
      <point x="98" y="349"/>
      <point x="70" y="375"/>
      <point x="70" y="422" type="curve" smooth="yes"/>
      <point x="70" y="466"/>
      <point x="98" y="496"/>
    </contour>
    <contour>
      <point x="133" y="-7" type="curve"/>
      <point x="92" y="-4"/>
      <point x="65" y="23"/>
      <point x="65" y="64" type="curve" smooth="yes"/>
      <point x="65" y="112"/>
      <point x="97" y="136"/>
      <point x="142" y="136" type="curve" smooth="yes"/>
      <point x="201" y="136"/>
      <point x="221" y="82"/>
      <point x="221" y="35" type="curve" smooth="yes"/>
      <point x="221" y="-40"/>
      <point x="161" y="-125"/>
      <point x="92" y="-149" type="curve"/>
      <point x="62" y="-107" type="line"/>
      <point x="95" y="-84"/>
      <point x="124" y="-47"/>
    </contour>
  </outline>
</glyph>
<glyph name="less" format="2">
  <advance width="467"/>
  <unicode hex="003C"/>
  <outline>
    <contour>
      <point x="34" y="382" type="line"/>
      <point x="403" y="621" type="line"/>
      <point x="403" y="506" type="line"/>
      <point x="165" y="357" type="line"/>
      <point x="403" y="206" type="line"/>
      <point x="403" y="90" type="line"/>
      <point x="34" y="327" type="line"/>
    </contour>
  </outline>
</glyph>
<glyph name="equal" format="2">
  <advance width="554"/>
  <unicode hex="003D"/>
  <outline>
    <contour>
      <point x="64" y="534" type="line"/>
      <point x="490" y="534" type="line"/>
      <point x="490" y="436" type="line"/>
      <point x="64" y="436" type="line"/>
    </contour>
    <contour>
      <point x="64" y="278" type="line"/>
      <point x="490" y="278" type="line"/>
      <point x="490" y="180" type="line"/>
      <point x="64" y="180" type="line"/>
    </contour>
  </outline>
</glyph>
<glyph name="greater" format="2">
  <advance width="467"/>
  <unicode hex="003E"/>
  <outline>
    <contour>
      <point x="433" y="329" type="line"/>
      <point x="64" y="90" type="line"/>
      <point x="64" y="205" type="line"/>
      <point x="302" y="355" type="line"/>
      <point x="64" y="505" type="line"/>
      <point x="64" y="621" type="line"/>
      <point x="433" y="384" type="line"/>
    </contour>
  </outline>
</glyph>
<glyph name="question" format="2">
  <advance width="522"/>
  <unicode hex="003F"/>
  <outline>
    <contour>
      <point x="190" y="218" type="line"/>
      <point x="187" y="229"/>
      <point x="188" y="238"/>
      <point x="188" y="249" type="curve" smooth="yes"/>
      <point x="188" y="371"/>
      <point x="358" y="417"/>
      <point x="358" y="525" type="curve" smooth="yes"/>
      <point x="358" y="585"/>
      <point x="319" y="612"/>
      <point x="251" y="612" type="curve" smooth="yes"/>
      <point x="200" y="612"/>
      <point x="151" y="590"/>
      <point x="143" y="534" type="curve"/>
      <point x="32" y="534" type="line"/>
      <point x="37" y="638"/>
      <point x="118" y="716"/>
      <point x="258" y="716" type="curve" smooth="yes"/>
      <point x="371" y="716"/>
      <point x="472" y="665"/>
      <point x="472" y="537" type="curve" smooth="yes"/>
      <point x="472" y="477"/>
      <point x="449" y="434"/>
      <point x="410" y="391" type="curve" smooth="yes"/>
      <point x="361" y="337"/>
      <point x="298" y="298"/>
      <point x="298" y="225" type="curve" smooth="yes"/>
      <point x="298" y="218" type="line"/>
    </contour>
    <contour>
      <point x="245" y="137" type="curve" smooth="yes"/>
      <point x="290" y="137"/>
      <point x="318" y="107"/>
      <point x="318" y="63" type="curve" smooth="yes"/>
      <point x="318" y="20"/>
      <point x="290" y="-8"/>
      <point x="245" y="-8" type="curve" smooth="yes"/>
      <point x="200" y="-8"/>
      <point x="171" y="19"/>
      <point x="171" y="63" type="curve" smooth="yes"/>
      <point x="171" y="107"/>
      <point x="200" y="137"/>
    </contour>
  </outline>
</glyph>
<glyph name="at" format="2">
  <advance width="991"/>
  <unicode hex="0040"/>
  <outline>
    <contour>
      <point x="617" y="117" type="curve"/>
      <point x="581" y="65"/>
      <point x="525" y="44"/>
      <point x="468" y="44" type="curve" smooth="yes"/>
      <point x="343" y="44"/>
      <point x="284" y="142"/>
      <point x="284" y="255" type="curve" smooth="yes"/>
      <point x="284" y="386"/>
      <point x="366" y="498"/>
      <point x="501" y="498" type="curve" smooth="yes"/>
      <point x="548" y="498"/>
      <point x="605" y="480"/>
      <point x="627" y="431" type="curve"/>
      <point x="651" y="479" type="line"/>
      <point x="717" y="471" type="line"/>
      <point x="704" y="398"/>
      <point x="695" y="325"/>
      <point x="687" y="250" type="curve" smooth="yes"/>
      <point x="681" y="202"/>
      <point x="677" y="126"/>
      <point x="744" y="126" type="curve" smooth="yes"/>
      <point x="815" y="126"/>
      <point x="831" y="225"/>
      <point x="831" y="296" type="curve" smooth="yes"/>
      <point x="831" y="496"/>
      <point x="717" y="627"/>
      <point x="525" y="627" type="curve" smooth="yes"/>
      <point x="291" y="627"/>
      <point x="169" y="468"/>
      <point x="169" y="260" type="curve" smooth="yes"/>
      <point x="169" y="64"/>
      <point x="286" y="-76"/>
      <point x="492" y="-76" type="curve" smooth="yes"/>
      <point x="543" y="-76"/>
      <point x="562" y="-72"/>
      <point x="605" y="-64" type="curve"/>
      <point x="616" y="-163" type="line"/>
      <point x="571" y="-174"/>
      <point x="535" y="-177"/>
      <point x="484" y="-177" type="curve" smooth="yes"/>
      <point x="225" y="-177"/>
      <point x="65" y="-2"/>
      <point x="65" y="244" type="curve" smooth="yes"/>
      <point x="65" y="536"/>
      <point x="249" y="722"/>
      <point x="522" y="722" type="curve" smooth="yes"/>
      <point x="769" y="722"/>
      <point x="927" y="550"/>
      <point x="927" y="315" type="curve" smooth="yes"/>
      <point x="927" y="194"/>
      <point x="891" y="39"/>
      <point x="742" y="39" type="curve" smooth="yes"/>
      <point x="685" y="39"/>
      <point x="637" y="65"/>
    </contour>
    <contour>
      <point x="503" y="410" type="curve" smooth="yes"/>
      <point x="416" y="410"/>
      <point x="378" y="329"/>
      <point x="378" y="253" type="curve" smooth="yes"/>
      <point x="378" y="197"/>
      <point x="405" y="130"/>
      <point x="479" y="130" type="curve" smooth="yes"/>
      <point x="566" y="130"/>
      <point x="599" y="223"/>
      <point x="599" y="292" type="curve" smooth="yes"/>
      <point x="599" y="352"/>
      <point x="571" y="410"/>
    </contour>
  </outline>
</glyph>
<glyph name="B" format="2">
  <advance width="670"/>
  <unicode hex="0042"/>
  <outline>
    <contour>
      <point x="81" y="707" type="line"/>
      <point x="362" y="707" type="line" smooth="yes"/>
      <point x="470" y="707"/>
      <point x="591" y="677"/>
      <point x="591" y="530" type="curve" smooth="yes"/>
      <point x="591" y="462"/>
      <point x="565" y="407"/>
      <point x="501" y="376" type="curve"/>
      <point x="592" y="355"/>
      <point x="626" y="294"/>
      <point x="626" y="210" type="curve" smooth="yes"/>
      <point x="626" y="38"/>
      <point x="471" y="0"/>
      <point x="341" y="0" type="curve" smooth="yes"/>
      <point x="81" y="0" type="line"/>
    </contour>
    <contour>
      <point x="197" y="603" type="line"/>
      <point x="197" y="409" type="line"/>
      <point x="329" y="409" type="line" smooth="yes"/>
      <point x="397" y="409"/>
      <point x="479" y="421"/>
      <point x="479" y="511" type="curve" smooth="yes"/>
      <point x="479" y="595"/>
      <point x="416" y="603"/>
      <point x="349" y="603" type="curve" smooth="yes"/>
    </contour>
    <contour>
      <point x="339" y="103" type="line" smooth="yes"/>
      <point x="413" y="103"/>
      <point x="510" y="112"/>
      <point x="510" y="211" type="curve" smooth="yes"/>
      <point x="510" y="314"/>
      <point x="398" y="308"/>
      <point x="327" y="308" type="curve"/>
      <point x="197" y="308" type="line"/>
      <point x="197" y="103" type="line"/>
    </contour>
  </outline>
</glyph>
<glyph name="D" format="2">
  <advance width="726"/>
  <unicode hex="0044"/>
  <outline>
    <contour>
      <point x="82" y="707" type="line"/>
      <point x="338" y="707" type="line" smooth="yes"/>
      <point x="563" y="707"/>
      <point x="682" y="573"/>
      <point x="682" y="353" type="curve" smooth="yes"/>
      <point x="682" y="133"/>
      <point x="565" y="0"/>
      <point x="342" y="0" type="curve" smooth="yes"/>
      <point x="82" y="0" type="line"/>
    </contour>
    <contour>
      <point x="198" y="603" type="line"/>
      <point x="198" y="103" type="line"/>
      <point x="339" y="103" type="line" smooth="yes"/>
      <point x="493" y="103"/>
      <point x="563" y="202"/>
      <point x="563" y="353" type="curve" smooth="yes"/>
      <point x="563" y="510"/>
      <point x="485" y="603"/>
      <point x="338" y="603" type="curve" smooth="yes"/>
    </contour>
  </outline>
</glyph>
<glyph name="F" format="2">
  <advance width="599"/>
  <unicode hex="0046"/>
  <outline>
    <contour>
      <point x="82" y="0" type="line"/>
      <point x="82" y="707" type="line"/>
      <point x="567" y="707" type="line"/>
      <point x="567" y="603" type="line"/>
      <point x="198" y="603" type="line"/>
      <point x="198" y="379" type="line"/>
      <point x="514" y="379" type="line"/>
      <point x="514" y="276" type="line"/>
      <point x="198" y="276" type="line"/>
      <point x="198" y="0" type="line"/>
    </contour>
  </outline>
</glyph>
<glyph name="H" format="2">
  <advance width="742"/>
  <unicode hex="0048"/>
  <outline>
    <contour>
      <point x="544" y="400" type="line"/>
      <point x="544" y="707" type="line"/>
      <point x="660" y="707" type="line"/>
      <point x="660" y="0" type="line"/>
      <point x="544" y="0" type="line"/>
      <point x="544" y="296" type="line"/>
      <point x="198" y="296" type="line"/>
      <point x="198" y="0" type="line"/>
      <point x="82" y="0" type="line"/>
      <point x="82" y="707" type="line"/>
      <point x="198" y="707" type="line"/>
      <point x="198" y="400" type="line"/>
    </contour>
  </outline>
</glyph>
<glyph name="I" format="2">
  <advance width="280"/>
  <unicode hex="0049"/>
  <outline>
    <contour>
      <point x="198" y="0" type="line"/>
      <point x="82" y="0" type="line"/>
      <point x="82" y="707" type="line"/>
      <point x="198" y="707" type="line"/>
    </contour>
  </outline>
</glyph>
<glyph name="K" format="2">
  <advance width="652"/>
  <unicode hex="004B"/>
  <outline>
    <contour>
      <point x="82" y="0" type="line"/>
      <point x="82" y="707" type="line"/>
      <point x="198" y="707" type="line"/>
      <point x="198" y="398" type="line"/>
      <point x="288" y="398" type="line"/>
      <point x="506" y="707" type="line"/>
      <point x="640" y="707" type="line"/>
      <point x="388" y="364" type="line"/>
      <point x="643" y="0" type="line"/>
      <point x="507" y="0" type="line"/>
      <point x="299" y="295" type="line"/>
      <point x="198" y="295" type="line"/>
      <point x="198" y="0" type="line"/>
    </contour>
  </outline>
</glyph>
<glyph name="L" format="2">
  <advance width="600"/>
  <unicode hex="004C"/>
  <outline>
    <contour>
      <point x="82" y="707" type="line"/>
      <point x="197" y="707" type="line"/>
      <point x="197" y="103" type="line"/>
      <point x="565" y="103" type="line"/>
      <point x="565" y="0" type="line"/>
      <point x="82" y="0" type="line"/>
    </contour>
  </outline>
</glyph>
<glyph name="N" format="2">
  <advance width="756"/>
  <unicode hex="004E"/>
  <outline>
    <contour>
      <point x="82" y="0" type="line"/>
      <point x="82" y="707" type="line"/>
      <point x="207" y="707" type="line"/>
      <point x="559" y="176" type="line"/>
      <point x="559" y="707" type="line"/>
      <point x="674" y="707" type="line"/>
      <point x="674" y="0" type="line"/>
      <point x="550" y="0" type="line"/>
      <point x="196" y="529" type="line"/>
      <point x="196" y="0" type="line"/>
    </contour>
  </outline>
</glyph>
<glyph name="O" format="2">
  <advance width="769"/>
  <unicode hex="004F"/>
  <outline>
    <contour>
      <point x="384" y="-7" type="curve" smooth="yes"/>
      <point x="164" y="-7"/>
      <point x="43" y="147"/>
      <point x="43" y="354" type="curve" smooth="yes"/>
      <point x="43" y="565"/>
      <point x="167" y="716"/>
      <point x="385" y="716" type="curve" smooth="yes"/>
      <point x="604" y="716"/>
      <point x="726" y="567"/>
      <point x="726" y="355" type="curve" smooth="yes"/>
      <point x="726" y="147"/>
      <point x="604" y="-7"/>
    </contour>
    <contour>
      <point x="385" y="612" type="curve" smooth="yes"/>
      <point x="234" y="612"/>
      <point x="162" y="492"/>
      <point x="162" y="355" type="curve" smooth="yes"/>
      <point x="162" y="219"/>
      <point x="233" y="97"/>
      <point x="385" y="97" type="curve" smooth="yes"/>
      <point x="535" y="97"/>
      <point x="607" y="214"/>
      <point x="607" y="354" type="curve" smooth="yes"/>
      <point x="607" y="492"/>
      <point x="536" y="612"/>
    </contour>
  </outline>
</glyph>
<glyph name="P" format="2">
  <advance width="649"/>
  <unicode hex="0050"/>
  <outline>
    <contour>
      <point x="82" y="707" type="line"/>
      <point x="341" y="707" type="line" smooth="yes"/>
      <point x="503" y="707"/>
      <point x="605" y="638"/>
      <point x="605" y="467" type="curve" smooth="yes"/>
      <point x="605" y="309"/>
      <point x="496" y="222"/>
      <point x="337" y="222" type="curve" smooth="yes"/>
      <point x="198" y="222" type="line"/>
      <point x="198" y="0" type="line"/>
      <point x="82" y="0" type="line"/>
    </contour>
    <contour>
      <point x="331" y="324" type="line" smooth="yes"/>
      <point x="420" y="324"/>
      <point x="489" y="367"/>
      <point x="489" y="462" type="curve" smooth="yes"/>
      <point x="489" y="562"/>
      <point x="437" y="603"/>
      <point x="338" y="603" type="curve" smooth="yes"/>
      <point x="198" y="603" type="line"/>
      <point x="198" y="324" type="line"/>
    </contour>
  </outline>
</glyph>
<glyph name="Q" format="2">
  <advance width="768"/>
  <unicode hex="0051"/>
  <outline>
    <contour>
      <point x="522" y="17" type="line"/>
      <point x="481" y="1"/>
      <point x="434" y="-7"/>
      <point x="383" y="-7" type="curve" smooth="yes"/>
      <point x="163" y="-7"/>
      <point x="43" y="147"/>
      <point x="43" y="354" type="curve" smooth="yes"/>
      <point x="43" y="565"/>
      <point x="167" y="716"/>
      <point x="385" y="716" type="curve" smooth="yes"/>
      <point x="603" y="716"/>
      <point x="725" y="567"/>
      <point x="725" y="355" type="curve" smooth="yes"/>
      <point x="725" y="240"/>
      <point x="689" y="143"/>
      <point x="618" y="78" type="curve"/>
      <point x="715" y="-51" type="line"/>
      <point x="625" y="-120" type="line"/>
    </contour>
    <contour>
      <point x="384" y="612" type="curve" smooth="yes"/>
      <point x="234" y="612"/>
      <point x="161" y="492"/>
      <point x="161" y="355" type="curve" smooth="yes"/>
      <point x="161" y="219"/>
      <point x="232" y="97"/>
      <point x="384" y="97" type="curve" smooth="yes"/>
      <point x="534" y="97"/>
      <point x="606" y="214"/>
      <point x="606" y="354" type="curve" smooth="yes"/>
      <point x="606" y="492"/>
      <point x="535" y="612"/>
    </contour>
  </outline>
</glyph>
<glyph name="R" format="2">
  <advance width="668"/>
  <unicode hex="0052"/>
  <outline>
    <contour>
      <point x="198" y="259" type="line"/>
      <point x="198" y="0" type="line"/>
      <point x="82" y="0" type="line"/>
      <point x="82" y="707" type="line"/>
      <point x="357" y="707" type="line" smooth="yes"/>
      <point x="504" y="707"/>
      <point x="620" y="653"/>
      <point x="620" y="484" type="curve" smooth="yes"/>
      <point x="620" y="368"/>
      <point x="549" y="295"/>
      <point x="465" y="274" type="curve"/>
      <point x="618" y="0" type="line"/>
      <point x="489" y="0" type="line"/>
      <point x="347" y="259" type="line"/>
    </contour>
    <contour>
      <point x="341" y="360" type="line" smooth="yes"/>
      <point x="433" y="360"/>
      <point x="504" y="387"/>
      <point x="504" y="487" type="curve" smooth="yes"/>
      <point x="504" y="577"/>
      <point x="445" y="603"/>
      <point x="353" y="603" type="curve" smooth="yes"/>
      <point x="198" y="603" type="line"/>
      <point x="198" y="360" type="line"/>
    </contour>
  </outline>
</glyph>
<glyph name="T" format="2">
  <advance width="583"/>
  <unicode hex="0054"/>
  <outline>
    <contour>
      <point x="233" y="0" type="line"/>
      <point x="233" y="603" type="line"/>
      <point x="9" y="603" type="line"/>
      <point x="9" y="707" type="line"/>
      <point x="574" y="707" type="line"/>
      <point x="574" y="603" type="line"/>
      <point x="349" y="603" type="line"/>
      <point x="349" y="0" type="line"/>
    </contour>
  </outline>
</glyph>
<glyph name="U" format="2">
  <advance width="741"/>
  <unicode hex="0055"/>
  <outline>
    <contour>
      <point x="664" y="707" type="line"/>
      <point x="664" y="316" type="line" smooth="yes"/>
      <point x="664" y="127"/>
      <point x="581" y="-8"/>
      <point x="371" y="-8" type="curve" smooth="yes"/>
      <point x="161" y="-8"/>
      <point x="77" y="125"/>
      <point x="77" y="316" type="curve" smooth="yes"/>
      <point x="77" y="707" type="line"/>
      <point x="193" y="707" type="line"/>
      <point x="193" y="312" type="line" smooth="yes"/>
      <point x="193" y="196"/>
      <point x="237" y="96"/>
      <point x="372" y="96" type="curve" smooth="yes"/>
      <point x="506" y="96"/>
      <point x="548" y="197"/>
      <point x="548" y="312" type="curve" smooth="yes"/>
      <point x="548" y="707" type="line"/>
    </contour>
  </outline>
</glyph>
<glyph name="V" format="2">
  <advance width="692"/>
  <unicode hex="0056"/>
  <outline>
    <contour>
      <point x="137" y="707" type="line"/>
      <point x="348" y="124" type="line"/>
      <point x="558" y="707" type="line"/>
      <point x="683" y="707" type="line"/>
      <point x="417" y="0" type="line"/>
      <point x="276" y="0" type="line"/>
      <point x="9" y="707" type="line"/>
    </contour>
  </outline>
</glyph>
<glyph name="W" format="2">
  <advance width="968"/>
  <unicode hex="0057"/>
  <outline>
    <contour>
      <point x="573" y="707" type="line"/>
      <point x="700" y="115" type="line"/>
      <point x="834" y="707" type="line"/>
      <point x="959" y="707" type="line"/>
      <point x="781" y="0" type="line"/>
      <point x="617" y="0" type="line"/>
      <point x="488" y="590" type="line"/>
      <point x="359" y="0" type="line"/>
      <point x="193" y="0" type="line"/>
      <point x="9" y="707" type="line"/>
      <point x="141" y="707" type="line"/>
      <point x="278" y="115" type="line"/>
      <point x="407" y="707" type="line"/>
    </contour>
  </outline>
</glyph>
<glyph name="X" format="2">
  <advance width="629"/>
  <unicode hex="0058"/>
  <outline>
    <contour>
      <point x="477" y="707" type="line"/>
      <point x="613" y="707" type="line"/>
      <point x="386" y="355" type="line"/>
      <point x="620" y="0" type="line"/>
      <point x="483" y="0" type="line"/>
      <point x="314" y="263" type="line"/>
      <point x="141" y="0" type="line"/>
      <point x="9" y="0" type="line"/>
      <point x="244" y="354" type="line"/>
      <point x="16" y="707" type="line"/>
      <point x="154" y="707" type="line"/>
      <point x="316" y="444" type="line"/>
    </contour>
  </outline>
</glyph>
<glyph name="Y" format="2">
  <advance width="647"/>
  <unicode hex="0059"/>
  <outline>
    <contour>
      <point x="507" y="707" type="line"/>
      <point x="638" y="707" type="line"/>
      <point x="383" y="265" type="line"/>
      <point x="383" y="0" type="line"/>
      <point x="267" y="0" type="line"/>
      <point x="267" y="264" type="line"/>
      <point x="9" y="707" type="line"/>
      <point x="143" y="707" type="line"/>
      <point x="326" y="377" type="line"/>
    </contour>
  </outline>
</glyph>
<glyph name="Z" format="2">
  <advance width="614"/>
  <unicode hex="005A"/>
  <outline>
    <contour>
      <point x="50" y="603" type="line"/>
      <point x="50" y="707" type="line"/>
      <point x="575" y="707" type="line"/>
      <point x="575" y="616" type="line"/>
      <point x="185" y="103" type="line"/>
      <point x="568" y="103" type="line"/>
      <point x="568" y="0" type="line"/>
      <point x="39" y="0" type="line"/>
      <point x="39" y="92" type="line"/>
      <point x="427" y="603" type="line"/>
    </contour>
  </outline>
</glyph>
<glyph name="bracketleft" format="2">
  <advance width="337"/>
  <unicode hex="005B"/>
  <outline>
    <contour>
      <point x="82" y="-178" type="line"/>
      <point x="82" y="787" type="line"/>
      <point x="307" y="787" type="line"/>
      <point x="307" y="693" type="line"/>
      <point x="191" y="693" type="line"/>
      <point x="191" y="-84" type="line"/>
      <point x="307" y="-84" type="line"/>
      <point x="307" y="-178" type="line"/>
    </contour>
  </outline>
</glyph>
<glyph name="backslash" format="2">
  <advance width="486"/>
  <unicode hex="005C"/>
  <outline>
    <contour>
      <point x="339" y="-170" type="line"/>
      <point x="34" y="792" type="line"/>
      <point x="146" y="792" type="line"/>
      <point x="452" y="-170" type="line"/>
    </contour>
  </outline>
</glyph>
<glyph name="bracketright" format="2">
  <advance width="337"/>
  <unicode hex="005D"/>
  <outline>
    <contour>
      <point x="255" y="787" type="line"/>
      <point x="255" y="-178" type="line"/>
      <point x="30" y="-178" type="line"/>
      <point x="30" y="-84" type="line"/>
      <point x="146" y="-84" type="line"/>
      <point x="146" y="693" type="line"/>
      <point x="30" y="693" type="line"/>
      <point x="30" y="787" type="line"/>
    </contour>
  </outline>
</glyph>
<glyph name="asciicircum" format="2">
  <advance width="495"/>
  <unicode hex="005E"/>
  <outline>
    <contour>
      <point x="287" y="712" type="line"/>
      <point x="441" y="486" type="line"/>
      <point x="332" y="486" type="line"/>
      <point x="247" y="623" type="line"/>
      <point x="160" y="486" type="line"/>
      <point x="54" y="486" type="line"/>
      <point x="206" y="712" type="line"/>
    </contour>
  </outline>
</glyph>
<glyph name="underscore" format="2">
  <advance width="443"/>
  <unicode hex="005F"/>
  <outline>
    <contour>
      <point x="-8" y="-62" type="line"/>
      <point x="451" y="-62" type="line"/>
      <point x="451" y="-159" type="line"/>
      <point x="-8" y="-159" type="line"/>
    </contour>
  </outline>
</glyph>
<glyph name="grave" format="2">
  <advance width="362"/>
  <unicode hex="0060"/>
  <outline>
    <contour>
      <point x="262" y="606" type="line"/>
      <point x="167" y="606" type="line"/>
      <point x="50" y="769" type="line"/>
      <point x="165" y="769" type="line"/>
    </contour>
  </outline>
</glyph>
<glyph name="b" format="2">
  <advance width="623"/>
  <unicode hex="0062"/>
  <outline>
    <contour>
      <point x="62" y="0" type="line"/>
      <point x="62" y="707" type="line"/>
      <point x="176" y="707" type="line"/>
      <point x="176" y="453" type="line"/>
      <point x="215" y="506"/>
      <point x="284" y="536"/>
      <point x="349" y="536" type="curve" smooth="yes"/>
      <point x="496" y="536"/>
      <point x="581" y="428"/>
      <point x="581" y="265" type="curve" smooth="yes"/>
      <point x="581" y="113"/>
      <point x="506" y="-7"/>
      <point x="349" y="-7" type="curve" smooth="yes"/>
      <point x="274" y="-7"/>
      <point x="216" y="17"/>
      <point x="176" y="66" type="curve"/>
      <point x="174" y="0" type="line"/>
    </contour>
    <contour>
      <point x="325" y="92" type="curve" smooth="yes"/>
      <point x="424" y="92"/>
      <point x="468" y="168"/>
      <point x="468" y="263" type="curve" smooth="yes"/>
      <point x="468" y="360"/>
      <point x="424" y="434"/>
      <point x="323" y="434" type="curve" smooth="yes"/>
      <point x="222" y="434"/>
      <point x="175" y="346"/>
      <point x="175" y="262" type="curve" smooth="yes"/>
      <point x="175" y="173"/>
      <point x="220" y="92"/>
    </contour>
  </outline>
</glyph>
<glyph name="d" format="2">
  <advance width="623"/>
  <unicode hex="0064"/>
  <outline>
    <contour>
      <point x="561" y="0" type="line"/>
      <point x="454" y="0" type="line"/>
      <point x="448" y="73" type="line"/>
      <point x="409" y="17"/>
      <point x="349" y="-7"/>
      <point x="276" y="-7" type="curve" smooth="yes"/>
      <point x="115" y="-7"/>
      <point x="42" y="116"/>
      <point x="42" y="260" type="curve" smooth="yes"/>
      <point x="42" y="415"/>
      <point x="126" y="536"/>
      <point x="285" y="536" type="curve" smooth="yes"/>
      <point x="342" y="536"/>
      <point x="406" y="521"/>
      <point x="447" y="470" type="curve"/>
      <point x="447" y="707" type="line"/>
      <point x="561" y="707" type="line"/>
    </contour>
    <contour>
      <point x="298" y="433" type="curve" smooth="yes"/>
      <point x="197" y="433"/>
      <point x="155" y="359"/>
      <point x="155" y="262" type="curve" smooth="yes"/>
      <point x="155" y="167"/>
      <point x="196" y="91"/>
      <point x="300" y="91" type="curve" smooth="yes"/>
      <point x="399" y="91"/>
      <point x="447" y="175"/>
      <point x="447" y="263" type="curve" smooth="yes"/>
      <point x="447" y="357"/>
      <point x="402" y="433"/>
    </contour>
  </outline>
</glyph>
<glyph name="f" format="2">
  <advance width="375"/>
  <unicode hex="0066"/>
  <outline>
    <contour>
      <point x="111" y="0" type="line"/>
      <point x="111" y="428" type="line"/>
      <point x="27" y="428" type="line"/>
      <point x="27" y="527" type="line"/>
      <point x="111" y="527" type="line"/>
      <point x="111" y="589" type="line" smooth="yes"/>
      <point x="111" y="706"/>
      <point x="163" y="760"/>
      <point x="286" y="760" type="curve" smooth="yes"/>
      <point x="358" y="760" type="line"/>
      <point x="358" y="661" type="line"/>
      <point x="293" y="661" type="line" smooth="yes"/>
      <point x="237" y="661"/>
      <point x="223" y="631"/>
      <point x="223" y="576" type="curve" smooth="yes"/>
      <point x="223" y="527" type="line"/>
      <point x="358" y="527" type="line"/>
      <point x="358" y="428" type="line"/>
      <point x="223" y="428" type="line"/>
      <point x="223" y="0" type="line"/>
    </contour>
  </outline>
</glyph>
<glyph name="i" format="2">
  <advance width="253"/>
  <unicode hex="0069"/>
  <outline>
    <contour>
      <point x="127" y="746" type="curve" smooth="yes"/>
      <point x="168" y="746"/>
      <point x="199" y="719"/>
      <point x="199" y="675" type="curve" smooth="yes"/>
      <point x="199" y="632"/>
      <point x="168" y="605"/>
      <point x="127" y="605" type="curve" smooth="yes"/>
      <point x="83" y="605"/>
      <point x="54" y="632"/>
      <point x="54" y="675" type="curve" smooth="yes"/>
      <point x="54" y="719"/>
      <point x="83" y="746"/>
    </contour>
    <contour>
      <point x="69" y="0" type="line"/>
      <point x="69" y="527" type="line"/>
      <point x="183" y="527" type="line"/>
      <point x="183" y="0" type="line"/>
    </contour>
  </outline>
</glyph>
<glyph name="j" format="2">
  <advance width="261"/>
  <unicode hex="006A"/>
  <outline>
    <contour>
      <point x="134" y="747" type="curve" smooth="yes"/>
      <point x="177" y="747"/>
      <point x="207" y="719"/>
      <point x="207" y="675" type="curve" smooth="yes"/>
      <point x="207" y="632"/>
      <point x="177" y="604"/>
      <point x="134" y="604" type="curve" smooth="yes"/>
      <point x="91" y="604"/>
      <point x="61" y="632"/>
      <point x="61" y="675" type="curve" smooth="yes"/>
      <point x="61" y="719"/>
      <point x="91" y="747"/>
    </contour>
    <contour>
      <point x="191" y="527" type="line"/>
      <point x="191" y="-37" type="line" smooth="yes"/>
      <point x="191" y="-156"/>
      <point x="147" y="-211"/>
      <point x="24" y="-211" type="curve" smooth="yes"/>
      <point x="-36" y="-211" type="line"/>
      <point x="-36" y="-112" type="line"/>
      <point x="3" y="-112" type="line" smooth="yes"/>
      <point x="62" y="-112"/>
      <point x="77" y="-80"/>
      <point x="77" y="-24" type="curve" smooth="yes"/>
      <point x="77" y="527" type="line"/>
    </contour>
  </outline>
</glyph>
<glyph name="l" format="2">
  <advance width="238"/>
  <unicode hex="006C"/>
  <outline>
    <contour>
      <point x="62" y="0" type="line"/>
      <point x="62" y="707" type="line"/>
      <point x="176" y="707" type="line"/>
      <point x="176" y="0" type="line"/>
    </contour>
  </outline>
</glyph>
<glyph name="m" format="2">
  <advance width="850"/>
  <unicode hex="006D"/>
  <outline>
    <contour>
      <point x="171" y="527" type="line"/>
      <point x="176" y="462" type="line"/>
      <point x="213" y="511"/>
      <point x="261" y="536"/>
      <point x="320" y="536" type="curve" smooth="yes"/>
      <point x="395" y="536"/>
      <point x="438" y="503"/>
      <point x="463" y="451" type="curve"/>
      <point x="504" y="507"/>
      <point x="555" y="536"/>
      <point x="626" y="536" type="curve" smooth="yes"/>
      <point x="748" y="536"/>
      <point x="793" y="448"/>
      <point x="793" y="341" type="curve" smooth="yes"/>
      <point x="793" y="0" type="line"/>
      <point x="679" y="0" type="line"/>
      <point x="679" y="299" type="line" smooth="yes"/>
      <point x="679" y="363"/>
      <point x="668" y="434"/>
      <point x="588" y="434" type="curve" smooth="yes"/>
      <point x="502" y="434"/>
      <point x="484" y="348"/>
      <point x="484" y="278" type="curve" smooth="yes"/>
      <point x="484" y="0" type="line"/>
      <point x="371" y="0" type="line"/>
      <point x="371" y="301" type="line" smooth="yes"/>
      <point x="371" y="361"/>
      <point x="364" y="433"/>
      <point x="282" y="434" type="curve" smooth="yes"/>
      <point x="197" y="434"/>
      <point x="175" y="347"/>
      <point x="175" y="278" type="curve" smooth="yes"/>
      <point x="175" y="0" type="line"/>
      <point x="62" y="0" type="line"/>
      <point x="62" y="527" type="line"/>
    </contour>
  </outline>
</glyph>
<glyph name="o" format="2">
  <advance width="601"/>
  <unicode hex="006F"/>
  <outline>
    <contour>
      <point x="299" y="536" type="curve" smooth="yes"/>
      <point x="466" y="536"/>
      <point x="559" y="426"/>
      <point x="559" y="264" type="curve" smooth="yes"/>
      <point x="559" y="100"/>
      <point x="470" y="-7"/>
      <point x="299" y="-7" type="curve" smooth="yes"/>
      <point x="131" y="-7"/>
      <point x="42" y="101"/>
      <point x="42" y="264" type="curve" smooth="yes"/>
      <point x="42" y="426"/>
      <point x="133" y="536"/>
    </contour>
    <contour>
      <point x="299" y="92" type="curve" smooth="yes"/>
      <point x="402" y="92"/>
      <point x="445" y="168"/>
      <point x="445" y="263" type="curve" smooth="yes"/>
      <point x="445" y="360"/>
      <point x="402" y="434"/>
      <point x="299" y="434" type="curve" smooth="yes"/>
      <point x="199" y="434"/>
      <point x="154" y="360"/>
      <point x="154" y="263" type="curve" smooth="yes"/>
      <point x="154" y="168"/>
      <point x="198" y="92"/>
    </contour>
  </outline>
</glyph>
<glyph name="p" format="2">
  <advance width="623"/>
  <unicode hex="0070"/>
  <outline>
    <contour>
      <point x="62" y="-205" type="line"/>
      <point x="62" y="527" type="line"/>
      <point x="170" y="527" type="line"/>
      <point x="176" y="452" type="line"/>
      <point x="217" y="508"/>
      <point x="280" y="536"/>
      <point x="349" y="536" type="curve" smooth="yes"/>
      <point x="494" y="536"/>
      <point x="581" y="430"/>
      <point x="581" y="265" type="curve" smooth="yes"/>
      <point x="581" y="107"/>
      <point x="501" y="-7"/>
      <point x="347" y="-7" type="curve" smooth="yes"/>
      <point x="280" y="-7"/>
      <point x="219" y="13"/>
      <point x="176" y="57" type="curve"/>
      <point x="176" y="-205" type="line"/>
    </contour>
    <contour>
      <point x="325" y="92" type="curve" smooth="yes"/>
      <point x="424" y="92"/>
      <point x="468" y="168"/>
      <point x="468" y="263" type="curve" smooth="yes"/>
      <point x="468" y="360"/>
      <point x="424" y="434"/>
      <point x="323" y="434" type="curve" smooth="yes"/>
      <point x="226" y="434"/>
      <point x="175" y="354"/>
      <point x="175" y="264" type="curve" smooth="yes"/>
      <point x="175" y="169"/>
      <point x="226" y="92"/>
    </contour>
  </outline>
</glyph>
<glyph name="q" format="2">
  <advance width="623"/>
  <unicode hex="0071"/>
  <outline>
    <contour>
      <point x="561" y="-205" type="line"/>
      <point x="447" y="-205" type="line"/>
      <point x="447" y="58" type="line"/>
      <point x="408" y="13"/>
      <point x="348" y="-8"/>
      <point x="283" y="-8" type="curve" smooth="yes"/>
      <point x="196" y="-8"/>
      <point x="139" y="23"/>
      <point x="100" y="72" type="curve" smooth="yes"/>
      <point x="60" y="121"/>
      <point x="42" y="188"/>
      <point x="42" y="260" type="curve" smooth="yes"/>
      <point x="42" y="415"/>
      <point x="120" y="536"/>
      <point x="292" y="536" type="curve" smooth="yes"/>
      <point x="353" y="536"/>
      <point x="413" y="515"/>
      <point x="450" y="471" type="curve"/>
      <point x="459" y="527" type="line"/>
      <point x="561" y="527" type="line"/>
    </contour>
    <contour>
      <point x="299" y="434" type="curve" smooth="yes"/>
      <point x="197" y="434"/>
      <point x="155" y="358"/>
      <point x="155" y="262" type="curve" smooth="yes"/>
      <point x="155" y="167"/>
      <point x="198" y="91"/>
      <point x="301" y="91" type="curve" smooth="yes"/>
      <point x="400" y="91"/>
      <point x="447" y="174"/>
      <point x="447" y="262" type="curve" smooth="yes"/>
      <point x="447" y="354"/>
      <point x="404" y="434"/>
    </contour>
  </outline>
</glyph>
<glyph name="t" format="2">
  <advance width="377"/>
  <unicode hex="0074"/>
  <outline>
    <contour>
      <point x="220" y="527" type="line"/>
      <point x="353" y="527" type="line"/>
      <point x="353" y="428" type="line"/>
      <point x="220" y="428" type="line"/>
      <point x="220" y="187" type="line" smooth="yes"/>
      <point x="220" y="127"/>
      <point x="237" y="98"/>
      <point x="297" y="98" type="curve" smooth="yes"/>
      <point x="349" y="98" type="line"/>
      <point x="349" y="0" type="line"/>
      <point x="287" y="0" type="line" smooth="yes"/>
      <point x="158" y="0"/>
      <point x="107" y="50"/>
      <point x="107" y="171" type="curve" smooth="yes"/>
      <point x="107" y="428" type="line"/>
      <point x="24" y="428" type="line"/>
      <point x="24" y="527" type="line"/>
      <point x="107" y="527" type="line"/>
      <point x="107" y="676" type="line"/>
      <point x="220" y="676" type="line"/>
    </contour>
  </outline>
</glyph>
<glyph name="v" format="2">
  <advance width="547"/>
  <unicode hex="0076"/>
  <outline>
    <contour>
      <point x="2" y="527" type="line"/>
      <point x="128" y="527" type="line"/>
      <point x="274" y="109" type="line"/>
      <point x="419" y="527" type="line"/>
      <point x="545" y="527" type="line"/>
      <point x="347" y="0" type="line"/>
      <point x="200" y="0" type="line"/>
    </contour>
  </outline>
</glyph>
<glyph name="w" format="2">
  <advance width="848"/>
  <unicode hex="0077"/>
  <outline>
    <contour>
      <point x="7" y="527" type="line"/>
      <point x="133" y="527" type="line"/>
      <point x="243" y="121" type="line"/>
      <point x="362" y="527" type="line"/>
      <point x="490" y="527" type="line"/>
      <point x="609" y="121" type="line"/>
      <point x="719" y="527" type="line"/>
      <point x="841" y="527" type="line"/>
      <point x="677" y="0" type="line"/>
      <point x="543" y="0" type="line"/>
      <point x="424" y="388" type="line"/>
      <point x="308" y="0" type="line"/>
      <point x="170" y="0" type="line"/>
    </contour>
  </outline>
</glyph>
<glyph name="x" format="2">
  <advance width="527"/>
  <unicode hex="0078"/>
  <outline>
    <contour>
      <point x="387" y="0" type="line"/>
      <point x="259" y="188" type="line"/>
      <point x="135" y="0" type="line"/>
      <point x="9" y="0" type="line"/>
      <point x="190" y="268" type="line"/>
      <point x="18" y="527" type="line"/>
      <point x="150" y="527" type="line"/>
      <point x="265" y="341" type="line"/>
      <point x="377" y="527" type="line"/>
      <point x="507" y="527" type="line"/>
      <point x="333" y="265" type="line"/>
      <point x="518" y="0" type="line"/>
    </contour>
  </outline>
</glyph>
<glyph name="z" format="2">
  <advance width="517"/>
  <unicode hex="007A"/>
  <outline>
    <contour>
      <point x="474" y="440" type="line"/>
      <point x="186" y="98" type="line"/>
      <point x="474" y="98" type="line"/>
      <point x="474" y="0" type="line"/>
      <point x="42" y="0" type="line"/>
      <point x="42" y="87" type="line"/>
      <point x="328" y="428" type="line"/>
      <point x="42" y="428" type="line"/>
      <point x="42" y="527" type="line"/>
      <point x="474" y="527" type="line"/>
    </contour>
  </outline>
</glyph>
<glyph name="braceleft" format="2">
  <advance width="407"/>
  <unicode hex="007B"/>
  <outline>
    <contour>
      <point x="288" y="693" type="line" smooth="yes"/>
      <point x="236" y="693"/>
      <point x="239" y="649"/>
      <point x="239" y="609" type="curve" smooth="yes"/>
      <point x="239" y="433" type="line" smooth="yes"/>
      <point x="239" y="380"/>
      <point x="226" y="325"/>
      <point x="175" y="304" type="curve"/>
      <point x="226" y="283"/>
      <point x="239" y="228"/>
      <point x="239" y="175" type="curve" smooth="yes"/>
      <point x="239" y="-4" type="line" smooth="yes"/>
      <point x="239" y="-61"/>
      <point x="241" y="-84"/>
      <point x="288" y="-84" type="curve" smooth="yes"/>
      <point x="353" y="-84" type="line"/>
      <point x="353" y="-178" type="line"/>
      <point x="257" y="-178" type="line" smooth="yes"/>
      <point x="177" y="-178"/>
      <point x="131" y="-148"/>
      <point x="131" y="-61" type="curve" smooth="yes"/>
      <point x="131" y="147" type="line" smooth="yes"/>
      <point x="131" y="203"/>
      <point x="125" y="259"/>
      <point x="32" y="259" type="curve"/>
      <point x="32" y="350" type="line"/>
      <point x="112" y="350"/>
      <point x="131" y="401"/>
      <point x="131" y="445" type="curve" smooth="yes"/>
      <point x="131" y="649" type="line" smooth="yes"/>
      <point x="131" y="753"/>
      <point x="168" y="787"/>
      <point x="257" y="787" type="curve" smooth="yes"/>
      <point x="353" y="787" type="line"/>
      <point x="353" y="693" type="line"/>
    </contour>
  </outline>
</glyph>
<glyph name="bar" format="2">
  <advance width="271"/>
  <unicode hex="007C"/>
  <outline>
    <contour>
      <point x="82" y="-171" type="line"/>
      <point x="82" y="800" type="line"/>
      <point x="189" y="800" type="line"/>
      <point x="189" y="-171" type="line"/>
    </contour>
  </outline>
</glyph>
<glyph name="braceright" format="2">
  <advance width="407"/>
  <unicode hex="007D"/>
  <outline>
    <contour>
      <point x="119" y="-84" type="line" smooth="yes"/>
      <point x="171" y="-84"/>
      <point x="168" y="-40"/>
      <point x="168" y="0" type="curve" smooth="yes"/>
      <point x="168" y="176" type="line" smooth="yes"/>
      <point x="168" y="228"/>
      <point x="181" y="284"/>
      <point x="232" y="305" type="curve"/>
      <point x="181" y="324"/>
      <point x="168" y="383"/>
      <point x="168" y="434" type="curve" smooth="yes"/>
      <point x="168" y="613" type="line" smooth="yes"/>
      <point x="168" y="670"/>
      <point x="166" y="693"/>
      <point x="119" y="693" type="curve" smooth="yes"/>
      <point x="54" y="693" type="line"/>
      <point x="54" y="787" type="line"/>
      <point x="154" y="787" type="line" smooth="yes"/>
      <point x="234" y="787"/>
      <point x="276" y="757"/>
      <point x="276" y="670" type="curve" smooth="yes"/>
      <point x="276" y="462" type="line" smooth="yes"/>
      <point x="276" y="406"/>
      <point x="282" y="350"/>
      <point x="375" y="350" type="curve"/>
      <point x="375" y="259" type="line"/>
      <point x="294" y="259"/>
      <point x="276" y="207"/>
      <point x="276" y="165" type="curve" smooth="yes"/>
      <point x="276" y="-40" type="line" smooth="yes"/>
      <point x="276" y="-144"/>
      <point x="239" y="-178"/>
      <point x="150" y="-178" type="curve" smooth="yes"/>
      <point x="54" y="-178" type="line"/>
      <point x="54" y="-84" type="line"/>
    </contour>
  </outline>
</glyph>
<glyph name="asciitilde" format="2">
  <advance width="663"/>
  <unicode hex="007E"/>
  <outline>
    <contour>
      <point x="82" y="257" type="line"/>
      <point x="82" y="260"/>
      <point x="82" y="264"/>
      <point x="82" y="267" type="curve" smooth="yes"/>
      <point x="82" y="351"/>
      <point x="107" y="458"/>
      <point x="230" y="458" type="curve" smooth="yes"/>
      <point x="334" y="458"/>
      <point x="381" y="346"/>
      <point x="431" y="346" type="curve" smooth="yes"/>
      <point x="477" y="346"/>
      <point x="476" y="420"/>
      <point x="476" y="452" type="curve"/>
      <point x="581" y="452" type="line"/>
      <point x="581" y="356"/>
      <point x="555" y="251"/>
      <point x="431" y="251" type="curve" smooth="yes"/>
      <point x="386" y="251"/>
      <point x="343" y="279"/>
      <point x="312" y="307" type="curve" smooth="yes"/>
      <point x="281" y="335"/>
      <point x="256" y="363"/>
      <point x="231" y="363" type="curve" smooth="yes"/>
      <point x="186" y="363"/>
      <point x="188" y="286"/>
      <point x="188" y="257" type="curve"/>
    </contour>
  </outline>
</glyph>
<glyph name="exclamdown" format="2">
  <advance width="290"/>
  <unicode hex="00A1"/>
  <outline>
    <contour>
      <point x="194" y="303" type="line"/>
      <point x="207" y="-179" type="line"/>
      <point x="84" y="-179" type="line"/>
      <point x="97" y="303" type="line"/>
    </contour>
    <contour>
      <point x="145" y="391" type="curve" smooth="yes"/>
      <point x="101" y="391"/>
      <point x="72" y="421"/>
      <point x="72" y="465" type="curve" smooth="yes"/>
      <point x="72" y="508"/>
      <point x="102" y="536"/>
      <point x="145" y="536" type="curve" smooth="yes"/>
      <point x="189" y="536"/>
      <point x="218" y="508"/>
      <point x="218" y="465" type="curve" smooth="yes"/>
      <point x="218" y="421"/>
      <point x="189" y="391"/>
    </contour>
  </outline>
</glyph>
<glyph name="cent" format="2">
  <advance width="593"/>
  <unicode hex="00A2"/>
  <outline>
    <contour>
      <point x="249" y="-5" type="line"/>
      <point x="117" y="18"/>
      <point x="54" y="120"/>
      <point x="54" y="263" type="curve" smooth="yes"/>
      <point x="54" y="404"/>
      <point x="123" y="507"/>
      <point x="249" y="531" type="curve"/>
      <point x="249" y="675" type="line"/>
      <point x="358" y="675" type="line"/>
      <point x="358" y="533" type="line"/>
      <point x="453" y="520"/>
      <point x="520" y="467"/>
      <point x="537" y="363" type="curve"/>
      <point x="419" y="363" type="line"/>
      <point x="408" y="408"/>
      <point x="366" y="435"/>
      <point x="310" y="435" type="curve" smooth="yes"/>
      <point x="207" y="435"/>
      <point x="167" y="357"/>
      <point x="167" y="263" type="curve" smooth="yes"/>
      <point x="167" y="171"/>
      <point x="206" y="91"/>
      <point x="311" y="91" type="curve" smooth="yes"/>
      <point x="370" y="91"/>
      <point x="410" y="119"/>
      <point x="421" y="163" type="curve"/>
      <point x="539" y="163" type="line"/>
      <point x="520" y="58"/>
      <point x="450" y="6"/>
      <point x="358" y="-7" type="curve"/>
      <point x="358" y="-155" type="line"/>
      <point x="249" y="-155" type="line"/>
    </contour>
  </outline>
</glyph>
<glyph name="sterling" format="2">
  <advance width="605"/>
  <unicode hex="00A3"/>
  <outline>
    <contour>
      <point x="459" y="386" type="line"/>
      <point x="459" y="286" type="line"/>
      <point x="249" y="286" type="line"/>
      <point x="249" y="103" type="line"/>
      <point x="551" y="103" type="line"/>
      <point x="551" y="0" type="line"/>
      <point x="54" y="0" type="line"/>
      <point x="54" y="103" type="line"/>
      <point x="137" y="103" type="line"/>
      <point x="137" y="286" type="line"/>
      <point x="54" y="286" type="line"/>
      <point x="54" y="386" type="line"/>
      <point x="137" y="386" type="line"/>
      <point x="137" y="514" type="line" smooth="yes"/>
      <point x="137" y="645"/>
      <point x="217" y="716"/>
      <point x="348" y="716" type="curve" smooth="yes"/>
      <point x="467" y="716"/>
      <point x="538" y="661"/>
      <point x="545" y="548" type="curve"/>
      <point x="437" y="548" type="line"/>
      <point x="431" y="597"/>
      <point x="404" y="621"/>
      <point x="349" y="621" type="curve" smooth="yes"/>
      <point x="289" y="621"/>
      <point x="249" y="593"/>
      <point x="249" y="514" type="curve" smooth="yes"/>
      <point x="249" y="386" type="line"/>
    </contour>
  </outline>
</glyph>
<glyph name="yen" format="2">
  <advance width="697"/>
  <unicode hex="00A5"/>
  <outline>
    <contour>
      <point x="531" y="707" type="line"/>
      <point x="663" y="707" type="line"/>
      <point x="448" y="337" type="line"/>
      <point x="556" y="337" type="line"/>
      <point x="556" y="250" type="line"/>
      <point x="407" y="250" type="line"/>
      <point x="407" y="173" type="line"/>
      <point x="556" y="173" type="line"/>
      <point x="556" y="86" type="line"/>
      <point x="407" y="86" type="line"/>
      <point x="407" y="0" type="line"/>
      <point x="291" y="0" type="line"/>
      <point x="291" y="86" type="line"/>
      <point x="141" y="86" type="line"/>
      <point x="141" y="173" type="line"/>
      <point x="291" y="173" type="line"/>
      <point x="291" y="250" type="line"/>
      <point x="141" y="250" type="line"/>
      <point x="141" y="337" type="line"/>
      <point x="249" y="337" type="line"/>
      <point x="34" y="707" type="line"/>
      <point x="167" y="707" type="line"/>
      <point x="351" y="373" type="line"/>
    </contour>
  </outline>
</glyph>
<glyph name="section" format="2">
  <advance width="552"/>
  <unicode hex="00A7"/>
  <outline>
    <contour>
      <point x="279" y="623" type="curve" smooth="yes"/>
      <point x="243" y="623"/>
      <point x="180" y="619"/>
      <point x="180" y="564" type="curve" smooth="yes"/>
      <point x="180" y="519"/>
      <point x="240" y="510"/>
      <point x="274" y="503" type="curve" smooth="yes"/>
      <point x="319" y="493"/>
      <point x="373" y="486"/>
      <point x="408" y="474" type="curve" smooth="yes"/>
      <point x="473" y="452"/>
      <point x="497" y="408"/>
      <point x="497" y="347" type="curve" smooth="yes"/>
      <point x="497" y="308"/>
      <point x="479" y="272"/>
      <point x="451" y="247" type="curve"/>
      <point x="482" y="224"/>
      <point x="497" y="189"/>
      <point x="497" y="148" type="curve" smooth="yes"/>
      <point x="497" y="32"/>
      <point x="390" y="-7"/>
      <point x="286" y="-7" type="curve" smooth="yes"/>
      <point x="171" y="-7"/>
      <point x="62" y="29"/>
      <point x="54" y="154" type="curve"/>
      <point x="161" y="154" type="line"/>
      <point x="177" y="96"/>
      <point x="238" y="81"/>
      <point x="281" y="81" type="curve" smooth="yes"/>
      <point x="328" y="81"/>
      <point x="386" y="87"/>
      <point x="386" y="142" type="curve" smooth="yes"/>
      <point x="386" y="173"/>
      <point x="355" y="183"/>
      <point x="326" y="190" type="curve" smooth="yes"/>
      <point x="311" y="194"/>
      <point x="282" y="200"/>
      <point x="227" y="210" type="curve" smooth="yes"/>
      <point x="147" y="224"/>
      <point x="68" y="257"/>
      <point x="68" y="355" type="curve" smooth="yes"/>
      <point x="68" y="400"/>
      <point x="85" y="436"/>
      <point x="119" y="464" type="curve"/>
      <point x="91" y="488"/>
      <point x="74" y="520"/>
      <point x="74" y="561" type="curve" smooth="yes"/>
      <point x="74" y="677"/>
      <point x="183" y="714"/>
      <point x="279" y="714" type="curve" smooth="yes"/>
      <point x="383" y="714"/>
      <point x="476" y="670"/>
      <point x="484" y="563" type="curve"/>
      <point x="383" y="563" type="line"/>
      <point x="375" y="604"/>
      <point x="325" y="623"/>
    </contour>
    <contour>
      <point x="205" y="425" type="curve"/>
      <point x="188" y="412"/>
      <point x="175" y="389"/>
      <point x="175" y="366" type="curve" smooth="yes"/>
      <point x="176" y="332"/>
      <point x="203" y="314"/>
      <point x="240" y="305" type="curve" smooth="yes"/>
      <point x="276" y="296"/>
      <point x="323" y="289"/>
      <point x="360" y="282" type="curve"/>
      <point x="379" y="293"/>
      <point x="393" y="313"/>
      <point x="393" y="338" type="curve" smooth="yes"/>
      <point x="393" y="375"/>
      <point x="364" y="391"/>
      <point x="329" y="399" type="curve" smooth="yes"/>
      <point x="272" y="411"/>
      <point x="238" y="416"/>
    </contour>
  </outline>
</glyph>
<glyph name="dieresis" format="2">
  <advance width="606"/>
  <unicode hex="00A8"/>
  <outline>
    <contour>
      <point x="423" y="734" type="curve" smooth="yes"/>
      <point x="463" y="735"/>
      <point x="494" y="705"/>
      <point x="494" y="666" type="curve" smooth="yes"/>
      <point x="494" y="625"/>
      <point x="464" y="597"/>
      <point x="423" y="597" type="curve" smooth="yes"/>
      <point x="382" y="597"/>
      <point x="354" y="623"/>
      <point x="354" y="666" type="curve" smooth="yes"/>
      <point x="354" y="706"/>
      <point x="383" y="734"/>
    </contour>
    <contour>
      <point x="181" y="734" type="curve" smooth="yes"/>
      <point x="221" y="735"/>
      <point x="252" y="705"/>
      <point x="252" y="666" type="curve" smooth="yes"/>
      <point x="252" y="625"/>
      <point x="222" y="597"/>
      <point x="181" y="597" type="curve" smooth="yes"/>
      <point x="140" y="597"/>
      <point x="112" y="623"/>
      <point x="112" y="666" type="curve" smooth="yes"/>
      <point x="112" y="706"/>
      <point x="141" y="734"/>
    </contour>
  </outline>
</glyph>
<glyph name="copyright" format="2">
  <advance width="920"/>
  <unicode hex="00A9"/>
  <outline>
    <contour>
      <point x="461" y="722" type="curve" smooth="yes"/>
      <point x="701" y="722"/>
      <point x="866" y="556"/>
      <point x="866" y="308" type="curve" smooth="yes"/>
      <point x="866" y="52"/>
      <point x="705" y="-105"/>
      <point x="461" y="-105" type="curve" smooth="yes"/>
      <point x="216" y="-105"/>
      <point x="54" y="52"/>
      <point x="54" y="308" type="curve" smooth="yes"/>
      <point x="54" y="559"/>
      <point x="220" y="722"/>
    </contour>
    <contour>
      <point x="463" y="637" type="curve" smooth="yes"/>
      <point x="274" y="637"/>
      <point x="145" y="510"/>
      <point x="145" y="307" type="curve" smooth="yes"/>
      <point x="145" y="103"/>
      <point x="271" y="-21"/>
      <point x="463" y="-21" type="curve" smooth="yes"/>
      <point x="655" y="-21"/>
      <point x="778" y="103"/>
      <point x="778" y="307" type="curve" smooth="yes"/>
      <point x="778" y="510"/>
      <point x="650" y="637"/>
    </contour>
    <contour>
      <point x="470" y="96" type="curve" smooth="yes"/>
      <point x="338" y="96"/>
      <point x="272" y="183"/>
      <point x="272" y="309" type="curve" smooth="yes"/>
      <point x="272" y="432"/>
      <point x="342" y="519"/>
      <point x="469" y="519" type="curve" smooth="yes"/>
      <point x="565" y="519"/>
      <point x="630" y="477"/>
      <point x="647" y="380" type="curve"/>
      <point x="551" y="380" type="line"/>
      <point x="542" y="415"/>
      <point x="512" y="435"/>
      <point x="469" y="435" type="curve" smooth="yes"/>
      <point x="394" y="435"/>
      <point x="366" y="378"/>
      <point x="366" y="309" type="curve" smooth="yes"/>
      <point x="366" y="238"/>
      <point x="396" y="181"/>
      <point x="472" y="181" type="curve" smooth="yes"/>
      <point x="516" y="181"/>
      <point x="544" y="202"/>
      <point x="552" y="235" type="curve"/>
      <point x="649" y="235" type="line"/>
      <point x="632" y="138"/>
      <point x="565" y="96"/>
    </contour>
  </outline>
</glyph>
<glyph name="ordfeminine" format="2">
  <advance width="368"/>
  <unicode hex="00AA"/>
  <outline>
    <contour>
      <point x="246" y="455" type="line"/>
      <point x="221" y="430"/>
      <point x="190" y="417"/>
      <point x="152" y="417" type="curve" smooth="yes"/>
      <point x="93" y="417"/>
      <point x="45" y="450"/>
      <point x="45" y="513" type="curve" smooth="yes"/>
      <point x="45" y="589"/>
      <point x="108" y="607"/>
      <point x="172" y="607" type="curve" smooth="yes"/>
      <point x="242" y="607" type="line"/>
      <point x="242" y="643"/>
      <point x="224" y="665"/>
      <point x="181" y="666" type="curve" smooth="yes"/>
      <point x="158" y="666"/>
      <point x="134" y="659"/>
      <point x="130" y="636" type="curve"/>
      <point x="54" y="636" type="line"/>
      <point x="65" y="704"/>
      <point x="120" y="733"/>
      <point x="184" y="733" type="curve" smooth="yes"/>
      <point x="277" y="733"/>
      <point x="313" y="674"/>
      <point x="313" y="587" type="curve" smooth="yes"/>
      <point x="313" y="421" type="line"/>
      <point x="250" y="421" type="line"/>
    </contour>
    <contour>
      <point x="242" y="550" type="curve"/>
      <point x="186" y="550" type="line" smooth="yes"/>
      <point x="160" y="550"/>
      <point x="118" y="553"/>
      <point x="118" y="517" type="curve" smooth="yes"/>
      <point x="118" y="489"/>
      <point x="142" y="481"/>
      <point x="166" y="481" type="curve" smooth="yes"/>
      <point x="213" y="482"/>
      <point x="241" y="502"/>
    </contour>
  </outline>
</glyph>
<glyph name="guillemotleft" format="2">
  <advance width="525"/>
  <unicode hex="00AB"/>
  <outline>
    <contour>
      <point x="272" y="86" type="line"/>
      <point x="154" y="86" type="line"/>
      <point x="34" y="267" type="line"/>
      <point x="154" y="449" type="line"/>
      <point x="272" y="449" type="line"/>
      <point x="147" y="267" type="line"/>
    </contour>
    <contour>
      <point x="471" y="86" type="line"/>
      <point x="353" y="86" type="line"/>
      <point x="233" y="267" type="line"/>
      <point x="353" y="449" type="line"/>
      <point x="471" y="449" type="line"/>
      <point x="348" y="267" type="line"/>
    </contour>
  </outline>
</glyph>
<glyph name="uni00AD" format="2">
  <advance width="455"/>
  <unicode hex="00AD"/>
  <outline>
    <contour>
      <point x="69" y="335" type="line"/>
      <point x="386" y="335" type="line"/>
      <point x="386" y="237" type="line"/>
      <point x="69" y="237" type="line"/>
    </contour>
  </outline>
</glyph>
<glyph name="registered" format="2">
  <advance width="476"/>
  <unicode hex="00AE"/>
  <outline>
    <contour>
      <point x="239" y="738" type="curve" smooth="yes"/>
      <point x="355" y="738"/>
      <point x="429" y="666"/>
      <point x="429" y="545" type="curve" smooth="yes"/>
      <point x="429" y="424"/>
      <point x="355" y="356"/>
      <point x="239" y="356" type="curve" smooth="yes"/>
      <point x="122" y="356"/>
      <point x="47" y="424"/>
      <point x="47" y="545" type="curve" smooth="yes"/>
      <point x="47" y="666"/>
      <point x="123" y="738"/>
    </contour>
    <contour>
      <point x="239" y="691" type="curve" smooth="yes"/>
      <point x="152" y="691"/>
      <point x="98" y="636"/>
      <point x="98" y="545" type="curve" smooth="yes"/>
      <point x="98" y="454"/>
      <point x="152" y="405"/>
      <point x="239" y="405" type="curve" smooth="yes"/>
      <point x="324" y="405"/>
      <point x="378" y="454"/>
      <point x="378" y="545" type="curve" smooth="yes"/>
      <point x="378" y="636"/>
      <point x="326" y="691"/>
    </contour>
    <contour>
      <point x="333" y="452" type="line"/>
      <point x="279" y="452" type="line"/>
      <point x="232" y="521" type="line"/>
      <point x="210" y="521" type="line"/>
      <point x="210" y="452" type="line"/>
      <point x="165" y="452" type="line"/>
      <point x="165" y="649" type="line"/>
      <point x="246" y="649" type="line" smooth="yes"/>
      <point x="289" y="649"/>
      <point x="320" y="635"/>
      <point x="320" y="586" type="curve" smooth="yes"/>
      <point x="320" y="557"/>
      <point x="308" y="537"/>
      <point x="283" y="527" type="curve"/>
    </contour>
    <contour>
      <point x="246" y="561" type="line" smooth="yes"/>
      <point x="261" y="561"/>
      <point x="275" y="569"/>
      <point x="275" y="585" type="curve" smooth="yes"/>
      <point x="275" y="602"/>
      <point x="263" y="607"/>
      <point x="248" y="607" type="curve" smooth="yes"/>
      <point x="210" y="607" type="line"/>
      <point x="210" y="561" type="line"/>
    </contour>
  </outline>
</glyph>
<glyph name="macron" format="2">
  <advance width="572"/>
  <unicode hex="00AF"/>
  <outline>
    <contour>
      <point x="455" y="722" type="line"/>
      <point x="455" y="629" type="line"/>
      <point x="117" y="629" type="line"/>
      <point x="117" y="722" type="line"/>
    </contour>
  </outline>
</glyph>
<glyph name="degree" format="2">
  <advance width="389"/>
  <unicode hex="00B0"/>
  <outline>
    <contour>
      <point x="195" y="787" type="curve" smooth="yes"/>
      <point x="275" y="787"/>
      <point x="335" y="733"/>
      <point x="335" y="643" type="curve" smooth="yes"/>
      <point x="335" y="552"/>
      <point x="275" y="504"/>
      <point x="194" y="504" type="curve" smooth="yes"/>
      <point x="111" y="504"/>
      <point x="54" y="552"/>
      <point x="54" y="643" type="curve" smooth="yes"/>
      <point x="54" y="732"/>
      <point x="115" y="787"/>
    </contour>
    <contour>
      <point x="195" y="574" type="curve" smooth="yes"/>
      <point x="234" y="574"/>
      <point x="261" y="599"/>
      <point x="261" y="644" type="curve" smooth="yes"/>
      <point x="261" y="691"/>
      <point x="234" y="716"/>
      <point x="195" y="716" type="curve" smooth="yes"/>
      <point x="156" y="716"/>
      <point x="127" y="691"/>
      <point x="127" y="644" type="curve" smooth="yes"/>
      <point x="127" y="599"/>
      <point x="155" y="574"/>
    </contour>
  </outline>
</glyph>
<glyph name="plusminus" format="2">
  <advance width="564"/>
  <unicode hex="00B1"/>
  <outline>
    <contour>
      <point x="69" y="486" type="line"/>
      <point x="233" y="486" type="line"/>
      <point x="233" y="653" type="line"/>
      <point x="330" y="653" type="line"/>
      <point x="330" y="486" type="line"/>
      <point x="495" y="486" type="line"/>
      <point x="495" y="388" type="line"/>
      <point x="330" y="388" type="line"/>
      <point x="330" y="264" type="line"/>
      <point x="233" y="264" type="line"/>
      <point x="233" y="388" type="line"/>
      <point x="69" y="388" type="line"/>
    </contour>
    <contour>
      <point x="69" y="223" type="line"/>
      <point x="495" y="223" type="line"/>
      <point x="495" y="125" type="line"/>
      <point x="69" y="125" type="line"/>
    </contour>
  </outline>
</glyph>
<glyph name="twosuperior" format="2">
  <advance width="363"/>
  <unicode hex="00B2"/>
  <outline>
    <contour>
      <point x="183" y="484" type="curve"/>
      <point x="309" y="484" type="line"/>
      <point x="309" y="403" type="line"/>
      <point x="53" y="403" type="line"/>
      <point x="53" y="475" type="line"/>
      <point x="86" y="502"/>
      <point x="119" y="528"/>
      <point x="151" y="557" type="curve" smooth="yes"/>
      <point x="177" y="581"/>
      <point x="225" y="615"/>
      <point x="225" y="654" type="curve" smooth="yes"/>
      <point x="225" y="681"/>
      <point x="207" y="694"/>
      <point x="182" y="694" type="curve" smooth="yes"/>
      <point x="154" y="694"/>
      <point x="137" y="684"/>
      <point x="132" y="655" type="curve"/>
      <point x="50" y="655" type="line"/>
      <point x="53" y="735"/>
      <point x="110" y="776"/>
      <point x="186" y="776" type="curve" smooth="yes"/>
      <point x="257" y="776"/>
      <point x="313" y="735"/>
      <point x="313" y="659" type="curve" smooth="yes"/>
      <point x="313" y="611"/>
      <point x="287" y="575"/>
      <point x="254" y="543" type="curve" smooth="yes"/>
      <point x="231" y="522"/>
      <point x="207" y="503"/>
    </contour>
  </outline>
</glyph>
<glyph name="threesuperior" format="2">
  <advance width="391"/>
  <unicode hex="00B3"/>
  <outline>
    <contour>
      <point x="289" y="603" type="curve"/>
      <point x="324" y="588"/>
      <point x="340" y="555"/>
      <point x="340" y="516" type="curve" smooth="yes"/>
      <point x="339" y="433"/>
      <point x="275" y="400"/>
      <point x="200" y="400" type="curve" smooth="yes"/>
      <point x="120" y="400"/>
      <point x="55" y="437"/>
      <point x="50" y="523" type="curve"/>
      <point x="137" y="523" type="line"/>
      <point x="144" y="491"/>
      <point x="169" y="481"/>
      <point x="198" y="481" type="curve" smooth="yes"/>
      <point x="225" y="481"/>
      <point x="248" y="489"/>
      <point x="248" y="520" type="curve" smooth="yes"/>
      <point x="248" y="545"/>
      <point x="230" y="553"/>
      <point x="207" y="553" type="curve" smooth="yes"/>
      <point x="162" y="553" type="line"/>
      <point x="162" y="627" type="line"/>
      <point x="193" y="627" type="line" smooth="yes"/>
      <point x="217" y="627"/>
      <point x="236" y="637"/>
      <point x="236" y="664" type="curve"/>
      <point x="235" y="687"/>
      <point x="215" y="695"/>
      <point x="195" y="695" type="curve" smooth="yes"/>
      <point x="170" y="695"/>
      <point x="151" y="685"/>
      <point x="146" y="658" type="curve"/>
      <point x="60" y="658" type="line"/>
      <point x="67" y="738"/>
      <point x="123" y="776"/>
      <point x="199" y="776" type="curve" smooth="yes"/>
      <point x="263" y="776"/>
      <point x="327" y="748"/>
      <point x="327" y="675" type="curve" smooth="yes"/>
      <point x="327" y="646"/>
      <point x="312" y="619"/>
    </contour>
  </outline>
</glyph>
<glyph name="acute" format="2">
  <advance width="362"/>
  <unicode hex="00B4"/>
  <outline>
    <contour>
      <point x="197" y="769" type="line"/>
      <point x="312" y="769" type="line"/>
      <point x="195" y="606" type="line"/>
      <point x="100" y="606" type="line"/>
    </contour>
  </outline>
</glyph>
<glyph name="paragraph" format="2">
  <advance width="687"/>
  <unicode hex="00B6"/>
  <outline>
    <contour>
      <point x="657" y="606" type="line"/>
      <point x="566" y="606" type="line"/>
      <point x="566" y="0" type="line"/>
      <point x="455" y="0" type="line"/>
      <point x="455" y="606" type="line"/>
      <point x="366" y="606" type="line"/>
      <point x="366" y="0" type="line"/>
      <point x="255" y="0" type="line"/>
      <point x="255" y="314" type="line"/>
      <point x="245" y="314" type="line"/>
      <point x="112" y="319"/>
      <point x="30" y="385"/>
      <point x="30" y="518" type="curve" smooth="yes"/>
      <point x="30" y="634"/>
      <point x="123" y="707"/>
      <point x="232" y="707" type="curve" smooth="yes"/>
      <point x="657" y="707" type="line"/>
    </contour>
  </outline>
</glyph>
<glyph name="periodcentered" format="2">
  <advance width="264"/>
  <unicode hex="00B7"/>
  <outline>
    <contour>
      <point x="131" y="430" type="curve" smooth="yes"/>
      <point x="171" y="430"/>
      <point x="202" y="402"/>
      <point x="202" y="361" type="curve" smooth="yes"/>
      <point x="202" y="321"/>
      <point x="172" y="292"/>
      <point x="131" y="292" type="curve" smooth="yes"/>
      <point x="90" y="292"/>
      <point x="62" y="320"/>
      <point x="62" y="361" type="curve" smooth="yes"/>
      <point x="62" y="402"/>
      <point x="91" y="430"/>
    </contour>
  </outline>
</glyph>
<glyph name="cedilla" format="2">
  <advance width="605"/>
  <unicode hex="00B8"/>
  <outline>
    <contour>
      <point x="321" y="16" type="line"/>
      <point x="304" y="-50" type="line"/>
      <point x="313" y="-49"/>
      <point x="317" y="-49"/>
      <point x="324" y="-49" type="curve" smooth="yes"/>
      <point x="375" y="-49"/>
      <point x="409" y="-77"/>
      <point x="409" y="-133" type="curve" smooth="yes"/>
      <point x="409" y="-222"/>
      <point x="333" y="-255"/>
      <point x="261" y="-255" type="curve" smooth="yes"/>
      <point x="246" y="-255"/>
      <point x="230" y="-254"/>
      <point x="212" y="-252" type="curve"/>
      <point x="213" y="-185" type="line"/>
      <point x="224" y="-186"/>
      <point x="234" y="-187"/>
      <point x="245" y="-187" type="curve" smooth="yes"/>
      <point x="293" y="-187"/>
      <point x="323" y="-174"/>
      <point x="323" y="-143" type="curve" smooth="yes"/>
      <point x="323" y="-118"/>
      <point x="304" y="-108"/>
      <point x="268" y="-108" type="curve" smooth="yes"/>
      <point x="249" y="-108"/>
      <point x="229" y="-109"/>
      <point x="214" y="-112" type="curve"/>
      <point x="247" y="16" type="line"/>
    </contour>
  </outline>
</glyph>
<glyph name="ordmasculine" format="2">
  <advance width="385"/>
  <unicode hex="00BA"/>
  <outline>
    <contour>
      <point x="193" y="731" type="curve" smooth="yes"/>
      <point x="289" y="731"/>
      <point x="330" y="660"/>
      <point x="330" y="572" type="curve" smooth="yes"/>
      <point x="330" y="484"/>
      <point x="288" y="415"/>
      <point x="192" y="415" type="curve" smooth="yes"/>
      <point x="96" y="415"/>
      <point x="55" y="484"/>
      <point x="55" y="572" type="curve" smooth="yes"/>
      <point x="55" y="660"/>
      <point x="96" y="731"/>
    </contour>
    <contour>
      <point x="193" y="663" type="curve" smooth="yes"/>
      <point x="140" y="663"/>
      <point x="128" y="616"/>
      <point x="128" y="573" type="curve" smooth="yes"/>
      <point x="128" y="529"/>
      <point x="139" y="482"/>
      <point x="192" y="482" type="curve" smooth="yes"/>
      <point x="245" y="482"/>
      <point x="256" y="529"/>
      <point x="256" y="573" type="curve" smooth="yes"/>
      <point x="256" y="616"/>
      <point x="245" y="663"/>
    </contour>
  </outline>
</glyph>
<glyph name="guillemotright" format="2">
  <advance width="525"/>
  <unicode hex="00BB"/>
  <outline>
    <contour>
      <point x="54" y="449" type="line"/>
      <point x="171" y="449" type="line"/>
      <point x="291" y="267" type="line"/>
      <point x="171" y="86" type="line"/>
      <point x="54" y="86" type="line"/>
      <point x="176" y="267" type="line"/>
    </contour>
    <contour>
      <point x="252" y="449" type="line"/>
      <point x="370" y="449" type="line"/>
      <point x="491" y="267" type="line"/>
      <point x="370" y="86" type="line"/>
      <point x="252" y="86" type="line"/>
      <point x="377" y="267" type="line"/>
    </contour>
  </outline>
</glyph>
<glyph name="questiondown" format="2">
  <advance width="522"/>
  <unicode hex="00BF"/>
  <outline>
    <contour>
      <point x="332" y="309" type="line"/>
      <point x="335" y="286"/>
      <point x="334" y="286"/>
      <point x="334" y="278" type="curve" smooth="yes"/>
      <point x="334" y="220"/>
      <point x="293" y="173"/>
      <point x="250" y="135" type="curve" smooth="yes"/>
      <point x="205" y="95"/>
      <point x="164" y="53"/>
      <point x="164" y="2" type="curve" smooth="yes"/>
      <point x="164" y="-58"/>
      <point x="203" y="-85"/>
      <point x="271" y="-85" type="curve" smooth="yes"/>
      <point x="322" y="-85"/>
      <point x="371" y="-63"/>
      <point x="379" y="-7" type="curve"/>
      <point x="490" y="-7" type="line"/>
      <point x="485" y="-111"/>
      <point x="404" y="-189"/>
      <point x="264" y="-189" type="curve" smooth="yes"/>
      <point x="152" y="-189"/>
      <point x="50" y="-138"/>
      <point x="50" y="-10" type="curve" smooth="yes"/>
      <point x="50" y="50"/>
      <point x="73" y="93"/>
      <point x="112" y="136" type="curve" smooth="yes"/>
      <point x="161" y="190"/>
      <point x="224" y="229"/>
      <point x="224" y="302" type="curve" smooth="yes"/>
      <point x="224" y="309" type="line"/>
    </contour>
    <contour>
      <point x="277" y="391" type="curve" smooth="yes"/>
      <point x="232" y="391"/>
      <point x="204" y="421"/>
      <point x="204" y="465" type="curve" smooth="yes"/>
      <point x="204" y="508"/>
      <point x="232" y="536"/>
      <point x="277" y="536" type="curve" smooth="yes"/>
      <point x="322" y="536"/>
      <point x="351" y="509"/>
      <point x="351" y="465" type="curve" smooth="yes"/>
      <point x="351" y="421"/>
      <point x="322" y="391"/>
    </contour>
  </outline>
</glyph>
<glyph name="Agrave" format="2">
  <advance width="689"/>
  <unicode hex="00C0"/>
  <outline>
    <contour>
      <point x="557" y="0" type="line"/>
      <point x="505" y="143" type="line"/>
      <point x="184" y="143" type="line"/>
      <point x="131" y="0" type="line"/>
      <point x="5" y="0" type="line"/>
      <point x="273" y="707" type="line"/>
      <point x="417" y="707" type="line"/>
      <point x="684" y="0" type="line"/>
    </contour>
    <contour>
      <point x="469" y="247" type="line"/>
      <point x="345" y="593" type="line"/>
      <point x="220" y="247" type="line"/>
    </contour>
    <contour>
      <point x="420" y="786" type="line"/>
      <point x="325" y="786" type="line"/>
      <point x="208" y="949" type="line"/>
      <point x="323" y="949" type="line"/>
    </contour>
  </outline>
</glyph>
<glyph name="Aacute" format="2">
  <advance width="689"/>
  <unicode hex="00C1"/>
  <outline>
    <contour>
      <point x="557" y="0" type="line"/>
      <point x="505" y="143" type="line"/>
      <point x="184" y="143" type="line"/>
      <point x="131" y="0" type="line"/>
      <point x="5" y="0" type="line"/>
      <point x="273" y="707" type="line"/>
      <point x="417" y="707" type="line"/>
      <point x="684" y="0" type="line"/>
    </contour>
    <contour>
      <point x="469" y="247" type="line"/>
      <point x="345" y="593" type="line"/>
      <point x="220" y="247" type="line"/>
    </contour>
    <contour>
      <point x="375" y="949" type="line"/>
      <point x="490" y="949" type="line"/>
      <point x="373" y="786" type="line"/>
      <point x="278" y="786" type="line"/>
    </contour>
  </outline>
</glyph>
<glyph name="Acircumflex" format="2">
  <advance width="689"/>
  <unicode hex="00C2"/>
  <outline>
    <contour>
      <point x="557" y="0" type="line"/>
      <point x="505" y="143" type="line"/>
      <point x="184" y="143" type="line"/>
      <point x="131" y="0" type="line"/>
      <point x="5" y="0" type="line"/>
      <point x="273" y="707" type="line"/>
      <point x="417" y="707" type="line"/>
      <point x="684" y="0" type="line"/>
    </contour>
    <contour>
      <point x="469" y="247" type="line"/>
      <point x="345" y="593" type="line"/>
      <point x="220" y="247" type="line"/>
    </contour>
    <contour>
      <point x="530" y="779" type="line"/>
      <point x="424" y="779" type="line"/>
      <point x="350" y="872" type="line"/>
      <point x="277" y="779" type="line"/>
      <point x="172" y="779" type="line"/>
      <point x="313" y="949" type="line"/>
      <point x="387" y="949" type="line"/>
    </contour>
  </outline>
</glyph>
<glyph name="Atilde" format="2">
  <advance width="689"/>
  <unicode hex="00C3"/>
  <outline>
    <contour>
      <point x="557" y="0" type="line"/>
      <point x="505" y="143" type="line"/>
      <point x="184" y="143" type="line"/>
      <point x="131" y="0" type="line"/>
      <point x="5" y="0" type="line"/>
      <point x="273" y="707" type="line"/>
      <point x="417" y="707" type="line"/>
      <point x="684" y="0" type="line"/>
    </contour>
    <contour>
      <point x="469" y="247" type="line"/>
      <point x="345" y="593" type="line"/>
      <point x="220" y="247" type="line"/>
    </contour>
    <contour>
      <point x="178" y="790" type="line"/>
      <point x="178" y="805"/>
      <point x="176" y="807"/>
      <point x="180" y="835" type="curve" smooth="yes"/>
      <point x="187" y="894"/>
      <point x="221" y="935"/>
      <point x="286" y="935" type="curve" smooth="yes"/>
      <point x="352" y="935"/>
      <point x="387" y="864"/>
      <point x="419" y="864" type="curve" smooth="yes"/>
      <point x="452" y="864"/>
      <point x="449" y="907"/>
      <point x="449" y="929" type="curve"/>
      <point x="530" y="929" type="line"/>
      <point x="531" y="916"/>
      <point x="530" y="905"/>
      <point x="529" y="894" type="curve" smooth="yes"/>
      <point x="524" y="830"/>
      <point x="490" y="784"/>
      <point x="425" y="785" type="curve" smooth="yes"/>
      <point x="390" y="785"/>
      <point x="365" y="803"/>
      <point x="343" y="822" type="curve" smooth="yes"/>
      <point x="321" y="841"/>
      <point x="304" y="856"/>
      <point x="288" y="856" type="curve" smooth="yes"/>
      <point x="258" y="856"/>
      <point x="258" y="812"/>
      <point x="258" y="790" type="curve"/>
    </contour>
  </outline>
</glyph>
<glyph name="Adieresis" format="2">
  <advance width="689"/>
  <unicode hex="00C4"/>
  <outline>
    <contour>
      <point x="557" y="0" type="line"/>
      <point x="505" y="143" type="line"/>
      <point x="184" y="143" type="line"/>
      <point x="131" y="0" type="line"/>
      <point x="5" y="0" type="line"/>
      <point x="273" y="707" type="line"/>
      <point x="417" y="707" type="line"/>
      <point x="684" y="0" type="line"/>
    </contour>
    <contour>
      <point x="469" y="247" type="line"/>
      <point x="345" y="593" type="line"/>
      <point x="220" y="247" type="line"/>
    </contour>
    <contour>
      <point x="470" y="914" type="curve" smooth="yes"/>
      <point x="510" y="915"/>
      <point x="541" y="885"/>
      <point x="541" y="846" type="curve" smooth="yes"/>
      <point x="541" y="805"/>
      <point x="511" y="777"/>
      <point x="470" y="777" type="curve" smooth="yes"/>
      <point x="429" y="777"/>
      <point x="401" y="803"/>
      <point x="401" y="846" type="curve" smooth="yes"/>
      <point x="401" y="886"/>
      <point x="430" y="914"/>
    </contour>
    <contour>
      <point x="228" y="914" type="curve" smooth="yes"/>
      <point x="268" y="915"/>
      <point x="299" y="885"/>
      <point x="299" y="846" type="curve" smooth="yes"/>
      <point x="299" y="805"/>
      <point x="269" y="777"/>
      <point x="228" y="777" type="curve" smooth="yes"/>
      <point x="187" y="777"/>
      <point x="159" y="803"/>
      <point x="159" y="846" type="curve" smooth="yes"/>
      <point x="159" y="886"/>
      <point x="188" y="914"/>
    </contour>
  </outline>
</glyph>
<glyph name="Aring" format="2">
  <advance width="689"/>
  <unicode hex="00C5"/>
  <outline>
    <contour>
      <point x="557" y="0" type="line"/>
      <point x="505" y="143" type="line"/>
      <point x="184" y="143" type="line"/>
      <point x="131" y="0" type="line"/>
      <point x="5" y="0" type="line"/>
      <point x="273" y="707" type="line"/>
      <point x="417" y="707" type="line"/>
      <point x="684" y="0" type="line"/>
    </contour>
    <contour>
      <point x="469" y="247" type="line"/>
      <point x="345" y="593" type="line"/>
      <point x="220" y="247" type="line"/>
    </contour>
    <contour>
      <point x="345" y="966" type="curve" smooth="yes"/>
      <point x="409" y="966"/>
      <point x="452" y="923"/>
      <point x="452" y="859" type="curve" smooth="yes"/>
      <point x="452" y="795"/>
      <point x="408" y="757"/>
      <point x="345" y="757" type="curve" smooth="yes"/>
      <point x="281" y="757"/>
      <point x="238" y="795"/>
      <point x="238" y="859" type="curve" smooth="yes"/>
      <point x="238" y="923"/>
      <point x="282" y="966"/>
    </contour>
    <contour>
      <point x="345" y="904" type="curve" smooth="yes"/>
      <point x="318" y="904"/>
      <point x="303" y="886"/>
      <point x="303" y="861" type="curve" smooth="yes"/>
      <point x="303" y="834"/>
      <point x="318" y="818"/>
      <point x="345" y="818" type="curve" smooth="yes"/>
      <point x="370" y="818"/>
      <point x="387" y="834"/>
      <point x="387" y="861" type="curve" smooth="yes"/>
      <point x="387" y="886"/>
      <point x="370" y="904"/>
    </contour>
  </outline>
</glyph>
<glyph name="AE" format="2">
  <advance width="930"/>
  <unicode hex="00C6"/>
  <outline>
    <contour>
      <point x="131" y="0" type="line"/>
      <point x="5" y="0" type="line"/>
      <point x="349" y="707" type="line"/>
      <point x="887" y="707" type="line"/>
      <point x="887" y="603" type="line"/>
      <point x="544" y="603" type="line"/>
      <point x="544" y="402" type="line"/>
      <point x="844" y="402" type="line"/>
      <point x="844" y="297" type="line"/>
      <point x="544" y="297" type="line"/>
      <point x="544" y="103" type="line"/>
      <point x="887" y="103" type="line"/>
      <point x="887" y="0" type="line"/>
      <point x="428" y="0" type="line"/>
      <point x="428" y="143" type="line"/>
      <point x="199" y="143" type="line"/>
    </contour>
    <contour>
      <point x="428" y="603" type="line"/>
      <point x="420" y="603" type="line"/>
      <point x="249" y="247" type="line"/>
      <point x="428" y="247" type="line"/>
    </contour>
  </outline>
</glyph>
<glyph name="Ccedilla" format="2">
  <advance width="713"/>
  <unicode hex="00C7"/>
  <outline>
    <contour>
      <point x="376" y="612" type="curve" smooth="yes"/>
      <point x="224" y="612"/>
      <point x="162" y="490"/>
      <point x="162" y="356" type="curve" smooth="yes"/>
      <point x="162" y="217"/>
      <point x="228" y="97"/>
      <point x="378" y="97" type="curve" smooth="yes"/>
      <point x="470" y="97"/>
      <point x="536" y="137"/>
      <point x="552" y="208" type="curve"/>
      <point x="670" y="208" type="line"/>
      <point x="648" y="79"/>
      <point x="543" y="3"/>
      <point x="404" y="-5" type="curve"/>
      <point x="393" y="-50" type="line"/>
      <point x="406" y="-49"/>
      <point x="409" y="-49"/>
      <point x="413" y="-49" type="curve" smooth="yes"/>
      <point x="464" y="-49"/>
      <point x="499" y="-77"/>
      <point x="499" y="-133" type="curve" smooth="yes"/>
      <point x="499" y="-221"/>
      <point x="426" y="-255"/>
      <point x="350" y="-255" type="curve" smooth="yes"/>
      <point x="336" y="-255"/>
      <point x="320" y="-254"/>
      <point x="302" y="-252" type="curve"/>
      <point x="303" y="-187" type="line"/>
      <point x="314" y="-188"/>
      <point x="323" y="-188"/>
      <point x="332" y="-188" type="curve" smooth="yes"/>
      <point x="383" y="-188"/>
      <point x="413" y="-176"/>
      <point x="413" y="-143" type="curve" smooth="yes"/>
      <point x="413" y="-115"/>
      <point x="385" y="-107"/>
      <point x="353" y="-107" type="curve" smooth="yes"/>
      <point x="332" y="-107"/>
      <point x="315" y="-109"/>
      <point x="304" y="-112" type="curve"/>
      <point x="332" y="-4" type="line"/>
      <point x="140" y="15"/>
      <point x="43" y="159"/>
      <point x="43" y="354" type="curve" smooth="yes"/>
      <point x="43" y="560"/>
      <point x="158" y="716"/>
      <point x="378" y="716" type="curve" smooth="yes"/>
      <point x="534" y="716"/>
      <point x="642" y="642"/>
      <point x="663" y="499" type="curve"/>
      <point x="549" y="499" type="line"/>
      <point x="532" y="568"/>
      <point x="469" y="612"/>
    </contour>
  </outline>
</glyph>
<glyph name="Egrave" format="2">
  <advance width="616"/>
  <unicode hex="00C8"/>
  <outline>
    <contour>
      <point x="82" y="707" type="line"/>
      <point x="573" y="707" type="line"/>
      <point x="573" y="603" type="line"/>
      <point x="198" y="603" type="line"/>
      <point x="198" y="402" type="line"/>
      <point x="530" y="402" type="line"/>
      <point x="530" y="297" type="line"/>
      <point x="198" y="297" type="line"/>
      <point x="198" y="103" type="line"/>
      <point x="573" y="103" type="line"/>
      <point x="573" y="0" type="line"/>
      <point x="82" y="0" type="line"/>
    </contour>
    <contour>
      <point x="404" y="786" type="line"/>
      <point x="309" y="786" type="line"/>
      <point x="192" y="949" type="line"/>
      <point x="307" y="949" type="line"/>
    </contour>
  </outline>
</glyph>
<glyph name="Eacute" format="2">
  <advance width="616"/>
  <unicode hex="00C9"/>
  <outline>
    <contour>
      <point x="82" y="707" type="line"/>
      <point x="573" y="707" type="line"/>
      <point x="573" y="603" type="line"/>
      <point x="198" y="603" type="line"/>
      <point x="198" y="402" type="line"/>
      <point x="530" y="402" type="line"/>
      <point x="530" y="297" type="line"/>
      <point x="198" y="297" type="line"/>
      <point x="198" y="103" type="line"/>
      <point x="573" y="103" type="line"/>
      <point x="573" y="0" type="line"/>
      <point x="82" y="0" type="line"/>
    </contour>
    <contour>
      <point x="359" y="949" type="line"/>
      <point x="474" y="949" type="line"/>
      <point x="357" y="786" type="line"/>
      <point x="262" y="786" type="line"/>
    </contour>
  </outline>
</glyph>
<glyph name="Ecircumflex" format="2">
  <advance width="616"/>
  <unicode hex="00CA"/>
  <outline>
    <contour>
      <point x="82" y="707" type="line"/>
      <point x="573" y="707" type="line"/>
      <point x="573" y="603" type="line"/>
      <point x="198" y="603" type="line"/>
      <point x="198" y="402" type="line"/>
      <point x="530" y="402" type="line"/>
      <point x="530" y="297" type="line"/>
      <point x="198" y="297" type="line"/>
      <point x="198" y="103" type="line"/>
      <point x="573" y="103" type="line"/>
      <point x="573" y="0" type="line"/>
      <point x="82" y="0" type="line"/>
    </contour>
    <contour>
      <point x="507" y="779" type="line"/>
      <point x="401" y="779" type="line"/>
      <point x="327" y="872" type="line"/>
      <point x="254" y="779" type="line"/>
      <point x="149" y="779" type="line"/>
      <point x="290" y="949" type="line"/>
      <point x="364" y="949" type="line"/>
    </contour>
  </outline>
</glyph>
<glyph name="Edieresis" format="2">
  <advance width="616"/>
  <unicode hex="00CB"/>
  <outline>
    <contour>
      <point x="82" y="707" type="line"/>
      <point x="573" y="707" type="line"/>
      <point x="573" y="603" type="line"/>
      <point x="198" y="603" type="line"/>
      <point x="198" y="402" type="line"/>
      <point x="530" y="402" type="line"/>
      <point x="530" y="297" type="line"/>
      <point x="198" y="297" type="line"/>
      <point x="198" y="103" type="line"/>
      <point x="573" y="103" type="line"/>
      <point x="573" y="0" type="line"/>
      <point x="82" y="0" type="line"/>
    </contour>
    <contour>
      <point x="452" y="914" type="curve" smooth="yes"/>
      <point x="492" y="915"/>
      <point x="523" y="885"/>
      <point x="523" y="846" type="curve" smooth="yes"/>
      <point x="523" y="805"/>
      <point x="493" y="777"/>
      <point x="452" y="777" type="curve" smooth="yes"/>
      <point x="411" y="777"/>
      <point x="383" y="803"/>
      <point x="383" y="846" type="curve" smooth="yes"/>
      <point x="383" y="886"/>
      <point x="412" y="914"/>
    </contour>
    <contour>
      <point x="210" y="914" type="curve" smooth="yes"/>
      <point x="250" y="915"/>
      <point x="281" y="885"/>
      <point x="281" y="846" type="curve" smooth="yes"/>
      <point x="281" y="805"/>
      <point x="251" y="777"/>
      <point x="210" y="777" type="curve" smooth="yes"/>
      <point x="169" y="777"/>
      <point x="141" y="803"/>
      <point x="141" y="846" type="curve" smooth="yes"/>
      <point x="141" y="886"/>
      <point x="170" y="914"/>
    </contour>
  </outline>
</glyph>
<glyph name="Igrave" format="2">
  <advance width="280"/>
  <unicode hex="00CC"/>
  <outline>
    <contour>
      <point x="198" y="0" type="line"/>
      <point x="82" y="0" type="line"/>
      <point x="82" y="707" type="line"/>
      <point x="198" y="707" type="line"/>
    </contour>
    <contour>
      <point x="206" y="786" type="line"/>
      <point x="111" y="786" type="line"/>
      <point x="-6" y="949" type="line"/>
      <point x="109" y="949" type="line"/>
    </contour>
  </outline>
</glyph>
<glyph name="Iacute" format="2">
  <advance width="280"/>
  <unicode hex="00CD"/>
  <outline>
    <contour>
      <point x="198" y="0" type="line"/>
      <point x="82" y="0" type="line"/>
      <point x="82" y="707" type="line"/>
      <point x="198" y="707" type="line"/>
    </contour>
    <contour>
      <point x="173" y="949" type="line"/>
      <point x="288" y="949" type="line"/>
      <point x="171" y="786" type="line"/>
      <point x="76" y="786" type="line"/>
    </contour>
  </outline>
</glyph>
<glyph name="Icircumflex" format="2">
  <advance width="280"/>
  <unicode hex="00CE"/>
  <outline>
    <contour>
      <point x="198" y="0" type="line"/>
      <point x="82" y="0" type="line"/>
      <point x="82" y="707" type="line"/>
      <point x="198" y="707" type="line"/>
    </contour>
    <contour>
      <point x="319" y="779" type="line"/>
      <point x="213" y="779" type="line"/>
      <point x="139" y="872" type="line"/>
      <point x="66" y="779" type="line"/>
      <point x="-39" y="779" type="line"/>
      <point x="102" y="949" type="line"/>
      <point x="176" y="949" type="line"/>
    </contour>
  </outline>
</glyph>
<glyph name="Idieresis" format="2">
  <advance width="280"/>
  <unicode hex="00CF"/>
  <outline>
    <contour>
      <point x="198" y="0" type="line"/>
      <point x="82" y="0" type="line"/>
      <point x="82" y="707" type="line"/>
      <point x="198" y="707" type="line"/>
    </contour>
    <contour>
      <point x="250" y="914" type="curve" smooth="yes"/>
      <point x="290" y="915"/>
      <point x="321" y="885"/>
      <point x="321" y="846" type="curve" smooth="yes"/>
      <point x="321" y="805"/>
      <point x="291" y="777"/>
      <point x="250" y="777" type="curve" smooth="yes"/>
      <point x="209" y="777"/>
      <point x="181" y="803"/>
      <point x="181" y="846" type="curve" smooth="yes"/>
      <point x="181" y="886"/>
      <point x="210" y="914"/>
    </contour>
    <contour>
      <point x="28" y="914" type="curve" smooth="yes"/>
      <point x="68" y="915"/>
      <point x="99" y="885"/>
      <point x="99" y="846" type="curve" smooth="yes"/>
      <point x="99" y="805"/>
      <point x="69" y="777"/>
      <point x="28" y="777" type="curve" smooth="yes"/>
      <point x="-13" y="777"/>
      <point x="-41" y="803"/>
      <point x="-41" y="846" type="curve" smooth="yes"/>
      <point x="-41" y="886"/>
      <point x="-12" y="914"/>
    </contour>
  </outline>
</glyph>
<glyph name="Ntilde" format="2">
  <advance width="756"/>
  <unicode hex="00D1"/>
  <outline>
    <contour>
      <point x="82" y="0" type="line"/>
      <point x="82" y="707" type="line"/>
      <point x="207" y="707" type="line"/>
      <point x="559" y="176" type="line"/>
      <point x="559" y="707" type="line"/>
      <point x="674" y="707" type="line"/>
      <point x="674" y="0" type="line"/>
      <point x="550" y="0" type="line"/>
      <point x="196" y="529" type="line"/>
      <point x="196" y="0" type="line"/>
    </contour>
    <contour>
      <point x="211" y="790" type="line"/>
      <point x="211" y="805"/>
      <point x="209" y="807"/>
      <point x="213" y="835" type="curve" smooth="yes"/>
      <point x="220" y="894"/>
      <point x="254" y="935"/>
      <point x="319" y="935" type="curve" smooth="yes"/>
      <point x="385" y="935"/>
      <point x="420" y="864"/>
      <point x="452" y="864" type="curve" smooth="yes"/>
      <point x="485" y="864"/>
      <point x="482" y="907"/>
      <point x="482" y="929" type="curve"/>
      <point x="563" y="929" type="line"/>
      <point x="564" y="916"/>
      <point x="563" y="905"/>
      <point x="562" y="894" type="curve" smooth="yes"/>
      <point x="557" y="830"/>
      <point x="523" y="784"/>
      <point x="458" y="785" type="curve" smooth="yes"/>
      <point x="423" y="785"/>
      <point x="398" y="803"/>
      <point x="376" y="822" type="curve" smooth="yes"/>
      <point x="354" y="841"/>
      <point x="337" y="856"/>
      <point x="321" y="856" type="curve" smooth="yes"/>
      <point x="291" y="856"/>
      <point x="291" y="812"/>
      <point x="291" y="790" type="curve"/>
    </contour>
  </outline>
</glyph>
<glyph name="Ocircumflex" format="2">
  <advance width="769"/>
  <unicode hex="00D4"/>
  <outline>
    <contour>
      <point x="384" y="-7" type="curve" smooth="yes"/>
      <point x="164" y="-7"/>
      <point x="43" y="147"/>
      <point x="43" y="354" type="curve" smooth="yes"/>
      <point x="43" y="565"/>
      <point x="167" y="716"/>
      <point x="385" y="716" type="curve" smooth="yes"/>
      <point x="604" y="716"/>
      <point x="726" y="567"/>
      <point x="726" y="355" type="curve" smooth="yes"/>
      <point x="726" y="147"/>
      <point x="604" y="-7"/>
    </contour>
    <contour>
      <point x="385" y="612" type="curve" smooth="yes"/>
      <point x="234" y="612"/>
      <point x="162" y="492"/>
      <point x="162" y="355" type="curve" smooth="yes"/>
      <point x="162" y="219"/>
      <point x="233" y="97"/>
      <point x="385" y="97" type="curve" smooth="yes"/>
      <point x="535" y="97"/>
      <point x="607" y="214"/>
      <point x="607" y="354" type="curve" smooth="yes"/>
      <point x="607" y="492"/>
      <point x="536" y="612"/>
    </contour>
    <contour>
      <point x="570" y="779" type="line"/>
      <point x="464" y="779" type="line"/>
      <point x="390" y="872" type="line"/>
      <point x="317" y="779" type="line"/>
      <point x="212" y="779" type="line"/>
      <point x="353" y="949" type="line"/>
      <point x="427" y="949" type="line"/>
    </contour>
  </outline>
</glyph>
<glyph name="Otilde" format="2">
  <advance width="769"/>
  <unicode hex="00D5"/>
  <outline>
    <contour>
      <point x="384" y="-7" type="curve" smooth="yes"/>
      <point x="164" y="-7"/>
      <point x="43" y="147"/>
      <point x="43" y="354" type="curve" smooth="yes"/>
      <point x="43" y="565"/>
      <point x="167" y="716"/>
      <point x="385" y="716" type="curve" smooth="yes"/>
      <point x="604" y="716"/>
      <point x="726" y="567"/>
      <point x="726" y="355" type="curve" smooth="yes"/>
      <point x="726" y="147"/>
      <point x="604" y="-7"/>
    </contour>
    <contour>
      <point x="385" y="612" type="curve" smooth="yes"/>
      <point x="234" y="612"/>
      <point x="162" y="492"/>
      <point x="162" y="355" type="curve" smooth="yes"/>
      <point x="162" y="219"/>
      <point x="233" y="97"/>
      <point x="385" y="97" type="curve" smooth="yes"/>
      <point x="535" y="97"/>
      <point x="607" y="214"/>
      <point x="607" y="354" type="curve" smooth="yes"/>
      <point x="607" y="492"/>
      <point x="536" y="612"/>
    </contour>
    <contour>
      <point x="211" y="790" type="line"/>
      <point x="211" y="805"/>
      <point x="209" y="807"/>
      <point x="213" y="835" type="curve" smooth="yes"/>
      <point x="220" y="894"/>
      <point x="254" y="935"/>
      <point x="319" y="935" type="curve" smooth="yes"/>
      <point x="385" y="935"/>
      <point x="420" y="864"/>
      <point x="452" y="864" type="curve" smooth="yes"/>
      <point x="485" y="864"/>
      <point x="482" y="907"/>
      <point x="482" y="929" type="curve"/>
      <point x="563" y="929" type="line"/>
      <point x="564" y="916"/>
      <point x="563" y="905"/>
      <point x="562" y="894" type="curve" smooth="yes"/>
      <point x="557" y="830"/>
      <point x="523" y="784"/>
      <point x="458" y="785" type="curve" smooth="yes"/>
      <point x="423" y="785"/>
      <point x="398" y="803"/>
      <point x="376" y="822" type="curve" smooth="yes"/>
      <point x="354" y="841"/>
      <point x="337" y="856"/>
      <point x="321" y="856" type="curve" smooth="yes"/>
      <point x="291" y="856"/>
      <point x="291" y="812"/>
      <point x="291" y="790" type="curve"/>
    </contour>
  </outline>
</glyph>
<glyph name="Odieresis" format="2">
  <advance width="769"/>
  <unicode hex="00D6"/>
  <outline>
    <contour>
      <point x="384" y="-7" type="curve" smooth="yes"/>
      <point x="164" y="-7"/>
      <point x="43" y="147"/>
      <point x="43" y="354" type="curve" smooth="yes"/>
      <point x="43" y="565"/>
      <point x="167" y="716"/>
      <point x="385" y="716" type="curve" smooth="yes"/>
      <point x="604" y="716"/>
      <point x="726" y="567"/>
      <point x="726" y="355" type="curve" smooth="yes"/>
      <point x="726" y="147"/>
      <point x="604" y="-7"/>
    </contour>
    <contour>
      <point x="385" y="612" type="curve" smooth="yes"/>
      <point x="234" y="612"/>
      <point x="162" y="492"/>
      <point x="162" y="355" type="curve" smooth="yes"/>
      <point x="162" y="219"/>
      <point x="233" y="97"/>
      <point x="385" y="97" type="curve" smooth="yes"/>
      <point x="535" y="97"/>
      <point x="607" y="214"/>
      <point x="607" y="354" type="curve" smooth="yes"/>
      <point x="607" y="492"/>
      <point x="536" y="612"/>
    </contour>
    <contour>
      <point x="510" y="914" type="curve" smooth="yes"/>
      <point x="550" y="915"/>
      <point x="581" y="885"/>
      <point x="581" y="846" type="curve" smooth="yes"/>
      <point x="581" y="805"/>
      <point x="551" y="777"/>
      <point x="510" y="777" type="curve" smooth="yes"/>
      <point x="469" y="777"/>
      <point x="441" y="803"/>
      <point x="441" y="846" type="curve" smooth="yes"/>
      <point x="441" y="886"/>
      <point x="470" y="914"/>
    </contour>
    <contour>
      <point x="268" y="914" type="curve" smooth="yes"/>
      <point x="308" y="915"/>
      <point x="339" y="885"/>
      <point x="339" y="846" type="curve" smooth="yes"/>
      <point x="339" y="805"/>
      <point x="309" y="777"/>
      <point x="268" y="777" type="curve" smooth="yes"/>
      <point x="227" y="777"/>
      <point x="199" y="803"/>
      <point x="199" y="846" type="curve" smooth="yes"/>
      <point x="199" y="886"/>
      <point x="228" y="914"/>
    </contour>
  </outline>
</glyph>
<glyph name="multiply" format="2">
  <advance width="526"/>
  <unicode hex="00D7"/>
  <outline>
    <contour>
      <point x="263" y="292" type="line"/>
      <point x="116" y="143" type="line"/>
      <point x="50" y="210" type="line"/>
      <point x="196" y="357" type="line"/>
      <point x="50" y="504" type="line"/>
      <point x="116" y="571" type="line"/>
      <point x="263" y="423" type="line"/>
      <point x="409" y="570" type="line"/>
      <point x="476" y="504" type="line"/>
      <point x="329" y="357" type="line"/>
      <point x="476" y="211" type="line"/>
      <point x="409" y="143" type="line"/>
    </contour>
  </outline>
</glyph>
<glyph name="Oslash" format="2">
  <advance width="769"/>
  <unicode hex="00D8"/>
  <outline>
    <contour>
      <point x="255" y="-111" type="line"/>
      <point x="148" y="-111" type="line"/>
      <point x="205" y="36" type="line"/>
      <point x="89" y="101"/>
      <point x="43" y="226"/>
      <point x="43" y="354" type="curve" smooth="yes"/>
      <point x="43" y="565"/>
      <point x="167" y="716"/>
      <point x="385" y="716" type="curve" smooth="yes"/>
      <point x="414" y="716"/>
      <point x="442" y="713"/>
      <point x="471" y="708" type="curve"/>
      <point x="514" y="817" type="line"/>
      <point x="621" y="817" type="line"/>
      <point x="564" y="673" type="line"/>
      <point x="680" y="608"/>
      <point x="726" y="483"/>
      <point x="726" y="355" type="curve" smooth="yes"/>
      <point x="726" y="144"/>
      <point x="601" y="-7"/>
      <point x="384" y="-7" type="curve" smooth="yes"/>
      <point x="353" y="-7"/>
      <point x="326" y="-4"/>
      <point x="299" y="1" type="curve"/>
    </contour>
    <contour>
      <point x="247" y="143" type="curve"/>
      <point x="431" y="608" type="line"/>
      <point x="416" y="611"/>
      <point x="401" y="612"/>
      <point x="385" y="612" type="curve" smooth="yes"/>
      <point x="235" y="612"/>
      <point x="162" y="493"/>
      <point x="162" y="355" type="curve" smooth="yes"/>
      <point x="162" y="278"/>
      <point x="186" y="194"/>
    </contour>
    <contour>
      <point x="522" y="566" type="curve"/>
      <point x="338" y="101" type="line"/>
      <point x="351" y="98"/>
      <point x="367" y="97"/>
      <point x="385" y="97" type="curve" smooth="yes"/>
      <point x="536" y="97"/>
      <point x="607" y="215"/>
      <point x="607" y="354" type="curve" smooth="yes"/>
      <point x="607" y="432"/>
      <point x="584" y="515"/>
    </contour>
  </outline>
</glyph>
<glyph name="Ugrave" format="2">
  <advance width="741"/>
  <unicode hex="00D9"/>
  <outline>
    <contour>
      <point x="664" y="707" type="line"/>
      <point x="664" y="316" type="line" smooth="yes"/>
      <point x="664" y="127"/>
      <point x="581" y="-8"/>
      <point x="371" y="-8" type="curve" smooth="yes"/>
      <point x="161" y="-8"/>
      <point x="77" y="125"/>
      <point x="77" y="316" type="curve" smooth="yes"/>
      <point x="77" y="707" type="line"/>
      <point x="193" y="707" type="line"/>
      <point x="193" y="312" type="line" smooth="yes"/>
      <point x="193" y="196"/>
      <point x="237" y="96"/>
      <point x="372" y="96" type="curve" smooth="yes"/>
      <point x="506" y="96"/>
      <point x="548" y="197"/>
      <point x="548" y="312" type="curve" smooth="yes"/>
      <point x="548" y="707" type="line"/>
    </contour>
    <contour>
      <point x="439" y="786" type="line"/>
      <point x="344" y="786" type="line"/>
      <point x="227" y="949" type="line"/>
      <point x="342" y="949" type="line"/>
    </contour>
  </outline>
</glyph>
<glyph name="Ucircumflex" format="2">
  <advance width="741"/>
  <unicode hex="00DB"/>
  <outline>
    <contour>
      <point x="664" y="707" type="line"/>
      <point x="664" y="316" type="line" smooth="yes"/>
      <point x="664" y="127"/>
      <point x="581" y="-8"/>
      <point x="371" y="-8" type="curve" smooth="yes"/>
      <point x="161" y="-8"/>
      <point x="77" y="125"/>
      <point x="77" y="316" type="curve" smooth="yes"/>
      <point x="77" y="707" type="line"/>
      <point x="193" y="707" type="line"/>
      <point x="193" y="312" type="line" smooth="yes"/>
      <point x="193" y="196"/>
      <point x="237" y="96"/>
      <point x="372" y="96" type="curve" smooth="yes"/>
      <point x="506" y="96"/>
      <point x="548" y="197"/>
      <point x="548" y="312" type="curve" smooth="yes"/>
      <point x="548" y="707" type="line"/>
    </contour>
    <contour>
      <point x="551" y="779" type="line"/>
      <point x="445" y="779" type="line"/>
      <point x="371" y="872" type="line"/>
      <point x="298" y="779" type="line"/>
      <point x="193" y="779" type="line"/>
      <point x="334" y="949" type="line"/>
      <point x="408" y="949" type="line"/>
    </contour>
  </outline>
</glyph>
<glyph name="Udieresis" format="2">
  <advance width="741"/>
  <unicode hex="00DC"/>
  <outline>
    <contour>
      <point x="664" y="707" type="line"/>
      <point x="664" y="316" type="line" smooth="yes"/>
      <point x="664" y="127"/>
      <point x="581" y="-8"/>
      <point x="371" y="-8" type="curve" smooth="yes"/>
      <point x="161" y="-8"/>
      <point x="77" y="125"/>
      <point x="77" y="316" type="curve" smooth="yes"/>
      <point x="77" y="707" type="line"/>
      <point x="193" y="707" type="line"/>
      <point x="193" y="312" type="line" smooth="yes"/>
      <point x="193" y="196"/>
      <point x="237" y="96"/>
      <point x="372" y="96" type="curve" smooth="yes"/>
      <point x="506" y="96"/>
      <point x="548" y="197"/>
      <point x="548" y="312" type="curve" smooth="yes"/>
      <point x="548" y="707" type="line"/>
    </contour>
    <contour>
      <point x="491" y="914" type="curve" smooth="yes"/>
      <point x="531" y="915"/>
      <point x="562" y="885"/>
      <point x="562" y="846" type="curve" smooth="yes"/>
      <point x="562" y="805"/>
      <point x="532" y="777"/>
      <point x="491" y="777" type="curve" smooth="yes"/>
      <point x="450" y="777"/>
      <point x="422" y="803"/>
      <point x="422" y="846" type="curve" smooth="yes"/>
      <point x="422" y="886"/>
      <point x="451" y="914"/>
    </contour>
    <contour>
      <point x="249" y="914" type="curve" smooth="yes"/>
      <point x="289" y="915"/>
      <point x="320" y="885"/>
      <point x="320" y="846" type="curve" smooth="yes"/>
      <point x="320" y="805"/>
      <point x="290" y="777"/>
      <point x="249" y="777" type="curve" smooth="yes"/>
      <point x="208" y="777"/>
      <point x="180" y="803"/>
      <point x="180" y="846" type="curve" smooth="yes"/>
      <point x="180" y="886"/>
      <point x="209" y="914"/>
    </contour>
  </outline>
</glyph>
<glyph name="Yacute" format="2">
  <advance width="647"/>
  <unicode hex="00DD"/>
  <outline>
    <contour>
      <point x="507" y="707" type="line"/>
      <point x="638" y="707" type="line"/>
      <point x="383" y="265" type="line"/>
      <point x="383" y="0" type="line"/>
      <point x="267" y="0" type="line"/>
      <point x="267" y="264" type="line"/>
      <point x="9" y="707" type="line"/>
      <point x="143" y="707" type="line"/>
      <point x="326" y="377" type="line"/>
    </contour>
    <contour>
      <point x="364" y="949" type="line"/>
      <point x="479" y="949" type="line"/>
      <point x="362" y="786" type="line"/>
      <point x="267" y="786" type="line"/>
    </contour>
  </outline>
</glyph>
<glyph name="Thorn" format="2">
  <advance width="649"/>
  <unicode hex="00DE"/>
  <outline>
    <contour>
      <point x="82" y="707" type="line"/>
      <point x="198" y="707" type="line"/>
      <point x="198" y="596" type="line"/>
      <point x="341" y="596" type="line" smooth="yes"/>
      <point x="502" y="596"/>
      <point x="605" y="525"/>
      <point x="605" y="356" type="curve" smooth="yes"/>
      <point x="605" y="193"/>
      <point x="492" y="111"/>
      <point x="337" y="111" type="curve" smooth="yes"/>
      <point x="198" y="111" type="line"/>
      <point x="198" y="0" type="line"/>
      <point x="82" y="0" type="line"/>
    </contour>
    <contour>
      <point x="198" y="492" type="line"/>
      <point x="198" y="213" type="line"/>
      <point x="331" y="213" type="line" smooth="yes"/>
      <point x="420" y="213"/>
      <point x="489" y="258"/>
      <point x="489" y="351" type="curve" smooth="yes"/>
      <point x="489" y="452"/>
      <point x="435" y="492"/>
      <point x="338" y="492" type="curve" smooth="yes"/>
    </contour>
  </outline>
</glyph>
<glyph name="germandbls" format="2">
  <advance width="640"/>
  <unicode hex="00DF"/>
  <outline>
    <contour>
      <point x="62" y="556" type="line" smooth="yes"/>
      <point x="62" y="688"/>
      <point x="153" y="753"/>
      <point x="281" y="753" type="curve" smooth="yes"/>
      <point x="377" y="753"/>
      <point x="484" y="703"/>
      <point x="484" y="595" type="curve" smooth="yes"/>
      <point x="484" y="543"/>
      <point x="461" y="508"/>
      <point x="428" y="469" type="curve" smooth="yes"/>
      <point x="400" y="437"/>
      <point x="373" y="410"/>
      <point x="373" y="381" type="curve" smooth="yes"/>
      <point x="373" y="353"/>
      <point x="393" y="339"/>
      <point x="417" y="330" type="curve" smooth="yes"/>
      <point x="505" y="296" type="line" smooth="yes"/>
      <point x="569" y="271"/>
      <point x="605" y="231"/>
      <point x="604" y="159" type="curve"/>
      <point x="604" y="45"/>
      <point x="520" y="-7"/>
      <point x="413" y="-7" type="curve" smooth="yes"/>
      <point x="310" y="-7"/>
      <point x="233" y="45"/>
      <point x="222" y="152" type="curve"/>
      <point x="333" y="152" type="line"/>
      <point x="341" y="105"/>
      <point x="374" y="87"/>
      <point x="413" y="87" type="curve"/>
      <point x="460" y="86"/>
      <point x="490" y="109"/>
      <point x="490" y="156" type="curve" smooth="yes"/>
      <point x="490" y="193"/>
      <point x="463" y="211"/>
      <point x="420" y="227" type="curve" smooth="yes"/>
      <point x="358" y="250" type="line" smooth="yes"/>
      <point x="302" y="271"/>
      <point x="263" y="304"/>
      <point x="263" y="369" type="curve" smooth="yes"/>
      <point x="263" y="401"/>
      <point x="275" y="427"/>
      <point x="294" y="452" type="curve" smooth="yes"/>
      <point x="323" y="492"/>
      <point x="366" y="529"/>
      <point x="366" y="580" type="curve" smooth="yes"/>
      <point x="366" y="628"/>
      <point x="320" y="652"/>
      <point x="276" y="652" type="curve" smooth="yes"/>
      <point x="216" y="652"/>
      <point x="176" y="614"/>
      <point x="176" y="554" type="curve" smooth="yes"/>
      <point x="176" y="0" type="line"/>
      <point x="62" y="0" type="line"/>
    </contour>
  </outline>
</glyph>
<glyph name="agrave" format="2">
  <advance width="566"/>
  <unicode hex="00E0"/>
  <outline>
    <contour>
      <point x="402" y="65" type="line"/>
      <point x="367" y="16"/>
      <point x="308" y="-7"/>
      <point x="237" y="-7" type="curve" smooth="yes"/>
      <point x="128" y="-7"/>
      <point x="44" y="48"/>
      <point x="44" y="154" type="curve" smooth="yes"/>
      <point x="44" y="268"/>
      <point x="142" y="315"/>
      <point x="261" y="315" type="curve" smooth="yes"/>
      <point x="396" y="315" type="line"/>
      <point x="396" y="392"/>
      <point x="366" y="437"/>
      <point x="279" y="438" type="curve"/>
      <point x="228" y="438"/>
      <point x="189" y="422"/>
      <point x="177" y="382" type="curve"/>
      <point x="60" y="382" type="line"/>
      <point x="76" y="494"/>
      <point x="182" y="536"/>
      <point x="283" y="536" type="curve" smooth="yes"/>
      <point x="348" y="536"/>
      <point x="406" y="520"/>
      <point x="447" y="479" type="curve" smooth="yes"/>
      <point x="494" y="431"/>
      <point x="506" y="363"/>
      <point x="506" y="284" type="curve" smooth="yes"/>
      <point x="506" y="0" type="line"/>
      <point x="407" y="0" type="line"/>
    </contour>
    <contour>
      <point x="396" y="234" type="curve"/>
      <point x="286" y="234" type="line" smooth="yes"/>
      <point x="230" y="234"/>
      <point x="158" y="225"/>
      <point x="158" y="161" type="curve" smooth="yes"/>
      <point x="158" y="110"/>
      <point x="200" y="84"/>
      <point x="253" y="84" type="curve" smooth="yes"/>
      <point x="337" y="84"/>
      <point x="396" y="127"/>
    </contour>
    <contour>
      <point x="349" y="606" type="line"/>
      <point x="254" y="606" type="line"/>
      <point x="137" y="769" type="line"/>
      <point x="252" y="769" type="line"/>
    </contour>
  </outline>
</glyph>
<glyph name="atilde" format="2">
  <advance width="566"/>
  <unicode hex="00E3"/>
  <outline>
    <contour>
      <point x="402" y="65" type="line"/>
      <point x="367" y="16"/>
      <point x="308" y="-7"/>
      <point x="237" y="-7" type="curve" smooth="yes"/>
      <point x="128" y="-7"/>
      <point x="44" y="48"/>
      <point x="44" y="154" type="curve" smooth="yes"/>
      <point x="44" y="268"/>
      <point x="142" y="315"/>
      <point x="261" y="315" type="curve" smooth="yes"/>
      <point x="396" y="315" type="line"/>
      <point x="396" y="392"/>
      <point x="366" y="437"/>
      <point x="279" y="438" type="curve"/>
      <point x="228" y="438"/>
      <point x="189" y="422"/>
      <point x="177" y="382" type="curve"/>
      <point x="60" y="382" type="line"/>
      <point x="76" y="494"/>
      <point x="182" y="536"/>
      <point x="283" y="536" type="curve" smooth="yes"/>
      <point x="348" y="536"/>
      <point x="406" y="520"/>
      <point x="447" y="479" type="curve" smooth="yes"/>
      <point x="494" y="431"/>
      <point x="506" y="363"/>
      <point x="506" y="284" type="curve" smooth="yes"/>
      <point x="506" y="0" type="line"/>
      <point x="407" y="0" type="line"/>
    </contour>
    <contour>
      <point x="396" y="234" type="curve"/>
      <point x="286" y="234" type="line" smooth="yes"/>
      <point x="230" y="234"/>
      <point x="158" y="225"/>
      <point x="158" y="161" type="curve" smooth="yes"/>
      <point x="158" y="110"/>
      <point x="200" y="84"/>
      <point x="253" y="84" type="curve" smooth="yes"/>
      <point x="337" y="84"/>
      <point x="396" y="127"/>
    </contour>
    <contour>
      <point x="112" y="610" type="line"/>
      <point x="112" y="625"/>
      <point x="110" y="627"/>
      <point x="114" y="655" type="curve" smooth="yes"/>
      <point x="121" y="714"/>
      <point x="155" y="755"/>
      <point x="220" y="755" type="curve" smooth="yes"/>
      <point x="286" y="755"/>
      <point x="321" y="684"/>
      <point x="353" y="684" type="curve" smooth="yes"/>
      <point x="386" y="684"/>
      <point x="383" y="727"/>
      <point x="383" y="749" type="curve"/>
      <point x="464" y="749" type="line"/>
      <point x="465" y="736"/>
      <point x="464" y="725"/>
      <point x="463" y="714" type="curve" smooth="yes"/>
      <point x="458" y="650"/>
      <point x="424" y="604"/>
      <point x="359" y="605" type="curve" smooth="yes"/>
      <point x="324" y="605"/>
      <point x="299" y="623"/>
      <point x="277" y="642" type="curve" smooth="yes"/>
      <point x="255" y="661"/>
      <point x="238" y="676"/>
      <point x="222" y="676" type="curve" smooth="yes"/>
      <point x="192" y="676"/>
      <point x="192" y="632"/>
      <point x="192" y="610" type="curve"/>
    </contour>
  </outline>
</glyph>
<glyph name="aring" format="2">
  <advance width="566"/>
  <unicode hex="00E5"/>
  <outline>
    <contour>
      <point x="402" y="65" type="line"/>
      <point x="367" y="16"/>
      <point x="308" y="-7"/>
      <point x="237" y="-7" type="curve" smooth="yes"/>
      <point x="128" y="-7"/>
      <point x="44" y="48"/>
      <point x="44" y="154" type="curve" smooth="yes"/>
      <point x="44" y="268"/>
      <point x="142" y="315"/>
      <point x="261" y="315" type="curve" smooth="yes"/>
      <point x="396" y="315" type="line"/>
      <point x="396" y="392"/>
      <point x="366" y="437"/>
      <point x="279" y="438" type="curve"/>
      <point x="228" y="438"/>
      <point x="189" y="422"/>
      <point x="177" y="382" type="curve"/>
      <point x="60" y="382" type="line"/>
      <point x="76" y="494"/>
      <point x="182" y="536"/>
      <point x="283" y="536" type="curve" smooth="yes"/>
      <point x="348" y="536"/>
      <point x="406" y="520"/>
      <point x="447" y="479" type="curve" smooth="yes"/>
      <point x="494" y="431"/>
      <point x="506" y="363"/>
      <point x="506" y="284" type="curve" smooth="yes"/>
      <point x="506" y="0" type="line"/>
      <point x="407" y="0" type="line"/>
    </contour>
    <contour>
      <point x="396" y="234" type="curve"/>
      <point x="286" y="234" type="line" smooth="yes"/>
      <point x="230" y="234"/>
      <point x="158" y="225"/>
      <point x="158" y="161" type="curve" smooth="yes"/>
      <point x="158" y="110"/>
      <point x="200" y="84"/>
      <point x="253" y="84" type="curve" smooth="yes"/>
      <point x="337" y="84"/>
      <point x="396" y="127"/>
    </contour>
    <contour>
      <point x="287" y="802" type="curve" smooth="yes"/>
      <point x="351" y="802"/>
      <point x="394" y="759"/>
      <point x="394" y="695" type="curve" smooth="yes"/>
      <point x="394" y="631"/>
      <point x="350" y="593"/>
      <point x="287" y="593" type="curve" smooth="yes"/>
      <point x="223" y="593"/>
      <point x="180" y="631"/>
      <point x="180" y="695" type="curve" smooth="yes"/>
      <point x="180" y="759"/>
      <point x="224" y="802"/>
    </contour>
    <contour>
      <point x="287" y="740" type="curve" smooth="yes"/>
      <point x="260" y="740"/>
      <point x="245" y="722"/>
      <point x="245" y="697" type="curve" smooth="yes"/>
      <point x="245" y="670"/>
      <point x="260" y="654"/>
      <point x="287" y="654" type="curve" smooth="yes"/>
      <point x="312" y="654"/>
      <point x="329" y="670"/>
      <point x="329" y="697" type="curve" smooth="yes"/>
      <point x="329" y="722"/>
      <point x="312" y="740"/>
    </contour>
  </outline>
</glyph>
<glyph name="ae" format="2">
  <advance width="921"/>
  <unicode hex="00E6"/>
  <outline>
    <contour>
      <point x="244" y="-7" type="curve" smooth="yes"/>
      <point x="143" y="-7"/>
      <point x="44" y="38"/>
      <point x="44" y="154" type="curve" smooth="yes"/>
      <point x="44" y="282"/>
      <point x="152" y="311"/>
      <point x="259" y="311" type="curve" smooth="yes"/>
      <point x="396" y="311" type="line"/>
      <point x="396" y="395"/>
      <point x="363" y="437"/>
      <point x="279" y="438" type="curve" smooth="yes"/>
      <point x="239" y="438"/>
      <point x="188" y="426"/>
      <point x="177" y="382" type="curve"/>
      <point x="60" y="382" type="line"/>
      <point x="76" y="494"/>
      <point x="182" y="536"/>
      <point x="283" y="536" type="curve" smooth="yes"/>
      <point x="354" y="536"/>
      <point x="418" y="515"/>
      <point x="461" y="458" type="curve"/>
      <point x="505" y="509"/>
      <point x="570" y="536"/>
      <point x="638" y="536" type="curve" smooth="yes"/>
      <point x="795" y="536"/>
      <point x="880" y="427"/>
      <point x="880" y="276" type="curve" smooth="yes"/>
      <point x="880" y="259"/>
      <point x="879" y="242"/>
      <point x="877" y="225" type="curve"/>
      <point x="501" y="225" type="line"/>
      <point x="508" y="142"/>
      <point x="559" y="87"/>
      <point x="643" y="87" type="curve" smooth="yes"/>
      <point x="690" y="87"/>
      <point x="734" y="100"/>
      <point x="753" y="145" type="curve"/>
      <point x="870" y="145" type="line"/>
      <point x="843" y="36"/>
      <point x="744" y="-7"/>
      <point x="640" y="-7" type="curve" smooth="yes"/>
      <point x="569" y="-7"/>
      <point x="486" y="16"/>
      <point x="445" y="81" type="curve"/>
      <point x="402" y="21"/>
      <point x="340" y="-7"/>
    </contour>
    <contour>
      <point x="769" y="311" type="line"/>
      <point x="766" y="390"/>
      <point x="718" y="438"/>
      <point x="638" y="438" type="curve" smooth="yes"/>
      <point x="559" y="438"/>
      <point x="511" y="387"/>
      <point x="502" y="311" type="curve"/>
    </contour>
    <contour>
      <point x="396" y="225" type="curve"/>
      <point x="289" y="225" type="line" smooth="yes"/>
      <point x="237" y="225"/>
      <point x="158" y="232"/>
      <point x="158" y="159" type="curve" smooth="yes"/>
      <point x="158" y="104"/>
      <point x="204" y="84"/>
      <point x="253" y="84" type="curve" smooth="yes"/>
      <point x="306" y="84"/>
      <point x="345" y="100"/>
      <point x="368" y="133" type="curve"/>
      <point x="387" y="157"/>
      <point x="396" y="194"/>
    </contour>
  </outline>
</glyph>
<glyph name="ccedilla" format="2">
  <advance width="559"/>
  <unicode hex="00E7"/>
  <outline>
    <contour>
      <point x="331" y="-145" type="curve" smooth="yes"/>
      <point x="331" y="-120"/>
      <point x="306" y="-110"/>
      <point x="277" y="-110" type="curve" smooth="yes"/>
      <point x="257" y="-110"/>
      <point x="237" y="-111"/>
      <point x="221" y="-114" type="curve"/>
      <point x="248" y="-4" type="line"/>
      <point x="107" y="12"/>
      <point x="39" y="116"/>
      <point x="39" y="262" type="curve" smooth="yes"/>
      <point x="39" y="420"/>
      <point x="130" y="536"/>
      <point x="294" y="536" type="curve" smooth="yes"/>
      <point x="415" y="536"/>
      <point x="500" y="483"/>
      <point x="521" y="363" type="curve"/>
      <point x="403" y="363" type="line"/>
      <point x="391" y="410"/>
      <point x="349" y="434"/>
      <point x="292" y="434" type="curve" smooth="yes"/>
      <point x="189" y="434"/>
      <point x="151" y="353"/>
      <point x="151" y="261" type="curve" smooth="yes"/>
      <point x="151" y="167"/>
      <point x="195" y="92"/>
      <point x="295" y="92" type="curve" smooth="yes"/>
      <point x="355" y="92"/>
      <point x="395" y="121"/>
      <point x="406" y="165" type="curve"/>
      <point x="523" y="165" type="line"/>
      <point x="504" y="54"/>
      <point x="420" y="3"/>
      <point x="323" y="-5" type="curve"/>
      <point x="312" y="-51" type="line"/>
      <point x="323" y="-50"/>
      <point x="330" y="-50"/>
      <point x="333" y="-50" type="curve" smooth="yes"/>
      <point x="384" y="-50"/>
      <point x="418" y="-81"/>
      <point x="418" y="-138" type="curve" smooth="yes"/>
      <point x="418" y="-226"/>
      <point x="341" y="-259"/>
      <point x="264" y="-259" type="curve" smooth="yes"/>
      <point x="250" y="-259"/>
      <point x="235" y="-258"/>
      <point x="219" y="-256" type="curve"/>
      <point x="220" y="-188" type="line"/>
      <point x="229" y="-189"/>
      <point x="243" y="-190"/>
      <point x="251" y="-190" type="curve" smooth="yes"/>
      <point x="300" y="-190"/>
      <point x="331" y="-178"/>
    </contour>
  </outline>
</glyph>
<glyph name="edieresis" format="2">
  <advance width="576"/>
  <unicode hex="00EB"/>
  <outline>
    <contour>
      <point x="156" y="225" type="line"/>
      <point x="161" y="149"/>
      <point x="208" y="87"/>
      <point x="298" y="87" type="curve" smooth="yes"/>
      <point x="346" y="87"/>
      <point x="389" y="102"/>
      <point x="408" y="145" type="curve"/>
      <point x="525" y="145" type="line"/>
      <point x="498" y="37"/>
      <point x="402" y="-7"/>
      <point x="295" y="-7" type="curve" smooth="yes"/>
      <point x="126" y="-7"/>
      <point x="42" y="100"/>
      <point x="42" y="264" type="curve" smooth="yes"/>
      <point x="42" y="422"/>
      <point x="136" y="536"/>
      <point x="292" y="536" type="curve" smooth="yes"/>
      <point x="455" y="536"/>
      <point x="535" y="421"/>
      <point x="535" y="276" type="curve" smooth="yes"/>
      <point x="535" y="259"/>
      <point x="534" y="242"/>
      <point x="532" y="225" type="curve"/>
    </contour>
    <contour>
      <point x="424" y="311" type="line"/>
      <point x="421" y="391"/>
      <point x="369" y="437"/>
      <point x="293" y="437" type="curve" smooth="yes"/>
      <point x="209" y="437"/>
      <point x="165" y="380"/>
      <point x="157" y="311" type="curve"/>
    </contour>
    <contour>
      <point x="419" y="734" type="curve"/>
      <point x="459" y="735"/>
      <point x="490" y="705"/>
      <point x="490" y="666" type="curve" smooth="yes"/>
      <point x="490" y="625"/>
      <point x="460" y="597"/>
      <point x="419" y="597" type="curve" smooth="yes"/>
      <point x="378" y="597"/>
      <point x="350" y="623"/>
      <point x="350" y="666" type="curve" smooth="yes"/>
      <point x="350" y="706"/>
      <point x="379" y="734"/>
    </contour>
    <contour>
      <point x="177" y="734" type="curve"/>
      <point x="217" y="735"/>
      <point x="248" y="705"/>
      <point x="248" y="666" type="curve" smooth="yes"/>
      <point x="248" y="625"/>
      <point x="218" y="597"/>
      <point x="177" y="597" type="curve" smooth="yes"/>
      <point x="136" y="597"/>
      <point x="108" y="623"/>
      <point x="108" y="666" type="curve" smooth="yes"/>
      <point x="108" y="706"/>
      <point x="137" y="734"/>
    </contour>
  </outline>
</glyph>
<glyph name="igrave" format="2">
  <advance width="238"/>
  <unicode hex="00EC"/>
  <outline>
    <contour>
      <point x="176" y="0" type="line"/>
      <point x="62" y="0" type="line"/>
      <point x="62" y="527" type="line"/>
      <point x="176" y="527" type="line"/>
    </contour>
    <contour>
      <point x="187" y="606" type="line"/>
      <point x="92" y="606" type="line"/>
      <point x="-25" y="769" type="line"/>
      <point x="90" y="769" type="line"/>
    </contour>
  </outline>
</glyph>
<glyph name="iacute" format="2">
  <advance width="238"/>
  <unicode hex="00ED"/>
  <outline>
    <contour>
      <point x="176" y="0" type="line"/>
      <point x="62" y="0" type="line"/>
      <point x="62" y="527" type="line"/>
      <point x="176" y="527" type="line"/>
    </contour>
    <contour>
      <point x="154" y="769" type="line"/>
      <point x="269" y="769" type="line"/>
      <point x="152" y="606" type="line"/>
      <point x="57" y="606" type="line"/>
    </contour>
  </outline>
</glyph>
<glyph name="icircumflex" format="2">
  <advance width="238"/>
  <unicode hex="00EE"/>
  <outline>
    <contour>
      <point x="176" y="0" type="line"/>
      <point x="62" y="0" type="line"/>
      <point x="62" y="527" type="line"/>
      <point x="176" y="527" type="line"/>
    </contour>
    <contour>
      <point x="300" y="599" type="line"/>
      <point x="194" y="599" type="line"/>
      <point x="120" y="692" type="line"/>
      <point x="47" y="599" type="line"/>
      <point x="-58" y="599" type="line"/>
      <point x="83" y="769" type="line"/>
      <point x="157" y="769" type="line"/>
    </contour>
  </outline>
</glyph>
<glyph name="idieresis" format="2">
  <advance width="238"/>
  <unicode hex="00EF"/>
  <outline>
    <contour>
      <point x="176" y="0" type="line"/>
      <point x="62" y="0" type="line"/>
      <point x="62" y="527" type="line"/>
      <point x="176" y="527" type="line"/>
    </contour>
    <contour>
      <point x="229" y="734" type="curve" smooth="yes"/>
      <point x="269" y="735"/>
      <point x="300" y="705"/>
      <point x="300" y="666" type="curve" smooth="yes"/>
      <point x="300" y="625"/>
      <point x="270" y="597"/>
      <point x="229" y="597" type="curve" smooth="yes"/>
      <point x="188" y="597"/>
      <point x="160" y="623"/>
      <point x="160" y="666" type="curve" smooth="yes"/>
      <point x="160" y="706"/>
      <point x="189" y="734"/>
    </contour>
    <contour>
      <point x="7" y="734" type="curve" smooth="yes"/>
      <point x="47" y="735"/>
      <point x="78" y="705"/>
      <point x="78" y="666" type="curve" smooth="yes"/>
      <point x="78" y="625"/>
      <point x="48" y="597"/>
      <point x="7" y="597" type="curve" smooth="yes"/>
      <point x="-34" y="597"/>
      <point x="-62" y="623"/>
      <point x="-62" y="666" type="curve" smooth="yes"/>
      <point x="-62" y="706"/>
      <point x="-33" y="734"/>
    </contour>
  </outline>
</glyph>
<glyph name="eth" format="2">
  <advance width="585"/>
  <unicode hex="00F0"/>
  <outline>
    <contour>
      <point x="291" y="91" type="curve" smooth="yes"/>
      <point x="376" y="91"/>
      <point x="426" y="156"/>
      <point x="426" y="239" type="curve" smooth="yes"/>
      <point x="426" y="328"/>
      <point x="377" y="390"/>
      <point x="284" y="390" type="curve" smooth="yes"/>
      <point x="199" y="390"/>
      <point x="153" y="325"/>
      <point x="153" y="245" type="curve" smooth="yes"/>
      <point x="153" y="160"/>
      <point x="201" y="91"/>
    </contour>
    <contour>
      <point x="187" y="595" type="line"/>
      <point x="269" y="646" type="line"/>
      <point x="238" y="666"/>
      <point x="194" y="678"/>
      <point x="153" y="685" type="curve"/>
      <point x="172" y="766" type="line"/>
      <point x="236" y="755"/>
      <point x="297" y="737"/>
      <point x="352" y="702" type="curve"/>
      <point x="466" y="774" type="line"/>
      <point x="510" y="705" type="line"/>
      <point x="422" y="649" type="line"/>
      <point x="517" y="556"/>
      <point x="543" y="433"/>
      <point x="543" y="304" type="curve" smooth="yes"/>
      <point x="543" y="134"/>
      <point x="476" y="-7"/>
      <point x="287" y="-7" type="curve" smooth="yes"/>
      <point x="131" y="-7"/>
      <point x="42" y="99"/>
      <point x="42" y="250" type="curve" smooth="yes"/>
      <point x="42" y="388"/>
      <point x="130" y="492"/>
      <point x="271" y="492" type="curve" smooth="yes"/>
      <point x="335" y="492"/>
      <point x="396" y="472"/>
      <point x="435" y="419" type="curve"/>
      <point x="432" y="474"/>
      <point x="387" y="563"/>
      <point x="341" y="595" type="curve"/>
      <point x="231" y="526" type="line"/>
    </contour>
  </outline>
</glyph>
<glyph name="ntilde" format="2">
  <advance width="604"/>
  <unicode hex="00F1"/>
  <outline>
    <contour>
      <point x="62" y="0" type="line"/>
      <point x="62" y="527" type="line"/>
      <point x="171" y="527" type="line"/>
      <point x="177" y="454" type="line"/>
      <point x="216" y="509"/>
      <point x="277" y="536"/>
      <point x="342" y="536" type="curve" smooth="yes"/>
      <point x="491" y="536"/>
      <point x="545" y="429"/>
      <point x="545" y="289" type="curve" smooth="yes"/>
      <point x="545" y="0" type="line"/>
      <point x="431" y="0" type="line"/>
      <point x="431" y="272" type="line" smooth="yes"/>
      <point x="431" y="361"/>
      <point x="412" y="435"/>
      <point x="312" y="435" type="curve" smooth="yes"/>
      <point x="211" y="435"/>
      <point x="176" y="336"/>
      <point x="176" y="251" type="curve" smooth="yes"/>
      <point x="176" y="0" type="line"/>
    </contour>
    <contour>
      <point x="132" y="610" type="line"/>
      <point x="132" y="625"/>
      <point x="130" y="627"/>
      <point x="134" y="655" type="curve" smooth="yes"/>
      <point x="141" y="714"/>
      <point x="175" y="755"/>
      <point x="240" y="755" type="curve" smooth="yes"/>
      <point x="306" y="755"/>
      <point x="341" y="684"/>
      <point x="373" y="684" type="curve" smooth="yes"/>
      <point x="406" y="684"/>
      <point x="403" y="727"/>
      <point x="403" y="749" type="curve"/>
      <point x="484" y="749" type="line"/>
      <point x="485" y="736"/>
      <point x="484" y="725"/>
      <point x="483" y="714" type="curve" smooth="yes"/>
      <point x="478" y="650"/>
      <point x="444" y="604"/>
      <point x="379" y="605" type="curve" smooth="yes"/>
      <point x="344" y="605"/>
      <point x="319" y="623"/>
      <point x="297" y="642" type="curve" smooth="yes"/>
      <point x="275" y="661"/>
      <point x="258" y="676"/>
      <point x="242" y="676" type="curve" smooth="yes"/>
      <point x="212" y="676"/>
      <point x="212" y="632"/>
      <point x="212" y="610" type="curve"/>
    </contour>
  </outline>
</glyph>
<glyph name="ocircumflex" format="2">
  <advance width="601"/>
  <unicode hex="00F4"/>
  <outline>
    <contour>
      <point x="299" y="536" type="curve" smooth="yes"/>
      <point x="466" y="536"/>
      <point x="559" y="426"/>
      <point x="559" y="264" type="curve" smooth="yes"/>
      <point x="559" y="100"/>
      <point x="470" y="-7"/>
      <point x="299" y="-7" type="curve" smooth="yes"/>
      <point x="131" y="-7"/>
      <point x="42" y="101"/>
      <point x="42" y="264" type="curve" smooth="yes"/>
      <point x="42" y="426"/>
      <point x="133" y="536"/>
    </contour>
    <contour>
      <point x="299" y="92" type="curve" smooth="yes"/>
      <point x="402" y="92"/>
      <point x="445" y="168"/>
      <point x="445" y="263" type="curve" smooth="yes"/>
      <point x="445" y="360"/>
      <point x="402" y="434"/>
      <point x="299" y="434" type="curve" smooth="yes"/>
      <point x="199" y="434"/>
      <point x="154" y="360"/>
      <point x="154" y="263" type="curve" smooth="yes"/>
      <point x="154" y="168"/>
      <point x="198" y="92"/>
    </contour>
    <contour>
      <point x="482" y="599" type="line"/>
      <point x="376" y="599" type="line"/>
      <point x="302" y="692" type="line"/>
      <point x="229" y="599" type="line"/>
      <point x="124" y="599" type="line"/>
      <point x="265" y="769" type="line"/>
      <point x="339" y="769" type="line"/>
    </contour>
  </outline>
</glyph>
<glyph name="otilde" format="2">
  <advance width="601"/>
  <unicode hex="00F5"/>
  <outline>
    <contour>
      <point x="299" y="536" type="curve" smooth="yes"/>
      <point x="466" y="536"/>
      <point x="559" y="426"/>
      <point x="559" y="264" type="curve" smooth="yes"/>
      <point x="559" y="100"/>
      <point x="470" y="-7"/>
      <point x="299" y="-7" type="curve" smooth="yes"/>
      <point x="131" y="-7"/>
      <point x="42" y="101"/>
      <point x="42" y="264" type="curve" smooth="yes"/>
      <point x="42" y="426"/>
      <point x="133" y="536"/>
    </contour>
    <contour>
      <point x="299" y="92" type="curve" smooth="yes"/>
      <point x="402" y="92"/>
      <point x="445" y="168"/>
      <point x="445" y="263" type="curve" smooth="yes"/>
      <point x="445" y="360"/>
      <point x="402" y="434"/>
      <point x="299" y="434" type="curve" smooth="yes"/>
      <point x="199" y="434"/>
      <point x="154" y="360"/>
      <point x="154" y="263" type="curve" smooth="yes"/>
      <point x="154" y="168"/>
      <point x="198" y="92"/>
    </contour>
    <contour>
      <point x="130" y="610" type="line"/>
      <point x="130" y="625"/>
      <point x="129" y="627"/>
      <point x="132" y="655" type="curve"/>
      <point x="140" y="714"/>
      <point x="173" y="755"/>
      <point x="238" y="755" type="curve" smooth="yes"/>
      <point x="304" y="755"/>
      <point x="339" y="684"/>
      <point x="371" y="684" type="curve" smooth="yes"/>
      <point x="404" y="684"/>
      <point x="401" y="727"/>
      <point x="401" y="749" type="curve"/>
      <point x="482" y="749" type="line"/>
      <point x="483" y="736"/>
      <point x="482" y="725"/>
      <point x="481" y="714" type="curve" smooth="yes"/>
      <point x="476" y="650"/>
      <point x="442" y="604"/>
      <point x="377" y="605" type="curve" smooth="yes"/>
      <point x="342" y="605"/>
      <point x="317" y="623"/>
      <point x="295" y="642" type="curve" smooth="yes"/>
      <point x="273" y="661"/>
      <point x="256" y="676"/>
      <point x="240" y="676" type="curve" smooth="yes"/>
      <point x="210" y="676"/>
      <point x="210" y="632"/>
      <point x="210" y="610" type="curve"/>
    </contour>
  </outline>
</glyph>
<glyph name="odieresis" format="2">
  <advance width="601"/>
  <unicode hex="00F6"/>
  <outline>
    <contour>
      <point x="299" y="536" type="curve" smooth="yes"/>
      <point x="466" y="536"/>
      <point x="559" y="426"/>
      <point x="559" y="264" type="curve" smooth="yes"/>
      <point x="559" y="100"/>
      <point x="470" y="-7"/>
      <point x="299" y="-7" type="curve" smooth="yes"/>
      <point x="131" y="-7"/>
      <point x="42" y="101"/>
      <point x="42" y="264" type="curve" smooth="yes"/>
      <point x="42" y="426"/>
      <point x="133" y="536"/>
    </contour>
    <contour>
      <point x="299" y="92" type="curve" smooth="yes"/>
      <point x="402" y="92"/>
      <point x="445" y="168"/>
      <point x="445" y="263" type="curve" smooth="yes"/>
      <point x="445" y="360"/>
      <point x="402" y="434"/>
      <point x="299" y="434" type="curve" smooth="yes"/>
      <point x="199" y="434"/>
      <point x="154" y="360"/>
      <point x="154" y="263" type="curve" smooth="yes"/>
      <point x="154" y="168"/>
      <point x="198" y="92"/>
    </contour>
    <contour>
      <point x="423" y="734" type="curve" smooth="yes"/>
      <point x="463" y="735"/>
      <point x="494" y="705"/>
      <point x="494" y="666" type="curve" smooth="yes"/>
      <point x="494" y="625"/>
      <point x="464" y="597"/>
      <point x="423" y="597" type="curve" smooth="yes"/>
      <point x="382" y="597"/>
      <point x="354" y="623"/>
      <point x="354" y="666" type="curve" smooth="yes"/>
      <point x="354" y="706"/>
      <point x="383" y="734"/>
    </contour>
    <contour>
      <point x="181" y="734" type="curve" smooth="yes"/>
      <point x="221" y="735"/>
      <point x="252" y="705"/>
      <point x="252" y="666" type="curve" smooth="yes"/>
      <point x="252" y="625"/>
      <point x="222" y="597"/>
      <point x="181" y="597" type="curve" smooth="yes"/>
      <point x="140" y="597"/>
      <point x="112" y="623"/>
      <point x="112" y="666" type="curve" smooth="yes"/>
      <point x="112" y="706"/>
      <point x="141" y="734"/>
    </contour>
  </outline>
</glyph>
<glyph name="divide" format="2">
  <advance width="516"/>
  <unicode hex="00F7"/>
  <outline>
    <contour>
      <point x="257" y="617" type="curve" smooth="yes"/>
      <point x="300" y="617"/>
      <point x="327" y="589"/>
      <point x="327" y="546" type="curve" smooth="yes"/>
      <point x="327" y="503"/>
      <point x="300" y="477"/>
      <point x="257" y="477" type="curve" smooth="yes"/>
      <point x="214" y="477"/>
      <point x="188" y="503"/>
      <point x="188" y="546" type="curve" smooth="yes"/>
      <point x="188" y="589"/>
      <point x="214" y="617"/>
    </contour>
    <contour>
      <point x="54" y="408" type="line"/>
      <point x="462" y="408" type="line"/>
      <point x="462" y="313" type="line"/>
      <point x="54" y="313" type="line"/>
    </contour>
    <contour>
      <point x="257" y="239" type="curve" smooth="yes"/>
      <point x="300" y="239"/>
      <point x="327" y="212"/>
      <point x="327" y="169" type="curve" smooth="yes"/>
      <point x="327" y="126"/>
      <point x="300" y="99"/>
      <point x="257" y="99" type="curve" smooth="yes"/>
      <point x="214" y="99"/>
      <point x="188" y="126"/>
      <point x="188" y="169" type="curve" smooth="yes"/>
      <point x="188" y="212"/>
      <point x="214" y="239"/>
    </contour>
  </outline>
</glyph>
<glyph name="oslash" format="2">
  <advance width="601"/>
  <unicode hex="00F8"/>
  <outline>
    <contour>
      <point x="299" y="536" type="curve" smooth="yes"/>
      <point x="326" y="536"/>
      <point x="352" y="533"/>
      <point x="376" y="527" type="curve"/>
      <point x="423" y="623" type="line"/>
      <point x="532" y="623" type="line"/>
      <point x="463" y="485" type="line"/>
      <point x="534" y="432"/>
      <point x="559" y="349"/>
      <point x="559" y="264" type="curve" smooth="yes"/>
      <point x="559" y="98"/>
      <point x="467" y="-7"/>
      <point x="299" y="-7" type="curve" smooth="yes"/>
      <point x="273" y="-7"/>
      <point x="248" y="-4"/>
      <point x="225" y="1" type="curve"/>
      <point x="177" y="-96" type="line"/>
      <point x="69" y="-96" type="line"/>
      <point x="137" y="41" type="line"/>
      <point x="66" y="93"/>
      <point x="42" y="179"/>
      <point x="42" y="264" type="curve" smooth="yes"/>
      <point x="42" y="424"/>
      <point x="131" y="536"/>
    </contour>
    <contour>
      <point x="189" y="141" type="curve"/>
      <point x="237" y="236"/>
      <point x="289" y="335"/>
      <point x="336" y="430" type="curve"/>
      <point x="325" y="433"/>
      <point x="313" y="434"/>
      <point x="299" y="434" type="curve" smooth="yes"/>
      <point x="195" y="434"/>
      <point x="154" y="356"/>
      <point x="154" y="263" type="curve" smooth="yes"/>
      <point x="154" y="220"/>
      <point x="162" y="176"/>
    </contour>
    <contour>
      <point x="411" y="384" type="curve"/>
      <point x="364" y="289"/>
      <point x="312" y="190"/>
      <point x="265" y="95" type="curve"/>
      <point x="275" y="93"/>
      <point x="286" y="92"/>
      <point x="299" y="92" type="curve" smooth="yes"/>
      <point x="402" y="92"/>
      <point x="445" y="169"/>
      <point x="445" y="263" type="curve" smooth="yes"/>
      <point x="445" y="304"/>
      <point x="436" y="349"/>
    </contour>
  </outline>
</glyph>
<glyph name="ugrave" format="2">
  <advance width="588"/>
  <unicode hex="00F9"/>
  <outline>
    <contour>
      <point x="293" y="92" type="curve"/>
      <point x="381" y="92"/>
      <point x="415" y="143"/>
      <point x="415" y="234" type="curve" smooth="yes"/>
      <point x="415" y="527" type="line"/>
      <point x="528" y="527" type="line"/>
      <point x="528" y="230" type="line" smooth="yes"/>
      <point x="528" y="54"/>
      <point x="429" y="-7"/>
      <point x="293" y="-7" type="curve" smooth="yes"/>
      <point x="146" y="-7"/>
      <point x="60" y="66"/>
      <point x="60" y="230" type="curve" smooth="yes"/>
      <point x="60" y="527" type="line"/>
      <point x="173" y="527" type="line"/>
      <point x="173" y="234" type="line" smooth="yes"/>
      <point x="173" y="143"/>
      <point x="212" y="93"/>
    </contour>
    <contour>
      <point x="360" y="606" type="line"/>
      <point x="265" y="606" type="line"/>
      <point x="148" y="769" type="line"/>
      <point x="263" y="769" type="line"/>
    </contour>
  </outline>
</glyph>
<glyph name="uacute" format="2">
  <advance width="588"/>
  <unicode hex="00FA"/>
  <outline>
    <contour>
      <point x="293" y="92" type="curve"/>
      <point x="381" y="92"/>
      <point x="415" y="143"/>
      <point x="415" y="234" type="curve" smooth="yes"/>
      <point x="415" y="527" type="line"/>
      <point x="528" y="527" type="line"/>
      <point x="528" y="230" type="line" smooth="yes"/>
      <point x="528" y="54"/>
      <point x="429" y="-7"/>
      <point x="293" y="-7" type="curve" smooth="yes"/>
      <point x="146" y="-7"/>
      <point x="60" y="66"/>
      <point x="60" y="230" type="curve" smooth="yes"/>
      <point x="60" y="527" type="line"/>
      <point x="173" y="527" type="line"/>
      <point x="173" y="234" type="line" smooth="yes"/>
      <point x="173" y="143"/>
      <point x="212" y="93"/>
    </contour>
    <contour>
      <point x="335" y="769" type="line"/>
      <point x="450" y="769" type="line"/>
      <point x="333" y="606" type="line"/>
      <point x="238" y="606" type="line"/>
    </contour>
  </outline>
</glyph>
<glyph name="udieresis" format="2">
  <advance width="588"/>
  <unicode hex="00FC"/>
  <outline>
    <contour>
      <point x="293" y="92" type="curve"/>
      <point x="381" y="92"/>
      <point x="415" y="143"/>
      <point x="415" y="234" type="curve" smooth="yes"/>
      <point x="415" y="527" type="line"/>
      <point x="528" y="527" type="line"/>
      <point x="528" y="230" type="line" smooth="yes"/>
      <point x="528" y="54"/>
      <point x="429" y="-7"/>
      <point x="293" y="-7" type="curve" smooth="yes"/>
      <point x="146" y="-7"/>
      <point x="60" y="66"/>
      <point x="60" y="230" type="curve" smooth="yes"/>
      <point x="60" y="527" type="line"/>
      <point x="173" y="527" type="line"/>
      <point x="173" y="234" type="line" smooth="yes"/>
      <point x="173" y="143"/>
      <point x="212" y="93"/>
    </contour>
    <contour>
      <point x="417" y="734" type="curve" smooth="yes"/>
      <point x="457" y="735"/>
      <point x="488" y="705"/>
      <point x="488" y="666" type="curve" smooth="yes"/>
      <point x="488" y="625"/>
      <point x="458" y="597"/>
      <point x="417" y="597" type="curve" smooth="yes"/>
      <point x="376" y="597"/>
      <point x="348" y="623"/>
      <point x="348" y="666" type="curve" smooth="yes"/>
      <point x="348" y="706"/>
      <point x="377" y="734"/>
    </contour>
    <contour>
      <point x="175" y="734" type="curve" smooth="yes"/>
      <point x="215" y="735"/>
      <point x="246" y="705"/>
      <point x="246" y="666" type="curve" smooth="yes"/>
      <point x="246" y="625"/>
      <point x="216" y="597"/>
      <point x="175" y="597" type="curve" smooth="yes"/>
      <point x="134" y="597"/>
      <point x="106" y="623"/>
      <point x="106" y="666" type="curve" smooth="yes"/>
      <point x="106" y="706"/>
      <point x="135" y="734"/>
    </contour>
  </outline>
</glyph>
<glyph name="yacute" format="2">
  <advance width="611"/>
  <unicode hex="00FD"/>
  <outline>
    <contour>
      <point x="549" y="527" type="line"/>
      <point x="549" y="84" type="line" smooth="yes"/>
      <point x="549" y="24"/>
      <point x="551" y="-40"/>
      <point x="531" y="-100" type="curve" smooth="yes"/>
      <point x="500" y="-196"/>
      <point x="422" y="-254"/>
      <point x="287" y="-254" type="curve" smooth="yes"/>
      <point x="207" y="-254"/>
      <point x="132" y="-234"/>
      <point x="67" y="-185" type="curve"/>
      <point x="110" y="-89" type="line"/>
      <point x="154" y="-124"/>
      <point x="210" y="-151"/>
      <point x="283" y="-151" type="curve" smooth="yes"/>
      <point x="422" y="-151"/>
      <point x="436" y="-45"/>
      <point x="436" y="66" type="curve"/>
      <point x="399" y="13"/>
      <point x="342" y="-8"/>
      <point x="273" y="-8" type="curve" smooth="yes"/>
      <point x="110" y="-8"/>
      <point x="62" y="93"/>
      <point x="62" y="232" type="curve" smooth="yes"/>
      <point x="62" y="527" type="line"/>
      <point x="175" y="527" type="line"/>
      <point x="175" y="254" type="line" smooth="yes"/>
      <point x="175" y="169"/>
      <point x="194" y="91"/>
      <point x="298" y="91" type="curve" smooth="yes"/>
      <point x="405" y="91"/>
      <point x="435" y="183"/>
      <point x="435" y="275" type="curve" smooth="yes"/>
      <point x="435" y="527" type="line"/>
    </contour>
    <contour>
      <point x="346" y="769" type="line"/>
      <point x="461" y="769" type="line"/>
      <point x="344" y="606" type="line"/>
      <point x="249" y="606" type="line"/>
    </contour>
  </outline>
</glyph>
<glyph name="thorn" format="2">
  <advance width="623"/>
  <unicode hex="00FE"/>
  <outline>
    <contour>
      <point x="62" y="-205" type="line"/>
      <point x="62" y="707" type="line"/>
      <point x="176" y="707" type="line"/>
      <point x="176" y="459" type="line"/>
      <point x="217" y="512"/>
      <point x="278" y="536"/>
      <point x="347" y="536" type="curve" smooth="yes"/>
      <point x="509" y="536"/>
      <point x="581" y="411"/>
      <point x="581" y="265" type="curve" smooth="yes"/>
      <point x="581" y="116"/>
      <point x="508" y="-7"/>
      <point x="347" y="-7" type="curve" smooth="yes"/>
      <point x="283" y="-7"/>
      <point x="221" y="10"/>
      <point x="176" y="57" type="curve"/>
      <point x="176" y="-205" type="line"/>
    </contour>
    <contour>
      <point x="325" y="92" type="curve" smooth="yes"/>
      <point x="426" y="92"/>
      <point x="468" y="172"/>
      <point x="468" y="263" type="curve" smooth="yes"/>
      <point x="468" y="356"/>
      <point x="427" y="434"/>
      <point x="323" y="434" type="curve" smooth="yes"/>
      <point x="226" y="434"/>
      <point x="175" y="353"/>
      <point x="175" y="264" type="curve" smooth="yes"/>
      <point x="175" y="169"/>
      <point x="223" y="92"/>
    </contour>
  </outline>
</glyph>
<glyph name="ydieresis" format="2">
  <advance width="611"/>
  <unicode hex="00FF"/>
  <outline>
    <contour>
      <point x="549" y="527" type="line"/>
      <point x="549" y="84" type="line" smooth="yes"/>
      <point x="549" y="24"/>
      <point x="551" y="-40"/>
      <point x="531" y="-100" type="curve" smooth="yes"/>
      <point x="500" y="-196"/>
      <point x="422" y="-254"/>
      <point x="287" y="-254" type="curve" smooth="yes"/>
      <point x="207" y="-254"/>
      <point x="132" y="-234"/>
      <point x="67" y="-185" type="curve"/>
      <point x="82" y="-154"/>
      <point x="95" y="-121"/>
      <point x="110" y="-89" type="curve"/>
      <point x="154" y="-124"/>
      <point x="210" y="-151"/>
      <point x="283" y="-151" type="curve" smooth="yes"/>
      <point x="422" y="-151"/>
      <point x="436" y="-45"/>
      <point x="436" y="66" type="curve"/>
      <point x="399" y="13"/>
      <point x="342" y="-8"/>
      <point x="273" y="-8" type="curve" smooth="yes"/>
      <point x="110" y="-8"/>
      <point x="62" y="93"/>
      <point x="62" y="232" type="curve" smooth="yes"/>
      <point x="62" y="527" type="line"/>
      <point x="175" y="527" type="line"/>
      <point x="175" y="254" type="line" smooth="yes"/>
      <point x="175" y="169"/>
      <point x="194" y="91"/>
      <point x="298" y="91" type="curve" smooth="yes"/>
      <point x="405" y="91"/>
      <point x="435" y="183"/>
      <point x="435" y="275" type="curve" smooth="yes"/>
      <point x="435" y="527" type="line"/>
    </contour>
    <contour>
      <point x="430" y="734" type="curve" smooth="yes"/>
      <point x="470" y="735"/>
      <point x="501" y="705"/>
      <point x="501" y="666" type="curve" smooth="yes"/>
      <point x="501" y="625"/>
      <point x="471" y="597"/>
      <point x="430" y="597" type="curve" smooth="yes"/>
      <point x="389" y="597"/>
      <point x="361" y="623"/>
      <point x="361" y="666" type="curve" smooth="yes"/>
      <point x="361" y="706"/>
      <point x="390" y="734"/>
    </contour>
    <contour>
      <point x="188" y="734" type="curve" smooth="yes"/>
      <point x="228" y="735"/>
      <point x="259" y="705"/>
      <point x="259" y="666" type="curve" smooth="yes"/>
      <point x="259" y="625"/>
      <point x="229" y="597"/>
      <point x="188" y="597" type="curve" smooth="yes"/>
      <point x="147" y="597"/>
      <point x="119" y="623"/>
      <point x="119" y="666" type="curve" smooth="yes"/>
      <point x="119" y="706"/>
      <point x="148" y="734"/>
    </contour>
  </outline>
</glyph>
<glyph name="Amacron" format="2">
  <advance width="689"/>
  <unicode hex="0100"/>
  <outline>
    <contour>
      <point x="557" y="0" type="line"/>
      <point x="505" y="143" type="line"/>
      <point x="184" y="143" type="line"/>
      <point x="131" y="0" type="line"/>
      <point x="5" y="0" type="line"/>
      <point x="273" y="707" type="line"/>
      <point x="417" y="707" type="line"/>
      <point x="684" y="0" type="line"/>
    </contour>
    <contour>
      <point x="469" y="247" type="line"/>
      <point x="345" y="593" type="line"/>
      <point x="220" y="247" type="line"/>
    </contour>
    <contour>
      <point x="515" y="902" type="line"/>
      <point x="515" y="809" type="line"/>
      <point x="177" y="809" type="line"/>
      <point x="177" y="902" type="line"/>
    </contour>
  </outline>
</glyph>
<glyph name="Abreve" format="2">
  <advance width="689"/>
  <unicode hex="0102"/>
  <outline>
    <contour>
      <point x="557" y="0" type="line"/>
      <point x="505" y="143" type="line"/>
      <point x="184" y="143" type="line"/>
      <point x="131" y="0" type="line"/>
      <point x="5" y="0" type="line"/>
      <point x="273" y="707" type="line"/>
      <point x="417" y="707" type="line"/>
      <point x="684" y="0" type="line"/>
    </contour>
    <contour>
      <point x="469" y="247" type="line"/>
      <point x="345" y="593" type="line"/>
      <point x="220" y="247" type="line"/>
    </contour>
    <contour>
      <point x="262" y="923" type="line"/>
      <point x="265" y="872"/>
      <point x="300" y="855"/>
      <point x="347" y="855" type="curve" smooth="yes"/>
      <point x="394" y="855"/>
      <point x="429" y="872"/>
      <point x="432" y="923" type="curve"/>
      <point x="526" y="923" type="line"/>
      <point x="523" y="816"/>
      <point x="444" y="775"/>
      <point x="346" y="775" type="curve" smooth="yes"/>
      <point x="247" y="775"/>
      <point x="171" y="815"/>
      <point x="168" y="923" type="curve"/>
    </contour>
  </outline>
</glyph>
<glyph name="Aogonek" format="2">
  <advance width="689"/>
  <unicode hex="0104"/>
  <outline>
    <contour>
      <point x="469" y="247" type="line"/>
      <point x="345" y="593" type="line"/>
      <point x="220" y="247" type="line"/>
    </contour>
    <contour>
      <point x="557" y="0" type="line"/>
      <point x="505" y="143" type="line"/>
      <point x="184" y="143" type="line"/>
      <point x="131" y="0" type="line"/>
      <point x="5" y="0" type="line"/>
      <point x="273" y="707" type="line"/>
      <point x="417" y="707" type="line"/>
      <point x="684" y="0" type="line"/>
      <point x="661" y="0" type="line"/>
      <point x="655" y="-3"/>
      <point x="649" y="-7"/>
      <point x="642" y="-12" type="curve" smooth="yes"/>
      <point x="615" y="-31"/>
      <point x="592" y="-58"/>
      <point x="592" y="-90" type="curve"/>
      <point x="591" y="-126"/>
      <point x="616" y="-146"/>
      <point x="651" y="-146" type="curve" smooth="yes"/>
      <point x="667" y="-146"/>
      <point x="682" y="-142"/>
      <point x="696" y="-135" type="curve"/>
      <point x="711" y="-204" type="line"/>
      <point x="686" y="-217"/>
      <point x="662" y="-222"/>
      <point x="635" y="-222" type="curve" smooth="yes"/>
      <point x="564" y="-222"/>
      <point x="508" y="-183"/>
      <point x="508" y="-107" type="curve" smooth="yes"/>
      <point x="508" y="-79"/>
      <point x="517" y="-54"/>
      <point x="534" y="-33" type="curve" smooth="yes"/>
      <point x="545" y="-20"/>
      <point x="558" y="-9"/>
      <point x="571" y="0" type="curve"/>
    </contour>
  </outline>
</glyph>
<glyph name="aogonek" format="2">
  <advance width="566"/>
  <unicode hex="0105"/>
  <outline>
    <contour>
      <point x="396" y="234" type="curve"/>
      <point x="286" y="234" type="line" smooth="yes"/>
      <point x="230" y="234"/>
      <point x="158" y="225"/>
      <point x="158" y="161" type="curve" smooth="yes"/>
      <point x="158" y="110"/>
      <point x="200" y="84"/>
      <point x="253" y="84" type="curve" smooth="yes"/>
      <point x="337" y="84"/>
      <point x="396" y="127"/>
    </contour>
    <contour>
      <point x="402" y="65" type="line"/>
      <point x="367" y="16"/>
      <point x="308" y="-7"/>
      <point x="237" y="-7" type="curve" smooth="yes"/>
      <point x="128" y="-7"/>
      <point x="44" y="48"/>
      <point x="44" y="154" type="curve" smooth="yes"/>
      <point x="44" y="268"/>
      <point x="142" y="315"/>
      <point x="261" y="315" type="curve" smooth="yes"/>
      <point x="396" y="315" type="line"/>
      <point x="396" y="392"/>
      <point x="366" y="437"/>
      <point x="279" y="438" type="curve"/>
      <point x="228" y="438"/>
      <point x="189" y="422"/>
      <point x="177" y="382" type="curve"/>
      <point x="60" y="382" type="line"/>
      <point x="76" y="494"/>
      <point x="182" y="536"/>
      <point x="283" y="536" type="curve" smooth="yes"/>
      <point x="348" y="536"/>
      <point x="406" y="520"/>
      <point x="447" y="479" type="curve" smooth="yes"/>
      <point x="494" y="431"/>
      <point x="506" y="363"/>
      <point x="506" y="284" type="curve" smooth="yes"/>
      <point x="506" y="0" type="line"/>
      <point x="496" y="0" type="line"/>
      <point x="466" y="-18"/>
      <point x="430" y="-53"/>
      <point x="430" y="-90" type="curve"/>
      <point x="429" y="-126"/>
      <point x="454" y="-146"/>
      <point x="489" y="-146" type="curve" smooth="yes"/>
      <point x="505" y="-146"/>
      <point x="520" y="-142"/>
      <point x="534" y="-135" type="curve"/>
      <point x="549" y="-204" type="line"/>
      <point x="524" y="-217"/>
      <point x="500" y="-222"/>
      <point x="473" y="-222" type="curve" smooth="yes"/>
      <point x="402" y="-222"/>
      <point x="346" y="-183"/>
      <point x="346" y="-107" type="curve" smooth="yes"/>
      <point x="346" y="-59"/>
      <point x="371" y="-26"/>
      <point x="409" y="0" type="curve"/>
      <point x="407" y="0" type="line"/>
    </contour>
  </outline>
</glyph>
<glyph name="Ccircumflex" format="2">
  <advance width="706"/>
  <unicode hex="0108"/>
  <outline>
    <contour>
      <point x="376" y="612" type="curve" smooth="yes"/>
      <point x="227" y="612"/>
      <point x="162" y="492"/>
      <point x="162" y="356" type="curve" smooth="yes"/>
      <point x="162" y="217"/>
      <point x="230" y="97"/>
      <point x="379" y="97" type="curve" smooth="yes"/>
      <point x="471" y="97"/>
      <point x="537" y="140"/>
      <point x="553" y="208" type="curve"/>
      <point x="669" y="208" type="line"/>
      <point x="648" y="72"/>
      <point x="529" y="-7"/>
      <point x="377" y="-7" type="curve" smooth="yes"/>
      <point x="156" y="-7"/>
      <point x="43" y="144"/>
      <point x="43" y="354" type="curve" smooth="yes"/>
      <point x="43" y="560"/>
      <point x="158" y="716"/>
      <point x="378" y="716" type="curve" smooth="yes"/>
      <point x="534" y="716"/>
      <point x="642" y="642"/>
      <point x="663" y="499" type="curve"/>
      <point x="549" y="499" type="line"/>
      <point x="532" y="568"/>
      <point x="469" y="612"/>
    </contour>
    <contour>
      <point x="560" y="779" type="line"/>
      <point x="454" y="779" type="line"/>
      <point x="380" y="872" type="line"/>
      <point x="307" y="779" type="line"/>
      <point x="202" y="779" type="line"/>
      <point x="343" y="949" type="line"/>
      <point x="417" y="949" type="line"/>
    </contour>
  </outline>
</glyph>
<glyph name="cdotaccent" format="2">
  <advance width="562"/>
  <unicode hex="010B"/>
  <outline>
    <contour>
      <point x="294" y="-7" type="curve" smooth="yes"/>
      <point x="124" y="-7"/>
      <point x="42" y="102"/>
      <point x="42" y="262" type="curve" smooth="yes"/>
      <point x="42" y="420"/>
      <point x="133" y="536"/>
      <point x="297" y="536" type="curve" smooth="yes"/>
      <point x="418" y="536"/>
      <point x="503" y="483"/>
      <point x="524" y="363" type="curve"/>
      <point x="407" y="363" type="line"/>
      <point x="395" y="410"/>
      <point x="352" y="434"/>
      <point x="295" y="434" type="curve" smooth="yes"/>
      <point x="193" y="434"/>
      <point x="154" y="353"/>
      <point x="154" y="261" type="curve" smooth="yes"/>
      <point x="154" y="167"/>
      <point x="195" y="92"/>
      <point x="296" y="92" type="curve" smooth="yes"/>
      <point x="356" y="92"/>
      <point x="397" y="121"/>
      <point x="408" y="165" type="curve"/>
      <point x="526" y="165" type="line"/>
      <point x="504" y="43"/>
      <point x="407" y="-7"/>
    </contour>
    <contour>
      <point x="297" y="734" type="curve" smooth="yes"/>
      <point x="337" y="735"/>
      <point x="368" y="705"/>
      <point x="368" y="666" type="curve" smooth="yes"/>
      <point x="368" y="625"/>
      <point x="338" y="597"/>
      <point x="297" y="597" type="curve" smooth="yes"/>
      <point x="256" y="597"/>
      <point x="228" y="623"/>
      <point x="228" y="666" type="curve" smooth="yes"/>
      <point x="228" y="706"/>
      <point x="257" y="734"/>
    </contour>
  </outline>
</glyph>
<glyph name="ccaron" format="2">
  <advance width="562"/>
  <unicode hex="010D"/>
  <outline>
    <contour>
      <point x="294" y="-7" type="curve" smooth="yes"/>
      <point x="124" y="-7"/>
      <point x="42" y="102"/>
      <point x="42" y="262" type="curve" smooth="yes"/>
      <point x="42" y="420"/>
      <point x="133" y="536"/>
      <point x="297" y="536" type="curve" smooth="yes"/>
      <point x="418" y="536"/>
      <point x="503" y="483"/>
      <point x="524" y="363" type="curve"/>
      <point x="407" y="363" type="line"/>
      <point x="395" y="410"/>
      <point x="352" y="434"/>
      <point x="295" y="434" type="curve" smooth="yes"/>
      <point x="193" y="434"/>
      <point x="154" y="353"/>
      <point x="154" y="261" type="curve" smooth="yes"/>
      <point x="154" y="167"/>
      <point x="195" y="92"/>
      <point x="296" y="92" type="curve" smooth="yes"/>
      <point x="356" y="92"/>
      <point x="397" y="121"/>
      <point x="408" y="165" type="curve"/>
      <point x="526" y="165" type="line"/>
      <point x="504" y="43"/>
      <point x="407" y="-7"/>
    </contour>
    <contour>
      <point x="117" y="769" type="line"/>
      <point x="223" y="769" type="line"/>
      <point x="297" y="676" type="line"/>
      <point x="370" y="769" type="line"/>
      <point x="475" y="769" type="line"/>
      <point x="334" y="599" type="line"/>
      <point x="259" y="599" type="line"/>
    </contour>
  </outline>
</glyph>
<glyph name="Dcaron" format="2">
  <advance width="726"/>
  <unicode hex="010E"/>
  <outline>
    <contour>
      <point x="82" y="707" type="line"/>
      <point x="338" y="707" type="line" smooth="yes"/>
      <point x="563" y="707"/>
      <point x="682" y="573"/>
      <point x="682" y="353" type="curve" smooth="yes"/>
      <point x="682" y="133"/>
      <point x="565" y="0"/>
      <point x="342" y="0" type="curve" smooth="yes"/>
      <point x="82" y="0" type="line"/>
    </contour>
    <contour>
      <point x="198" y="603" type="line"/>
      <point x="198" y="103" type="line"/>
      <point x="339" y="103" type="line" smooth="yes"/>
      <point x="493" y="103"/>
      <point x="563" y="202"/>
      <point x="563" y="353" type="curve" smooth="yes"/>
      <point x="563" y="510"/>
      <point x="485" y="603"/>
      <point x="338" y="603" type="curve" smooth="yes"/>
    </contour>
    <contour>
      <point x="148" y="949" type="line"/>
      <point x="254" y="949" type="line"/>
      <point x="328" y="856" type="line"/>
      <point x="401" y="949" type="line"/>
      <point x="506" y="949" type="line"/>
      <point x="365" y="779" type="line"/>
      <point x="290" y="779" type="line"/>
    </contour>
  </outline>
</glyph>
<glyph name="dcaron" format="2">
  <advance width="727"/>
  <unicode hex="010F"/>
  <outline>
    <contour>
      <point x="561" y="0" type="line"/>
      <point x="454" y="0" type="line"/>
      <point x="448" y="73" type="line"/>
      <point x="409" y="17"/>
      <point x="349" y="-7"/>
      <point x="276" y="-7" type="curve" smooth="yes"/>
      <point x="113" y="-7"/>
      <point x="42" y="116"/>
      <point x="42" y="260" type="curve" smooth="yes"/>
      <point x="42" y="415"/>
      <point x="126" y="536"/>
      <point x="285" y="536" type="curve" smooth="yes"/>
      <point x="342" y="536"/>
      <point x="406" y="521"/>
      <point x="447" y="470" type="curve"/>
      <point x="447" y="707" type="line"/>
      <point x="561" y="707" type="line"/>
    </contour>
    <contour>
      <point x="298" y="433" type="curve"/>
      <point x="197" y="433"/>
      <point x="155" y="359"/>
      <point x="155" y="262" type="curve" smooth="yes"/>
      <point x="155" y="167"/>
      <point x="196" y="91"/>
      <point x="300" y="91" type="curve" smooth="yes"/>
      <point x="399" y="91"/>
      <point x="447" y="175"/>
      <point x="447" y="263" type="curve" smooth="yes"/>
      <point x="447" y="357"/>
      <point x="404" y="430"/>
    </contour>
    <contour>
      <point x="599" y="502" type="line"/>
      <point x="625" y="518"/>
      <point x="661" y="556"/>
      <point x="669" y="586" type="curve"/>
      <point x="632" y="589"/>
      <point x="605" y="611"/>
      <point x="605" y="650" type="curve" smooth="yes"/>
      <point x="605" y="693"/>
      <point x="634" y="716"/>
      <point x="674" y="716" type="curve" smooth="yes"/>
      <point x="723" y="716"/>
      <point x="747" y="674"/>
      <point x="747" y="627" type="curve" smooth="yes"/>
      <point x="747" y="558"/>
      <point x="696" y="481"/>
      <point x="629" y="460" type="curve"/>
    </contour>
  </outline>
</glyph>
<glyph name="Dcroat" format="2">
  <advance width="726"/>
  <unicode hex="0110"/>
  <outline>
    <contour>
      <point x="198" y="305" type="line"/>
      <point x="198" y="103" type="line"/>
      <point x="339" y="103" type="line" smooth="yes"/>
      <point x="495" y="103"/>
      <point x="563" y="206"/>
      <point x="563" y="353" type="curve" smooth="yes"/>
      <point x="563" y="500"/>
      <point x="494" y="603"/>
      <point x="338" y="603" type="curve" smooth="yes"/>
      <point x="198" y="603" type="line"/>
      <point x="198" y="402" type="line"/>
      <point x="344" y="402" type="line"/>
      <point x="344" y="305" type="line"/>
    </contour>
    <contour>
      <point x="82" y="707" type="line"/>
      <point x="338" y="707" type="line" smooth="yes"/>
      <point x="561" y="707"/>
      <point x="682" y="573"/>
      <point x="682" y="353" type="curve" smooth="yes"/>
      <point x="682" y="134"/>
      <point x="566" y="0"/>
      <point x="342" y="0" type="curve" smooth="yes"/>
      <point x="82" y="0" type="line"/>
      <point x="82" y="305" type="line"/>
      <point x="4" y="305" type="line"/>
      <point x="4" y="402" type="line"/>
      <point x="82" y="402" type="line"/>
    </contour>
  </outline>
</glyph>
<glyph name="Emacron" format="2">
  <advance width="616"/>
  <unicode hex="0112"/>
  <outline>
    <contour>
      <point x="82" y="707" type="line"/>
      <point x="573" y="707" type="line"/>
      <point x="573" y="603" type="line"/>
      <point x="198" y="603" type="line"/>
      <point x="198" y="402" type="line"/>
      <point x="530" y="402" type="line"/>
      <point x="530" y="297" type="line"/>
      <point x="198" y="297" type="line"/>
      <point x="198" y="103" type="line"/>
      <point x="573" y="103" type="line"/>
      <point x="573" y="0" type="line"/>
      <point x="82" y="0" type="line"/>
    </contour>
    <contour>
      <point x="493" y="902" type="line"/>
      <point x="493" y="809" type="line"/>
      <point x="155" y="809" type="line"/>
      <point x="155" y="902" type="line"/>
    </contour>
  </outline>
</glyph>
<glyph name="Ebreve" format="2">
  <advance width="616"/>
  <unicode hex="0114"/>
  <outline>
    <contour>
      <point x="82" y="707" type="line"/>
      <point x="573" y="707" type="line"/>
      <point x="573" y="603" type="line"/>
      <point x="198" y="603" type="line"/>
      <point x="198" y="402" type="line"/>
      <point x="530" y="402" type="line"/>
      <point x="530" y="297" type="line"/>
      <point x="198" y="297" type="line"/>
      <point x="198" y="103" type="line"/>
      <point x="573" y="103" type="line"/>
      <point x="573" y="0" type="line"/>
      <point x="82" y="0" type="line"/>
    </contour>
    <contour>
      <point x="248" y="923" type="line"/>
      <point x="251" y="872"/>
      <point x="286" y="855"/>
      <point x="333" y="855" type="curve" smooth="yes"/>
      <point x="380" y="855"/>
      <point x="415" y="872"/>
      <point x="418" y="923" type="curve"/>
      <point x="512" y="923" type="line"/>
      <point x="509" y="816"/>
      <point x="430" y="775"/>
      <point x="332" y="775" type="curve" smooth="yes"/>
      <point x="233" y="775"/>
      <point x="157" y="815"/>
      <point x="154" y="923" type="curve"/>
    </contour>
  </outline>
</glyph>
<glyph name="ebreve" format="2">
  <advance width="576"/>
  <unicode hex="0115"/>
  <outline>
    <contour>
      <point x="156" y="225" type="line"/>
      <point x="161" y="149"/>
      <point x="208" y="87"/>
      <point x="298" y="87" type="curve" smooth="yes"/>
      <point x="346" y="87"/>
      <point x="389" y="102"/>
      <point x="408" y="145" type="curve"/>
      <point x="525" y="145" type="line"/>
      <point x="498" y="37"/>
      <point x="402" y="-7"/>
      <point x="295" y="-7" type="curve" smooth="yes"/>
      <point x="126" y="-7"/>
      <point x="42" y="100"/>
      <point x="42" y="264" type="curve" smooth="yes"/>
      <point x="42" y="422"/>
      <point x="136" y="536"/>
      <point x="292" y="536" type="curve" smooth="yes"/>
      <point x="455" y="536"/>
      <point x="535" y="421"/>
      <point x="535" y="276" type="curve" smooth="yes"/>
      <point x="535" y="259"/>
      <point x="534" y="242"/>
      <point x="532" y="225" type="curve"/>
    </contour>
    <contour>
      <point x="424" y="311" type="line"/>
      <point x="421" y="391"/>
      <point x="369" y="437"/>
      <point x="293" y="437" type="curve" smooth="yes"/>
      <point x="209" y="437"/>
      <point x="165" y="380"/>
      <point x="157" y="311" type="curve"/>
    </contour>
    <contour>
      <point x="214" y="743" type="line"/>
      <point x="217" y="692"/>
      <point x="252" y="675"/>
      <point x="299" y="675" type="curve" smooth="yes"/>
      <point x="346" y="675"/>
      <point x="381" y="692"/>
      <point x="384" y="743" type="curve"/>
      <point x="478" y="743" type="line"/>
      <point x="475" y="636"/>
      <point x="396" y="595"/>
      <point x="298" y="595" type="curve" smooth="yes"/>
      <point x="199" y="595"/>
      <point x="123" y="635"/>
      <point x="120" y="743" type="curve"/>
    </contour>
  </outline>
</glyph>
<glyph name="Edotaccent" format="2">
  <advance width="616"/>
  <unicode hex="0116"/>
  <outline>
    <contour>
      <point x="82" y="707" type="line"/>
      <point x="573" y="707" type="line"/>
      <point x="573" y="603" type="line"/>
      <point x="198" y="603" type="line"/>
      <point x="198" y="402" type="line"/>
      <point x="530" y="402" type="line"/>
      <point x="530" y="297" type="line"/>
      <point x="198" y="297" type="line"/>
      <point x="198" y="103" type="line"/>
      <point x="573" y="103" type="line"/>
      <point x="573" y="0" type="line"/>
      <point x="82" y="0" type="line"/>
    </contour>
    <contour>
      <point x="332" y="914" type="curve" smooth="yes"/>
      <point x="372" y="915"/>
      <point x="403" y="885"/>
      <point x="403" y="846" type="curve" smooth="yes"/>
      <point x="403" y="805"/>
      <point x="373" y="777"/>
      <point x="332" y="777" type="curve" smooth="yes"/>
      <point x="291" y="777"/>
      <point x="263" y="803"/>
      <point x="263" y="846" type="curve" smooth="yes"/>
      <point x="263" y="886"/>
      <point x="292" y="914"/>
    </contour>
  </outline>
</glyph>
<glyph name="Eogonek" format="2">
  <advance width="616"/>
  <unicode hex="0118"/>
  <outline>
    <contour>
      <point x="82" y="707" type="line"/>
      <point x="573" y="707" type="line"/>
      <point x="573" y="603" type="line"/>
      <point x="198" y="603" type="line"/>
      <point x="198" y="402" type="line"/>
      <point x="530" y="402" type="line"/>
      <point x="530" y="297" type="line"/>
      <point x="198" y="297" type="line"/>
      <point x="198" y="103" type="line"/>
      <point x="573" y="103" type="line"/>
      <point x="573" y="0" type="line"/>
      <point x="385" y="0" type="line"/>
      <point x="379" y="-3"/>
      <point x="373" y="-7"/>
      <point x="366" y="-12" type="curve"/>
      <point x="340" y="-32"/>
      <point x="316" y="-58"/>
      <point x="316" y="-90" type="curve"/>
      <point x="315" y="-126"/>
      <point x="340" y="-146"/>
      <point x="375" y="-146" type="curve" smooth="yes"/>
      <point x="391" y="-146"/>
      <point x="406" y="-142"/>
      <point x="420" y="-135" type="curve"/>
      <point x="435" y="-204" type="line"/>
      <point x="410" y="-217"/>
      <point x="386" y="-222"/>
      <point x="359" y="-222" type="curve" smooth="yes"/>
      <point x="288" y="-222"/>
      <point x="232" y="-183"/>
      <point x="232" y="-107" type="curve" smooth="yes"/>
      <point x="232" y="-59"/>
      <point x="257" y="-26"/>
      <point x="295" y="0" type="curve"/>
      <point x="82" y="0" type="line"/>
    </contour>
  </outline>
</glyph>
